<svg xmlns="http://www.w3.org/2000/svg" viewBox="0 0 1000 1000" width="1000" height="1000" style="width:100%;height:100%;transform:translate3d(0,0,0);content-visibility:visible"><defs><clipPath id="a"><path d="M0 0h1000v1000H0z"/></clipPath><clipPath id="b"><path d="M0 0h512v512H0z"/></clipPath><clipPath id="d"><path d="M0 0h512v512H0z"/></clipPath><clipPath id="f"><path d="M0 0h512v512H0z"/></clipPath><clipPath id="h"><path d="M0 0h512v512H0z"/></clipPath><clipPath id="j"><path d="M0 0h512v512H0z"/></clipPath><clipPath id="k"><path d="M0 0h512v512H0z"/></clipPath><radialGradient id="l" spreadMethod="pad" gradientUnits="userSpaceOnUse" cx="-10.24" cy="-128" r="624.689" fx="-10.24" fy="-128"><stop offset="0%" stop-color="#FFD769"/><stop offset="18%" stop-color="#FEE398"/><stop offset="38%" stop-color="#FDEFC8"/><stop offset="55%" stop-color="#FEF4D6"/><stop offset="72%" stop-color="#FFF8E5"/><stop offset="86%" stop-color="#FDCAC1"/><stop offset="100%" stop-color="#FC9D9D"/></radialGradient><radialGradient id="c" spreadMethod="pad" gradientUnits="userSpaceOnUse" cx="0" cy="0" r="299.189" fx="0" fy="0"><stop offset="0%" stop-color="#039045"/><stop offset="6%" stop-color="#1D65B9" stop-opacity=".5"/><stop offset="24%" stop-color="#065F4C" stop-opacity="0"/><stop offset="41%" stop-color="#E5B56C"/><stop offset="51%" stop-color="#D2FFF7"/><stop offset="76%" stop-color="#53FFE7"/><stop offset="100%" stop-color="#13FFE7"/></radialGradient><radialGradient id="e" spreadMethod="pad" gradientUnits="userSpaceOnUse" cx="0" cy="0" r="299.189" fx="0" fy="0"><stop offset="0%" stop-color="#039045"/><stop offset="6%" stop-color="#1D65B9" stop-opacity=".5"/><stop offset="24%" stop-color="#065F4C" stop-opacity="0"/><stop offset="41%" stop-color="#E5B56C"/><stop offset="51%" stop-color="#D2FFF7"/><stop offset="76%" stop-color="#53FFE7"/><stop offset="100%" stop-color="#13FFE7"/></radialGradient><radialGradient id="g" spreadMethod="pad" gradientUnits="userSpaceOnUse" cx="0" cy="0" r="299.189" fx="0" fy="0"><stop offset="0%" stop-color="#039045"/><stop offset="6%" stop-color="#1D65B9" stop-opacity=".5"/><stop offset="24%" stop-color="#065F4C" stop-opacity="0"/><stop offset="41%" stop-color="#E5B56C"/><stop offset="51%" stop-color="#D2FFF7"/><stop offset="76%" stop-color="#53FFE7"/><stop offset="100%" stop-color="#13FFE7"/></radialGradient><radialGradient id="i" spreadMethod="pad" gradientUnits="userSpaceOnUse" cx="0" cy="0" r="299.189" fx="0" fy="0"><stop offset="0%" stop-color="#039045"/><stop offset="6%" stop-color="#1D65B9" stop-opacity=".5"/><stop offset="24%" stop-color="#065F4C" stop-opacity="0"/><stop offset="41%" stop-color="#E5B56C"/><stop offset="51%" stop-color="#D2FFF7"/><stop offset="76%" stop-color="#53FFE7"/><stop offset="100%" stop-color="#13FFE7"/></radialGradient><linearGradient id="m" spreadMethod="pad" gradientUnits="userSpaceOnUse" x1="-322.56" y1="-2.56" x2="353.44" y2="2.56"><stop offset="0%" stop-color="#FFD769"/><stop offset="18%" stop-color="#FEE398"/><stop offset="38%" stop-color="#FDEFC8"/><stop offset="55%" stop-color="#FEF4D6"/><stop offset="72%" stop-color="#FFF8E5"/><stop offset="86%" stop-color="#FDCAC1"/><stop offset="100%" stop-color="#FC9D9D"/></linearGradient></defs><g clip-path="url(#a)"><g clip-path="url(#b)" transform="translate(.001 .001) scale(1.95312)" style="display:block"><g opacity=".34" style="display:block"><g opacity="1"><path fill="url(#c)" d="M.74-210.26c-38.607-4.825-83.608-.632-118.582 16.418-21.995 10.723-38.549 34.623-44.69 58.31-8.704 33.571 22.26 75.973 5.127 106.127-13.647 24.018-68.422 2.753-76.983 29.017-15.927 48.861-4.28 106.854 18.78 152.78 19.535 38.905 58.366 72.328 100.238 84.238 40.587 11.545 79.32-24.047 121.513-23.487 34.526.458 70.985 37.403 103.336 25.336 23.214-8.66 7.334-52.758 26.31-68.69 28.92-24.286 80.732-12.407 103.348-42.652 14.898-19.924-21.444-44.71-21.587-69.587-.202-35.107 33.55-72.002 20.433-104.567-11.195-27.795-65.705-14.617-79.969-40.969-11.293-20.863 39.198-53.891 20.504-68.496C128.672-195.424 63.507-202.413.74-210.26z" transform="translate(256 256)"/><path stroke="#E4B96B" stroke-opacity=".57" d="M256.74 45.74c-38.607-4.825-83.608-.632-118.582 16.418-21.995 10.723-38.549 34.623-44.69 58.31-8.704 33.571 22.26 75.973 5.127 106.127-13.647 24.018-68.422 2.753-76.983 29.017-15.927 48.861-4.28 106.854 18.78 152.78 19.535 38.905 58.366 72.328 100.238 84.238 40.587 11.545 79.32-24.047 121.513-23.487 34.526.458 70.985 37.403 103.336 25.336 23.214-8.66 7.334-52.758 26.31-68.69 28.92-24.286 80.732-12.407 103.348-42.652 14.898-19.924-21.444-44.71-21.587-69.587-.202-35.107 33.55-72.002 20.433-104.567-11.195-27.795-65.705-14.617-79.969-40.969-11.293-20.863 39.198-53.891 20.504-68.496C384.672 60.576 319.507 53.587 256.74 45.74z" fill="none"/></g></g></g><g clip-path="url(#d)" transform="translate(100 100) scale(1.5625)" style="display:block"><g opacity=".34" style="display:block"><g opacity="1"><path fill="url(#e)" d="M.74-210.26c-38.607-4.825-83.608-.632-118.582 16.418-21.995 10.723-38.549 34.623-44.69 58.31-8.704 33.571 22.26 75.973 5.127 106.127-13.647 24.018-68.422 2.753-76.983 29.017-15.927 48.861-4.28 106.854 18.78 152.78 19.535 38.905 58.366 72.328 100.238 84.238 40.587 11.545 79.32-24.047 121.513-23.487 34.526.458 70.985 37.403 103.336 25.336 23.214-8.66 7.334-52.758 26.31-68.69 28.92-24.286 80.732-12.407 103.348-42.652 14.898-19.924-21.444-44.71-21.587-69.587-.202-35.107 33.55-72.002 20.433-104.567-11.195-27.795-65.705-14.617-79.969-40.969-11.293-20.863 39.198-53.891 20.504-68.496C128.672-195.424 63.507-202.413.74-210.26z" transform="translate(256 256)"/><path stroke="#E4B96B" stroke-opacity=".57" d="M256.74 45.74c-38.607-4.825-83.608-.632-118.582 16.418-21.995 10.723-38.549 34.623-44.69 58.31-8.704 33.571 22.26 75.973 5.127 106.127-13.647 24.018-68.422 2.753-76.983 29.017-15.927 48.861-4.28 106.854 18.78 152.78 19.535 38.905 58.366 72.328 100.238 84.238 40.587 11.545 79.32-24.047 121.513-23.487 34.526.458 70.985 37.403 103.336 25.336 23.214-8.66 7.334-52.758 26.31-68.69 28.92-24.286 80.732-12.407 103.348-42.652 14.898-19.924-21.444-44.71-21.587-69.587-.202-35.107 33.55-72.002 20.433-104.567-11.195-27.795-65.705-14.617-79.969-40.969-11.293-20.863 39.198-53.891 20.504-68.496C384.672 60.576 319.507 53.587 256.74 45.74z" fill="none"/></g></g></g><g clip-path="url(#f)" transform="translate(185 185) scale(1.23047)" style="display:block"><g opacity=".34" style="display:block"><g opacity="1"><path fill="url(#g)" d="M.74-210.26c-38.607-4.825-83.608-.632-118.582 16.418-21.995 10.723-38.549 34.623-44.69 58.31-8.704 33.571 22.26 75.973 5.127 106.127-13.647 24.018-68.422 2.753-76.983 29.017-15.927 48.861-4.28 106.854 18.78 152.78 19.535 38.905 58.366 72.328 100.238 84.238 40.587 11.545 79.32-24.047 121.513-23.487 34.526.458 70.985 37.403 103.336 25.336 23.214-8.66 7.334-52.758 26.31-68.69 28.92-24.286 80.732-12.407 103.348-42.652 14.898-19.924-21.444-44.71-21.587-69.587-.202-35.107 33.55-72.002 20.433-104.567-11.195-27.795-65.705-14.617-79.969-40.969-11.293-20.863 39.198-53.891 20.504-68.496C128.672-195.424 63.507-202.413.74-210.26z" transform="translate(256 256)"/><path stroke="#E4B96B" stroke-opacity=".57" d="M256.74 45.74c-38.607-4.825-83.608-.632-118.582 16.418-21.995 10.723-38.549 34.623-44.69 58.31-8.704 33.571 22.26 75.973 5.127 106.127-13.647 24.018-68.422 2.753-76.983 29.017-15.927 48.861-4.28 106.854 18.78 152.78 19.535 38.905 58.366 72.328 100.238 84.238 40.587 11.545 79.32-24.047 121.513-23.487 34.526.458 70.985 37.403 103.336 25.336 23.214-8.66 7.334-52.758 26.31-68.69 28.92-24.286 80.732-12.407 103.348-42.652 14.898-19.924-21.444-44.71-21.587-69.587-.202-35.107 33.55-72.002 20.433-104.567-11.195-27.795-65.705-14.617-79.969-40.969-11.293-20.863 39.198-53.891 20.504-68.496C384.672 60.576 319.507 53.587 256.74 45.74z" fill="none"/></g></g></g><g clip-path="url(#h)" transform="translate(265 265) scale(.91797)" style="display:block"><g opacity=".34" style="display:block"><g opacity="1"><path fill="url(#i)" d="M.74-210.26c-38.607-4.825-83.608-.632-118.582 16.418-21.995 10.723-38.549 34.623-44.69 58.31-8.704 33.571 22.26 75.973 5.127 106.127-13.647 24.018-68.422 2.753-76.983 29.017-15.927 48.861-4.28 106.854 18.78 152.78 19.535 38.905 58.366 72.328 100.238 84.238 40.587 11.545 79.32-24.047 121.513-23.487 34.526.458 70.985 37.403 103.336 25.336 23.214-8.66 7.334-52.758 26.31-68.69 28.92-24.286 80.732-12.407 103.348-42.652 14.898-19.924-21.444-44.71-21.587-69.587-.202-35.107 33.55-72.002 20.433-104.567-11.195-27.795-65.705-14.617-79.969-40.969-11.293-20.863 39.198-53.891 20.504-68.496C128.672-195.424 63.507-202.413.74-210.26z" transform="translate(256 256)"/><path stroke="#E4B96B" stroke-opacity=".57" d="M256.74 45.74c-38.607-4.825-83.608-.632-118.582 16.418-21.995 10.723-38.549 34.623-44.69 58.31-8.704 33.571 22.26 75.973 5.127 106.127-13.647 24.018-68.422 2.753-76.983 29.017-15.927 48.861-4.28 106.854 18.78 152.78 19.535 38.905 58.366 72.328 100.238 84.238 40.587 11.545 79.32-24.047 121.513-23.487 34.526.458 70.985 37.403 103.336 25.336 23.214-8.66 7.334-52.758 26.31-68.69 28.92-24.286 80.732-12.407 103.348-42.652 14.898-19.924-21.444-44.71-21.587-69.587-.202-35.107 33.55-72.002 20.433-104.567-11.195-27.795-65.705-14.617-79.969-40.969-11.293-20.863 39.198-53.891 20.504-68.496C384.672 60.576 319.507 53.587 256.74 45.74z" fill="none"/></g></g></g><g transform="translate(519.143 561.078) scale(.78125)" style="display:block"/><path fill="#C2FAFF" d="M104.62-39h-209.24a9.38 9.38 0 0 0-9.38 9.38V8.62a9.38 9.38 0 0 0 9.38 9.38h6.31l.31 21 14.82-21h187.8A9.38 9.38 0 0 0 114 8.62v-38.29a9.385 9.385 0 0 0-9.38-9.33z" transform="rotate(8.391 -4126.16 1074.97) scale(.2348)" style="display:block"/><path fill="#FFF" d="M93.29-2.275H-93.29v4.55H93.29v-4.55z" transform="matrix(.01585 .00234 -.03427 .23229 93.15 606.791)" style="display:block"/><path fill="#FFF" d="M16.57-2.275h-33.14v4.55h33.14v-4.55z" transform="matrix(0 0 -.03427 .23229 91.204 609.743)" style="display:block"/><path fill="#FFF" d="M40.56-2.275h-81.12v4.55h81.12v-4.55z" transform="matrix(0 0 -.03427 .23229 100.591 611.128)" style="display:block"/><g clip-path="url(#j)" transform="translate(.001 .001) scale(1.95312)" style="display:block"><path fill="#D9C2FF" d="M-104.62-39h209.24a9.38 9.38 0 0 1 9.38 9.38V8.62a9.381 9.381 0 0 1-9.38 9.38H98.3L98 39 83.15 18h-187.77A9.38 9.38 0 0 1-114 8.62v-38.29a9.376 9.376 0 0 1 9.38-9.33z" transform="rotate(4.798 -4065.87 1013.012) scale(.24022)" style="display:block"/><path fill="#FFF" d="M-93.29 2.275H93.29v-4.55H-93.29v4.55z" transform="matrix(.01633 .00137 -.02007 .23938 49.944 337.403)" style="display:block"/><path fill="#FFF" d="M-40.56 2.275h81.12v-4.55h-81.12v4.55z" transform="matrix(0 0 -.02007 .23938 63.718 341.85)" style="display:block"/><path fill="#FFF" d="M-16.57 2.275h33.14v-4.55h-33.14v4.55z" transform="matrix(0 0 -.02007 .23938 84.876 343.624)" style="display:block"/></g><g clip-path="url(#k)" transform="translate(.001 -152.343) scale(1.95312)" style="display:block"><path fill="#D9C2FF" d="M-104.62-39h209.24a9.38 9.38 0 0 1 9.38 9.38V8.62a9.381 9.381 0 0 1-9.38 9.38H98.3L98 39 83.15 18h-187.77A9.38 9.38 0 0 1-114 8.62v-38.29a9.376 9.376 0 0 1 9.38-9.33z" transform="rotate(11.179 -1758.195 638.1) scale(.02688)" style="display:block"/><path fill="#FFF" d="M-93.29 2.275H93.29v-4.55H-93.29v4.55z" transform="matrix(0 0 -.00522 .02637 88.188 352.597)" style="display:block"/><path fill="#FFF" d="M-40.56 2.275h81.12v-4.55h-81.12v4.55z" transform="matrix(0 0 -.00522 .02637 89.833 353.297)" style="display:block"/><path fill="#FFF" d="M-16.57 2.275h33.14v-4.55h-33.14v4.55z" transform="matrix(0 0 -.00522 .02637 92.164 353.758)" style="display:block"/></g><path fill="#B1B5BA" d="M527.063 1.5h-1053.63c-.218.04-.44.02-.653-.04a1.5 1.5 0 0 1-.973-.82 1.538 1.538 0 0 1 0-1.28 1.5 1.5 0 0 1 .396-.52c.168-.14.365-.25.577-.31.213-.05.435-.07.653-.03h1053.63c.36.06.68.24.91.52.24.27.36.62.36.98s-.12.71-.36.98c-.23.28-.55.46-.91.52z" transform="translate(533.158 933.186) scale(.78125)" style="display:block"/><path fill="#57B078" d="M30.915 17.223c9.51-17.075 3.38-38.628-13.69-48.139-17.08-9.512-38.63-3.381-48.14 13.694-9.51 17.075-3.38 38.628 13.69 48.139 17.08 9.512 38.63 3.38 48.14-13.694z" transform="rotate(-9.009 4078.317 -5276.897) scale(.78125)" style="display:block"/><g opacity=".2" style="display:block"><path fill="#FFF" d="M852.615 571.872a25.703 25.703 0 0 1 7.539-13.764 25.69 25.69 0 0 1 14.148-6.802c5.31-.736 10.712.21 15.458 2.702a25.652 25.652 0 0 1 10.998 11.196 25.695 25.695 0 0 0-5.331-8.978 25.591 25.591 0 0 0-8.468-6.113 25.642 25.642 0 0 0-10.195-2.237 25.684 25.684 0 0 0-18.849 7.936 25.695 25.695 0 0 0-5.525 8.858 25.63 25.63 0 0 0-1.542 10.327 25.689 25.689 0 0 0 2.699 10.087 25.545 25.545 0 0 1-.932-13.212z" opacity="1"/></g><path fill="#20252A" d="M-13.939-9.326a15.184 15.184 0 0 0 1.4 10.7 15.174 15.174 0 0 0 8.17 7.048c3.5 1.266 7.34 1.2 10.79-.184A15.108 15.108 0 0 0 14.35.914l-28.289-10.24z" transform="rotate(-9.009 4133.97 -5267.932) scale(.78125)" style="display:block"/><path fill="#D9DDDE" d="M-9.545-4.13c1.7 3.376 4.6 5.993 8.13 7.337a15.143 15.143 0 0 0 10.96-.077v-.35c-7.84-8.07-18.94-6.93-19.09-6.91z" transform="rotate(-9.009 4160.637 -5254.19) scale(.78125)" style="display:block"/><path fill="#B1B5BA" d="M263.66-389.219h-527.319c-5.744 0-10.4 4.656-10.4 10.4v757.638c0 5.75 4.656 10.4 10.4 10.4H263.66c5.74 0 10.399-4.65 10.399-10.4v-757.638c0-5.744-4.659-10.4-10.399-10.4z" transform="translate(597.168 626.499) scale(.78125)" style="display:block"/><g style="display:block"><path stroke="#000" stroke-width="1.563" d="M793.27 321.96H381.302a8.125 8.125 0 0 0-8.125 8.126V921.99a8.122 8.122 0 0 0 8.125 8.125H793.27a8.124 8.124 0 0 0 8.125-8.125V330.086a8.127 8.127 0 0 0-8.125-8.125z" fill="none"/><path fill="url(#l)" d="M263.66-389.219h-527.32c-5.744 0-10.4 4.656-10.4 10.4v757.638c0 5.75 4.656 10.4 10.4 10.4h527.32c5.74 0 10.4-4.65 10.4-10.4v-757.638c0-5.744-4.66-10.4-10.4-10.4z" transform="translate(587.286 626.038) scale(.78125)"/></g><path fill="#FFD669" d="M-263.855-31.415h527.71c1.37 0 2.72.269 3.98.792 1.26.522 2.41 1.288 3.37 2.254.97.966 1.74 2.112 2.26 3.374.52 1.262.79 2.614.79 3.98v52.43h-548.51v-52.43a10.4 10.4 0 0 1 10.4-10.4z" transform="translate(596.516 346.198) scale(.78125)" style="display:block"/><g opacity=".2" style="display:block"><path d="M390.38 321.655h412.273a8.103 8.103 0 0 1 5.742 2.38 8.053 8.053 0 0 1 1.766 2.636c.406.986.617 2.042.617 3.109v40.961H382.254V329.78a8.125 8.125 0 0 1 8.125-8.125z" opacity="1"/></g><g style="display:block"><path stroke="#000" stroke-width="1.563" d="M381.003 321.655h412.274a8.13 8.13 0 0 1 8.125 8.125v40.961H372.878V329.78a8.127 8.127 0 0 1 8.125-8.125z" fill="none"/><path fill="url(#m)" d="M-263.855-31.415h527.71a10.407 10.407 0 0 1 10.4 10.4v52.43h-548.51v-52.43a10.403 10.403 0 0 1 10.4-10.4z" transform="translate(587.14 346.198) scale(.78125)"/></g><g opacity=".05" style="display:block"><path d="M403.23 401.629h369.533c1.242 0 2.437.494 3.312 1.373a4.673 4.673 0 0 1 1.375 3.315v226.96a4.673 4.673 0 0 1-1.375 3.315 4.678 4.678 0 0 1-3.312 1.373H403.23V401.629z" opacity="1"/></g><path fill="#FFF" d="M233.72-151.26h-467.44a5.772 5.772 0 0 0-5.771 5.77v290.98a5.771 5.771 0 0 0 5.771 5.77h467.44a5.769 5.769 0 0 0 5.771-5.77v-290.98a5.77 5.77 0 0 0-5.771-5.77z" transform="translate(585.644 519.801) scale(.78125)" style="display:block"/><g opacity=".85" style="display:block"><path d="M393.169 351.576a5.375 5.375 0 1 0 0-10.75 5.375 5.375 0 0 0 0 10.75zm19.101 0a5.375 5.375 0 1 0 0-10.75 5.375 5.375 0 0 0 0 10.75zm19.094 0a5.375 5.375 0 1 0 0-10.75 5.375 5.375 0 1 0 0 10.75z" opacity=".3"/></g><path fill="#949494" d="M173.03-3.44h-346.06v6.88h346.06v-6.88z" transform="translate(598.175 346.203) scale(.78125)" style="display:block"/><path fill="#B1B5BA" d="M173.03-3.44h-346.06v6.88h346.06v-6.88z" transform="matrix(0 0 0 .78125 585.645 437.74)" style="display:block"/><path fill="#B1B5BA" d="M85.18-3.44H-85.18v6.88H85.18v-6.88z" transform="matrix(.52607 0 0 .78125 585.645 426.406)" style="display:block"/><g opacity=".79" style="display:block" stroke-linecap="round" stroke-miterlimit="10" stroke="#000" stroke-width="1.563" fill="none"><path d="M758.122 340.826h20.297m-20.297 5.374h20.297m-20.297 5.368h20.297" opacity=".3"/></g><path fill="#FFD669" d="M0-17.78 5.78-6.07 18.69-4.2 9.35 4.92l2.2 12.86L0 11.71l-11.55 6.07 2.2-12.86-9.34-9.12 12.91-1.87L0-17.78z" transform="rotate(-16.128 2395.114 -1363.714) scale(.18117)" style="display:block"/><path fill="#FFD669" d="m.005-17.78 5.78 11.71 12.91 1.87-9.34 9.12 2.2 12.86-11.55-6.07-11.56 6.07 2.21-12.86-9.35-9.12 12.92-1.87 5.78-11.71z" transform="matrix(0 0 0 0 520.903 615.779)" style="display:block"/><path fill="#FFD669" d="M0-17.78 5.78-6.07 18.69-4.2 9.35 4.92l2.2 12.86L0 11.71l-11.55 6.07 2.2-12.86-9.34-9.12 12.91-1.87L0-17.78z" transform="matrix(0 0 0 0 571.043 615.779)" style="display:block"/><path fill="#FFD669" d="M0-17.78 5.78-6.07 18.69-4.2 9.35 4.92l2.2 12.86L0 11.71l-11.56 6.07 2.21-12.86-9.34-9.12 12.91-1.87L0-17.78z" transform="matrix(0 0 0 0 621.176 615.779)" style="display:block"/><path fill="#D9DDDE" d="m.005-17.78 5.78 11.71 12.91 1.87-9.34 9.12 2.2 12.86-11.55-6.07-11.56 6.07 2.21-12.86-9.35-9.12 12.92-1.87 5.78-11.71z" transform="matrix(0 0 0 0 671.3 615.779)" style="display:block"/><path fill="#FFD669" d="m9.345 11.71-11.55 6.07 2.2-12.86-9.34-9.12 12.91-1.87 5.78-11.71v29.49z" transform="matrix(0 0 0 0 672.014 615.591)" style="display:block"/><path fill="#FF6161" d="M37.065 6.017c3.322-20.471-10.578-39.759-31.049-43.082-20.47-3.322-39.758 10.578-43.081 31.049-3.323 20.47 10.578 39.758 31.048 43.081 20.471 3.323 39.759-10.578 43.082-31.048z" transform="matrix(0 0 0 0 487.571 517.932)" style="display:block"/><g opacity=".2" style="display:block"><path fill="#FFF" d="M487.571 517.932z" opacity="1"/></g><path fill="#20252A" d="M0 4.66c1.53 0 2.77-2.086 2.77-4.66 0-2.574-1.24-4.66-2.77-4.66S-2.77-2.574-2.77 0c0 2.574 1.24 4.66 2.77 4.66z" transform="matrix(0 0 0 0 487.571 517.932)" style="display:block"/><path fill="#20252A" d="M2.77.005c0 2.57-1.24 4.66-2.77 4.66s-2.77-2.09-2.77-4.66c0-2.57 1.24-4.67 2.77-4.67s2.77 2.09 2.77 4.67z" transform="matrix(0 0 0 0 487.571 517.932)" style="display:block"/><path fill="#20252A" d="M15.413 6.428a1.242 1.242 0 0 0 2.031-.54 1.24 1.24 0 0 0-.031-.82A18.834 18.834 0 0 0 .117-6.76 18.829 18.829 0 0 0-17.407 4.728a1.244 1.244 0 0 0 .447 1.492 1.238 1.238 0 0 0 1.553-.122c5.52-5.33 17.19-12.92 30.82.33z" transform="matrix(0 0 0 0 487.571 517.932)" style="display:block"/><path fill="#20252A" d="m-2.941-5.459-2.518 2.517 8.401 8.401 2.517-2.517-8.4-8.401z" transform="matrix(0 0 0 0 487.571 517.932)" style="display:block"/><path fill="#20252A" d="M5.459-2.942 2.942-5.459l-8.401 8.4 2.518 2.518 8.4-8.401z" transform="matrix(0 0 0 0 487.571 517.932)" style="display:block"/><path fill="#ACBEAF" d="M32.23 32.23c17.8-17.8 17.8-46.66 0-64.46-17.8-17.8-46.66-17.8-64.46 0-17.8 17.8-17.8 46.66 0 64.46 17.801 17.8 46.66 17.8 64.46 0z" transform="matrix(0 0 0 0 589.233 517.34)" style="display:block"/><g opacity=".2" style="display:block"><path fill="#FFF" d="M589.233 517.34z" opacity="1"/></g><path fill="#20252A" d="M3.36 0c0 3.13-1.51 5.66-3.36 5.66-1.85 0-3.36-2.53-3.36-5.66 0-3.13 1.5-5.66 3.36-5.66 1.86 0 3.36 2.54 3.36 5.66z" transform="matrix(0 0 0 0 589.233 517.34)" style="display:block"/><path fill="#20252A" d="M3.355 0c0 3.13-1.5 5.66-3.35 5.66S-3.355 3.13-3.355 0c0-3.13 1.5-5.66 3.36-5.66 1.86 0 3.35 2.54 3.35 5.66z" transform="matrix(0 0 0 0 589.233 517.34)" style="display:block"/><path fill="#20252A" d="M-30.63-13.662a30.83 30.83 0 0 0 61.26 0h-61.26z" transform="matrix(0 0 0 0 589.233 517.34)" style="display:block"/><path fill="#D9DDDE" d="M-20.795-1.965a30.803 30.803 0 0 0 41.59.67l-.29-.67c-20.56-10.03-41.02-.14-41.3 0z" transform="matrix(0 0 0 0 589.233 517.34)" style="display:block"/><path fill="#F9E00E" d="M36.642 8.648c4.78-20.237-7.76-40.515-27.99-45.291-20.24-4.777-40.518 7.757-45.294 27.994-4.777 20.238 7.757 40.515 27.994 45.292 20.24 4.776 40.52-7.757 45.29-27.995z" transform="translate(683.391 520.222) scale(.9511)" style="display:block"/><g opacity=".2" style="display:block"><path fill="#FFF" d="M652.493 524.03a33.298 33.298 0 0 1 22.57-31.38 33.308 33.308 0 0 1 20.296-.364 33.258 33.258 0 0 1 16.73 11.485 33.287 33.287 0 0 0-34.953-16.737 33.315 33.315 0 0 0-12.7 5.098 33.296 33.296 0 0 0-13.68 36.255 33.272 33.272 0 0 0 6.169 12.22 33.136 33.136 0 0 1-4.432-16.578z" opacity="1"/></g><path fill="#20252A" d="M2.77.005c0 2.58-1.24 4.67-2.77 4.67s-2.77-2.09-2.77-4.67 1.24-4.68 2.77-4.68 2.77 2.1 2.77 4.68z" transform="translate(670.24 511.565) scale(.9511)" style="display:block"/><path fill="#20252A" d="M2.775.005c0 2.58-1.24 4.67-2.77 4.67s-2.78-2.09-2.78-4.67 1.25-4.68 2.78-4.68c1.53 0 2.77 2.1 2.77 4.68z" transform="translate(696.618 511.565) scale(.9511)" style="display:block"/><path fill="#20252A" d="m6.275 2.877-1.19-.34c-.84-.24-1.64-.46-2.42-.73A21.347 21.347 0 0 1-.505.457a17.77 17.77 0 0 1-2.86-1.86c-.97-.77-1.88-1.606-2.73-2.5a.182.182 0 0 0-.09-.026c-.03 0-.06.009-.09.026a.172.172 0 0 0-.08.062c-.02.03-.02.064-.02.098.1 1.396.62 2.731 1.47 3.84a9.358 9.358 0 0 0 3.18 2.71c1.2.623 2.51.997 3.85 1.1h.16a8.28 8.28 0 0 0 4-.71c.03-.013.06-.036.07-.065.02-.029.02-.062.02-.095 0-.034 0-.068-.02-.098a.172.172 0 0 0-.08-.062z" transform="translate(698.616 501.328) scale(.9511)" style="display:block"/><path fill="#20252A" d="m-6.271 2.877 1.19-.34c.84-.24 1.642-.46 2.412-.73A21.024 21.024 0 0 0 .5.457a18.31 18.31 0 0 0 2.87-1.86 29.453 29.453 0 0 0 2.731-2.5.178.178 0 0 1 .089-.026c.03 0 .061.009.091.026.03.015.05.038.07.066a.16.16 0 0 1 .029.094A7.167 7.167 0 0 1 4.911.097a9.487 9.487 0 0 1-3.19 2.71 9.933 9.933 0 0 1-3.841 1.1h-.159a8.268 8.268 0 0 1-4.002-.71.184.184 0 0 1-.099-.16.17.17 0 0 1 .109-.16z" transform="translate(668.242 501.328) scale(.9511)" style="display:block"/><path fill="#20252A" d="M7.971-2.568a12.01 12.01 0 0 0-8-2.85 12.635 12.635 0 0 0-7.9 2.87 11.01 11.01 0 0 0-2.64 3.27 8.783 8.783 0 0 0-1 3.95c-.01.153.04.303.13.428a.7.7 0 0 0 .35.272c.14.048.3.051.45.008a.79.79 0 0 0 .37-.248c.67-.887 1.42-1.708 2.25-2.45.77-.654 1.61-1.217 2.51-1.68a12.596 12.596 0 0 1 5.54-1.33c1.91-.026 3.79.42 5.48 1.3a14.28 14.28 0 0 1 4.76 4.15c.07.089.15.161.25.211.1.05.21.077.32.079.08.01.16.01.24 0a.708.708 0 0 0 .36-.269.734.734 0 0 0 .13-.431A10.046 10.046 0 0 0 10.541.69a9.936 9.936 0 0 0-2.57-3.258z" transform="translate(683.412 528.126) scale(.9511)" style="display:block"/><path fill="#60B0FB" d="M.005-14.838c-11.16 12.75-9.92 20.07-9.92 20.07a9.91 9.91 0 0 0 3.01 6.81 9.925 9.925 0 0 0 13.81 0 9.91 9.91 0 0 0 3.01-6.81s1.24-7.32-9.91-20.07z" transform="translate(699.776 532.434) scale(.9511)" style="display:block"/><g opacity=".1" style="display:block"><path d="M692.771 543.716a9.418 9.418 0 0 0 10.386 2.5 9.465 9.465 0 0 0 4.394-3.463 9.473 9.473 0 0 0 1.655-5.343s.495-2.928-2.044-8.283c-1.884 12.222-9.559 14.447-14.39 14.59z" opacity="1"/></g><path fill="#B1B5BA" d="M150.2-3.44h-300.4v6.88h300.4v-6.88z" transform="translate(490.377 696.083) scale(.13917)" style="display:block"/><path fill="#B1B5BA" d="M99.495-3.44h-198.99v6.88h198.99v-6.88z" transform="translate(480.057 708.021) scale(.10662)" style="display:block"/><path fill="#FFBA00" d="M15.116-15.12A21.389 21.389 0 0 0-21.405 0a21.39 21.39 0 0 0 36.521 15.12A21.328 21.328 0 0 0 19.77-8.188a21.326 21.326 0 0 0-4.654-6.932z" transform="translate(423.48 701.986) scale(.9623)" style="display:block"/><path fill="#F4F4F4" d="m-2.82 2.6-6.02-6.01-3.52 3.78 9.19 9.2L12.36-5.97l-3.55-3.6L-2.82 2.6z" transform="translate(423.61 702.698) scale(.9623)" style="display:block"/><path fill="#B1B5BA" d="M150.2-3.44h-300.4v6.88h300.4v-6.88z" transform="matrix(0 0 0 0 469.473 755.773)" style="display:block"/><path fill="#B1B5BA" d="M99.495-3.44h-198.99v6.88h198.99v-6.88z" transform="matrix(0 0 0 0 469.449 767.702)" style="display:block"/><path fill="#FFBA00" d="M15.111-15.125A21.393 21.393 0 0 0-21.405 0 21.394 21.394 0 0 0-8.2 19.762a21.384 21.384 0 0 0 23.311-4.637A21.317 21.317 0 0 0 21.405 0a21.327 21.327 0 0 0-6.294-15.125z" transform="translate(423.495 761.737) scale(.78125)" style="display:block"/><path fill="#F4F4F4" d="m-2.82 2.6-6.02-6.01-3.52 3.79V.37l9.19 9.2L12.36-5.96 8.81-9.57-2.82 2.6z" transform="translate(423.597 762.311) scale(.78125)" style="display:block"/><path fill="#B1B5BA" d="M150.2-3.44h-300.4v6.88h300.4v-6.88z" transform="matrix(0 0 0 0 469.473 815.45)" style="display:block"/><path fill="#B1B5BA" d="M99.495-3.44h-198.99v6.88h198.99v-6.88z" transform="matrix(0 0 0 0 469.449 827.389)" style="display:block"/><path fill="#FFBA00" d="M15.121-15.125a21.398 21.398 0 0 0-23.325-4.648 21.398 21.398 0 0 0-9.607 31.664 21.398 21.398 0 0 0 32.932 3.234 21.308 21.308 0 0 0 0-30.25z" transform="translate(423.488 821.416) scale(.78125)" style="display:block"/><path fill="#F4F4F4" d="m-2.82 2.61-6.02-6.019L-12.36.38l9.19 9.19L12.36-5.959 8.81-9.57-2.82 2.61z" transform="translate(423.598 821.99) scale(.78125)" style="display:block"/><path fill="#B1B5BA" d="M150.2-3.44h-300.4v6.88h300.4v-6.88z" transform="matrix(0 0 0 0 469.473 875.13)" style="display:block"/><path fill="#B1B5BA" d="M99.495-3.44h-198.99v6.88h198.99v-6.88z" transform="matrix(0 0 0 0 469.449 887.068)" style="display:block"/><path fill="#FFF" d="M15.129-15.125a21.405 21.405 0 0 0-32.932 3.233 21.415 21.415 0 0 0 0 23.787 21.4 21.4 0 0 0 9.607 7.88 21.37 21.37 0 0 0 12.367 1.21 21.454 21.454 0 0 0 10.958-5.86 21.28 21.28 0 0 0 4.648-6.94 21.3 21.3 0 0 0 1.633-8.19c0-2.81-.555-5.59-1.633-8.18a21.311 21.311 0 0 0-4.648-6.94z" transform="translate(423.483 881.096) scale(.78125)" style="display:block"/><path fill="#FFBA00" d="M2.249-8.183c-4.86-1.34-9.3 1.559-9.5 7.857l4.07.081c-.19-3.14 3.89-4.68 5.34-2.75.245.36.376.79.376 1.22 0 .44-.131.86-.376 1.22-2 3.26-6.53 4.42-5.75 9.06h4.6c.32-5 9.24-7.511 5.19-13.771a6.883 6.883 0 0 0-3.95-2.917z" transform="translate(423.55 878.049) scale(.78125)" style="display:block"/><path fill="#FFD669" d="M0-2.64c-.522 0-1.032.15-1.466.44-.435.3-.773.71-.973 1.19a2.645 2.645 0 0 0 .573 2.88c.369.37.839.62 1.351.72.512.1 1.043.05 1.526-.15.482-.2.894-.54 1.184-.97.29-.44.445-.95.445-1.47 0-.7-.278-1.37-.773-1.87A2.657 2.657 0 0 0 0-2.64z" transform="translate(422.707 888.467) scale(.78125)" style="display:block"/><path fill="#B1B5BA" d="M0 4.68A4.676 4.676 0 0 0 4.59-.913 4.675 4.675 0 0 0 .913-4.59a4.682 4.682 0 0 0-4.222 7.899A4.68 4.68 0 0 0 0 4.68z" transform="translate(366.88 777.686) scale(.78125)" style="display:block"/><g opacity=".15" style="display:block"><path d="M365.51 777.686a3.66 3.66 0 0 1 2.462-3.445 3.282 3.282 0 0 0-1.196-.211 3.659 3.659 0 0 0-3.656 3.656 3.658 3.658 0 0 0 3.656 3.656 3.56 3.56 0 0 0 1.196-.21 3.725 3.725 0 0 1-2.461-3.446z" opacity="1"/></g><path fill="#B1B5BA" d="M0 4.68A4.68 4.68 0 1 0-4.68 0 4.692 4.692 0 0 0 0 4.68z" transform="translate(366.88 834.241) scale(.78125)" style="display:block"/><g opacity=".15" style="display:block"><path d="M365.51 834.241a3.66 3.66 0 0 1 2.462-3.445 3.282 3.282 0 0 0-1.196-.211 3.656 3.656 0 0 0 0 7.312 3.56 3.56 0 0 0 1.196-.21 3.592 3.592 0 0 1-2.461-3.446z" opacity="1"/></g><path fill="#FB9D9D" d="m-27.235 22.03 58.43 1.44L7.875 6.81a15.57 15.57 0 0 1-4.628-5.25 15.555 15.555 0 0 1-1.852-6.75l-.81-18.28-31.78.09 3.96 45.41z" transform="translate(372.07 900.03) scale(.78125)" style="display:block"/><g opacity=".15" style="display:block"><path d="M355.855 900.568v-.28a2.962 2.962 0 0 1 .616-2.126 2.977 2.977 0 0 1 1.915-1.11l14.562-2.109-.14-2.882h-24.336l2.18 24.218 19.906-2.18-6.547-2.609a13.012 13.012 0 0 1-5.625-4.304 12.995 12.995 0 0 1-2.531-6.618z" opacity="1"/></g><path fill="#FB9D9D" d="M-15.575 22.24h26.29l4.86-44.48-31.06.09-.09 44.39z" transform="translate(280.735 899.021) scale(.78125)" style="display:block"/><g opacity=".15" style="display:block"><path d="m273.699 910.553.492-10.687a2.94 2.94 0 0 1 .773-1.829 2.94 2.94 0 0 1 1.758-.914l14.774-2.25.351-2.953-23.14.07-.07 24.618 5.062-6.055z" opacity="1"/></g><path fill="#FFD669" d="M-68.515-181.825v363.65h34.12l29.71-296.48A3.754 3.754 0 0 1-.95-118.07a3.752 3.752 0 0 1 3.735 3.415l31.61 296.48h34.12l-12.34-363.65h-124.69z" transform="translate(320.757 750.01) scale(.78125)" style="display:block"/><path fill="#3F4149" d="m-11.285-15.136.81-.81a15.995 15.995 0 0 1 22.6.27l.45.54a8.408 8.408 0 0 1 2.34 5.76v3.42c-.018 1.99.286 3.97.9 5.86l2.76 9.24c.716 2.24 1.08 4.58 1.08 6.93v1.17a3.434 3.434 0 0 1-1.093 2.34c-.657.6-1.525.93-2.417.9h-32.29a3.413 3.413 0 0 1-2.434-.88c-.327-.31-.59-.67-.775-1.07a3.407 3.407 0 0 1-.301-1.29v-.45c.003-2.72.459-5.43 1.35-8l3.24-9.09a19.741 19.741 0 0 0 1.17-6.49l.09-2.61a9.054 9.054 0 0 1 2.52-5.74z" transform="translate(278.93 915.98) scale(.78125)" style="display:block"/><path fill="#FFD669" d="M-18.545 3.74h36.37l.72-7.48h-37l-.09 7.48z" transform="translate(281.017 889.139) scale(.78125)" style="display:block"/><g opacity=".15" style="display:block"><path d="M266.528 892.06h11.883l.281-5.843h-12.094l-.07 5.844z" opacity="1"/></g><g opacity=".5" style="display:block"><path d="M263.574 929.123v.352a2.68 2.68 0 0 0 .853 1.828 2.675 2.675 0 0 0 1.89.703h25.25c.346.015.693-.04 1.019-.156.327-.118.627-.297.881-.54a2.605 2.605 0 0 0 .841-1.836v-.882a5.308 5.308 0 0 0-.07-1.055h-30.664v1.586z" opacity="1"/></g><path fill="#3F4149" d="M-43.44-9.934v22.78c-.002.87.168 1.74.502 2.55.334.81.824 1.55 1.443 2.16a6.737 6.737 0 0 0 2.164 1.45c.809.33 1.676.5 2.551.5h77.43a2.798 2.798 0 0 0 2.79-2.79 12.676 12.676 0 0 0-2.393-7.39 12.62 12.62 0 0 0-6.257-4.61l-17.46-5.76-22.13-17.17a6.057 6.057 0 0 0-3.902-1.29 6.088 6.088 0 0 0-3.838 1.47l-9.82 8.37a5.478 5.478 0 0 1-2.47 1.21c-.913.19-1.859.15-2.75-.13L-40-12.454a2.657 2.657 0 0 0-1.221-.08c-.408.07-.793.24-1.127.48-.333.25-.605.56-.795.93-.189.37-.291.78-.297 1.19z" transform="translate(381.566 916.907) scale(.78125)" style="display:block"/><path d="M-36.836 2.79h77.43A2.801 2.801 0 0 0 43.384 0a9.522 9.522 0 0 0-.36-2.79h-86.41a6.694 6.694 0 0 0 6.55 5.58z" transform="translate(381.594 929.967) scale(.78125)" style="display:block"/><path fill="#FFF" d="M-2.391 3.195a.738.738 0 0 1-.45-.18.7.7 0 0 1-.206-.5.7.7 0 0 1 .206-.5l4.68-5a.721.721 0 0 1 .5-.21c.187 0 .367.08.5.21s.208.31.208.5-.075.37-.208.5l-4.68 5c-.167.1-.355.16-.55.18z" transform="translate(379.318 907.283) scale(.78125)" style="display:block"/><path fill="#FFF" d="M-2.391 3.195a.685.685 0 0 1-.449-.18.7.7 0 0 1-.206-.5.7.7 0 0 1 .206-.5l4.68-5a.723.723 0 0 1 .5-.21.72.72 0 0 1 .5.21c.133.13.206.31.206.5s-.073.37-.206.5l-4.68 5c-.167.1-.356.16-.551.18z" transform="translate(382.2 909.533) scale(.78125)" style="display:block"/><path fill="#FFF" d="M-2.391 3.193a.68.68 0 0 1-.449-.18.7.7 0 0 1-.206-.5.7.7 0 0 1 .206-.5l4.68-5a.69.69 0 0 1 .229-.15.64.64 0 0 1 .54 0c.086.03.165.09.231.15.065.07.118.15.153.23a.72.72 0 0 1 0 .54.619.619 0 0 1-.153.23l-4.68 5a.742.742 0 0 1-.551.18z" transform="translate(385.082 911.793) scale(.78125)" style="display:block"/><path fill="#FFF" d="M6.269 1.537a.514.514 0 0 1-.36-.09A13.887 13.887 0 0 0-.036.107c-2.056 0-4.087.46-5.945 1.34a.819.819 0 0 1-.614.05.829.829 0 0 1-.466-.41.794.794 0 0 1-.043-.61.802.802 0 0 1 .403-.47 15.293 15.293 0 0 1 13.42 0c.18.11.315.28.382.47.066.2.058.42-.022.61a.976.976 0 0 1-.349.33 1.05 1.05 0 0 1-.461.12z" transform="translate(279.285 908.93) scale(.78125)" style="display:block"/><path fill="#FFF" d="M6.272 1.548a.57.57 0 0 1-.36-.09A13.746 13.746 0 0 0-.033.108c-2.058 0-4.089.46-5.945 1.35a.805.805 0 0 1-.303.09.677.677 0 0 1-.315-.04.752.752 0 0 1-.274-.16.73.73 0 0 1-.188-.25.815.815 0 0 1-.091-.31c-.01-.1.003-.21.036-.31.034-.11.088-.2.16-.28a.717.717 0 0 1 .255-.19 15.166 15.166 0 0 1 6.71-1.56c2.326 0 4.622.53 6.71 1.56.182.11.319.28.385.48.067.2.058.41-.025.61-.089.13-.209.24-.35.32a1.06 1.06 0 0 1-.46.13z" transform="translate(279.283 912.164) scale(.78125)" style="display:block"/><path fill="#FFF" d="M6.269 1.542a.514.514 0 0 1-.36-.09A13.887 13.887 0 0 0-.036.112c-2.056 0-4.087.46-5.945 1.34a.648.648 0 0 1-.303.081.816.816 0 0 1-.311-.031.934.934 0 0 1-.273-.16.81.81 0 0 1-.276-.55.837.837 0 0 1 .195-.59c.07-.08.154-.14.248-.19a15.162 15.162 0 0 1 6.71-1.56c2.327 0 4.623.53 6.71 1.56.18.11.315.28.382.47.066.2.058.42-.022.61a.976.976 0 0 1-.349.33 1.05 1.05 0 0 1-.461.12z" transform="translate(279.285 915.332) scale(.78125)" style="display:block"/><g opacity=".15" style="display:block"><path d="m363.52 888.819-26.329-218.68a13.973 13.973 0 0 0-13.852-12.305h-3.312a2.905 2.905 0 0 1 2.883 2.672l24.554 230.352 16.055-2.04z" opacity="1"/></g><path fill="#FFD669" d="M-17.78 3.74H18.5l-.54-7.48H-18.5l.72 7.48z" transform="translate(360.817 889.139) scale(.78125)" style="display:block"/><path fill="#FFF" d="M-25.85-95.07h51.7V95.07h-49.2l-2.5-190.14z" transform="translate(313.872 550.632) scale(.78125)" style="display:block"/><g opacity=".15" style="display:block"><path d="M346.926 892.06H363.8l-.633-5.843h-16.805l.563 5.844z" opacity="1"/></g><path fill="#FB9D9D" d="M-15.84 27.843c4.956 3.327 11.272 3.961 17.237 3.782a28.57 28.57 0 0 0 16.469-5.84c.49-.413.027.662.26.065a3.85 3.85 0 0 0 .238-1.88L17.036 2.096a25.61 25.61 0 0 0 .67-6c.33-10.26 1.25-19.509 1.25-19.509s-34-21.35-35.36 4.75l-.5 6.75-4.588 33.87c-.017.946 2.23 3.332 2.833 4.057l2.82 1.83z" transform="rotate(3.861 -6657.786 4905.6) scale(.78125)" style="display:block"/><path fill="#20252A" d="M0 11.51A11.514 11.514 0 0 0 10.636 4.4 11.514 11.514 0 0 0 8.132-8.146 11.511 11.511 0 0 0-11.51.02 11.51 11.51 0 0 0 0 11.51z" transform="rotate(3.861 -6279.415 5173.125) scale(.78125)" style="display:block"/><path fill="#FB9D9D" d="M19.889-24.245s7.47 51.58-18.76 52.64c-22.69 1-22-34.23-22-34.23l3.13-22.58 37.63 4.17z" transform="rotate(3.861 -6475.575 4972.623) scale(.78125)" style="display:block"/><path fill="#20252A" d="m20.658 2.999-23 1.66a5.343 5.343 0 0 0-4.84 5.59 5.23 5.23 0 0 1-1.26 3.8 5.22 5.22 0 0 1-3.58 1.79 1.524 1.524 0 0 0-1.32 1.51l.33 5.09a1.085 1.085 0 0 1-.254.873 1.076 1.076 0 0 1-.826.377 1.18 1.18 0 0 1-1.25-.92l-1-4.84-1-1.58-5.42 3.33s-8.76-13.51-4.59-25.85c2.42-7 9.34-9.5 12.68-9.92a3.647 3.647 0 0 0 2.58-1.67c1.33-2.25 4.59-6.17 11.84-5.92a12.225 12.225 0 0 1 10.26 5.67 3.52 3.52 0 0 0 4.42 1.25 9.99 9.99 0 0 1 4.978-.9 9.996 9.996 0 0 1 4.782 1.65c7.47 4.75 4.47 17.75-3.53 19.01z" transform="rotate(3.861 -6174.553 4929.3) scale(.78125)" style="display:block"/><g opacity=".15" style="display:block"><path d="M302.579 450.536a4.456 4.456 0 0 0 2.643-.409l-3.16 4.227.517-3.818z" opacity="1"/></g><path fill="#FB9D9D" d="M3.909-5.196A4.676 4.676 0 0 0 1.175-8.04a4.661 4.661 0 0 0-3.936.264c-5.67 2.5-4.5 15.34 5.09 16.09 5 .42 4-2.5 3.17-6.42l-1.59-7.09z" transform="rotate(3.861 -6434.569 4686.15) scale(.78125)" style="display:block"/><g opacity=".15" style="display:block"><path d="M298.828 440.29a2.923 2.923 0 0 1 2.183-.44 2.602 2.602 0 0 1 1.6 1.478 5.378 5.378 0 0 1 .532 2.785l.005.846a.46.46 0 0 1-.912-.062l-.005-.846a5.521 5.521 0 0 0-.431-2.315 2.18 2.18 0 0 0-1.041-1.05 2.127 2.127 0 0 0-1.453.294.514.514 0 0 1-.615-.167c-.151-.08-.071-.341.137-.523z" opacity="1"/></g><g opacity=".15" style="display:block"><path d="m328.937 473.144-.225-6.411c-1.802 1.64-6.853 3.85-12.291 2.176a13.605 13.605 0 0 1-6.788-4.898.413.413 0 0 0-.43-.174.423.423 0 0 0-.325.333.4.4 0 0 0 .074.312 14.665 14.665 0 0 0 9.016 5.636 14.56 14.56 0 0 0 10.97 3.026z" opacity="1"/></g><g opacity=".15" style="display:block"><path d="M323.523 461.49c-.005.062-.075.057 0 0-1.7.01-2.485.027-2.485.027a.573.573 0 0 1-.512-.776.526.526 0 0 1 .517-.335l2.422-.033c.327.023.571.235.554.492-.027.39-.24.642-.496.624z" opacity="1"/></g><g opacity=".15" style="display:block"><path d="M324.584 459.205c-4.464.357-6.312-2.188-6.95-3.405a.54.54 0 0 1-.051-.199.525.525 0 0 1 .997-.254c.568 1.213 2.611 3.895 8.061 2.501a.56.56 0 0 1 .626.364.58.58 0 0 1-.372.632c-.757.194-1.53.315-2.31.361z" opacity="1"/></g><path fill="#20252A" d="M-.009 2.09A2.086 2.086 0 0 0 1.929.805a2.088 2.088 0 0 0-3.67-1.959 2.095 2.095 0 0 0 .261 2.635c.39.39.919.609 1.471.609z" transform="rotate(3.861 -6461.055 4949.816) scale(.78125)" style="display:block"/><path fill="#FFF" d="M-.005.415a.417.417 0 0 0 .42-.42.408.408 0 0 0-.42-.41.411.411 0 0 0-.381.57.413.413 0 0 0 .222.228.418.418 0 0 0 .159.032z" transform="rotate(3.861 -6463.412 4960.353) scale(.78125)" style="display:block"/><path fill="#20252A" d="M0 2.09A2.083 2.083 0 0 0 1.931.8a2.087 2.087 0 0 0-.453-2.278A2.095 2.095 0 0 0-.8-1.931 2.096 2.096 0 0 0-2.09 0 2.089 2.089 0 0 0 0 2.09z" transform="rotate(3.861 -6468.547 5141.133) scale(.78125)" style="display:block"/><path fill="#FFF" d="M-.005.415A.415.415 0 0 0 .292.299.412.412 0 0 0 .415.005a.42.42 0 0 0-.579-.388.427.427 0 0 0-.223.228.415.415 0 0 0-.028.16.41.41 0 0 0 .41.41z" transform="rotate(3.861 -6470.817 5151.673) scale(.78125)" style="display:block"/><g opacity=".15" style="display:block"><path d="m326.022 455.322-2.152-.02a.545.545 0 0 1-.484-.487.56.56 0 0 1 .487-.492l2.152.02a1.004 1.004 0 0 0 .983-.983.998.998 0 0 0-.984-.974.543.543 0 0 1-.483-.495c-.053-.262.225-.439.487-.492a2.002 2.002 0 0 1 1.962 1.902 2.036 2.036 0 0 1-1.968 2.02z" opacity="1"/></g><path fill="#20252A" d="m-227.561-153.751-9.09-.27h-1.25l-7.91-.23h-.09l-10.25-.31a2.99 2.99 0 0 0-2.827 1.768c-.162.36-.251.748-.263 1.142l-.07 2.34a8.171 8.171 0 0 0 7.93 8.41 8.171 8.171 0 0 0 8.41-7.93l.07-2.33a2.998 2.998 0 0 0-.61-1.86l3.16.1a2.854 2.854 0 0 0-.64 1.81l-.06 2.34a8.183 8.183 0 0 0 2.163 5.943 8.191 8.191 0 0 0 2.615 1.889 8.162 8.162 0 0 0 10.882-4.197 8.154 8.154 0 0 0 .67-3.155l.07-2.33a2.994 2.994 0 0 0-.8-2.174 3.007 3.007 0 0 0-2.11-.956zm-16.51 2.51-.07 2.34a7.003 7.003 0 0 1-7.109 6.104 7.003 7.003 0 0 1-6.811-6.434l.07-2.34a1.84 1.84 0 0 1 1.89-1.77l10.25.3h.08a1.76 1.76 0 0 1 1.7 1.8zm18.19 2.88a7.003 7.003 0 0 1-7.115 6.154 6.998 6.998 0 0 1-6.815-6.484l.07-2.33a1.85 1.85 0 0 1 1.89-1.78h1.25l9.09.27a1.851 1.851 0 0 1 1.78 1.89l-.15 2.28z" transform="rotate(3.861 -8271.204 7801.9) scale(.78125)" style="display:block"/><g opacity=".15" style="display:block"><path d="m325.599 499.16-1.258 139.735a4.85 4.85 0 0 0 1.407 3.459 4.848 4.848 0 0 0 3.444 1.44h36.805v-20.907L325.6 499.161z" opacity="1"/></g><g opacity=".15" style="display:block"><path d="m308.004 499.49-18.89 116.289v14.32l-21.946-.265v256.25l11.46.07 10.415-223.32.265-6.367a7.68 7.68 0 0 1 6.407-7.25l9.086-1.508a5.095 5.095 0 0 0 3.63-1.517 5.1 5.1 0 0 0 1.471-3.647l-1.898-143.055z" opacity="1"/></g><path fill="#20252A" d="m-25.68-104.04 36.09 8.29a22.992 22.992 0 0 1 17.49 18.3l19 98.5L9.79 17.3l-1.61 83.74a3.003 3.003 0 0 1-3 3H-39.8a3.004 3.004 0 0 1-3-3l-4.1-179.65 21.22-25.43z" transform="translate(361.94 560.896) scale(.78125)" style="display:block"/><path fill="#20252A" d="m-25.68-104.04 36.09 8.29a22.992 22.992 0 0 1 17.49 18.3l19 98.5L9.79 17.3l-1.61 83.74a3.003 3.003 0 0 1-3 3H-39.8a3.004 3.004 0 0 1-3-3l-4.1-179.65 21.22-25.43z" transform="translate(361.94 560.896) scale(.78125)" style="display:block"/><path fill="#20252A" d="m24.329-104.03-37.18 8.27a23.003 23.003 0 0 0-17.74 18.95l-15.62 102.36c-.113.73-.157 1.47-.13 2.21.3 7.77 8 13.12 15.53 11.13l5.94-1.57 14.6-5 .79 68.71a3 3 0 0 0 3 3h46.55a3 3 0 0 0 3-3l3.28-179.64-22.02-25.42z" transform="translate(271.73 560.888) scale(.78125)" style="display:block"/><g opacity=".4" style="display:block"><path stroke-linecap="round" stroke-miterlimit="10" stroke="#FFF" d="M302.957 496.52v39.063" fill="none" opacity="1" stroke-width=".781"/></g><g opacity=".4" style="display:block"><path stroke-linecap="round" stroke-miterlimit="10" stroke="#FFF" stroke-width=".805" d="M330.692 493.396v41.796" fill="none" opacity="1"/></g><path fill="#20252A" d="M-7.828-20.095s21.5 5.27 18 18a11.91 11.91 0 0 1-2.53 4.57 134.487 134.487 0 0 1-18.2 17.62l4.58-26.64-1.85-13.55z" transform="translate(333.636 483.729) scale(.78125)" style="display:block"/><path fill="#20252A" d="M2.841-20.525s-24.09 6.11-15.89 21.1c0 0 2.37 6.66 27.8 19.95l-12.09-28.3.18-12.75z" transform="translate(296.48 484.064) scale(.78125)" style="display:block"/><g opacity=".4" style="display:block"><path fill="#FFF" d="M298.7 468.029s-18.82 4.773-12.415 16.484c0 0 1.852 5.203 21.72 15.586l-9.446-22.11.14-9.96z" opacity="1"/></g><g opacity=".4" style="display:block"><path fill="#FFF" d="M327.52 468.03s16.797 4.117 14.063 14.062a9.305 9.305 0 0 1-1.977 3.57 105.068 105.068 0 0 1-14.218 13.766l3.578-20.812-1.446-10.586z" opacity="1"/></g><g opacity=".3" style="display:block"><path d="M257.316 518.71a10.877 10.877 0 0 1 2.68 2.5 19.88 19.88 0 0 1 1.984 3.078 21.857 21.857 0 0 1 1.407 3.367 17.148 17.148 0 0 1 .78 3.563c-.64-1.055-1.171-2.117-1.71-3.18-.29-.515-.524-1.062-.781-1.562-.258-.5-.532-1.055-.782-1.563a101.306 101.306 0 0 0-1.672-3.125c-.578-1.047-1.242-2.054-1.906-3.078z" opacity="1"/></g><g opacity=".3" style="display:block"><path d="M369.894 548.68v-29.97l6.125 31.25a20.227 20.227 0 0 0 8.07 12.5l13.47 9.618 1.101 6.031-24.219-7.336-4.687-22.351" opacity="1"/></g><g opacity=".3" style="display:block"><path d="M374.458 498.514a47.698 47.698 0 0 0-1.375 4.687c-.398 1.563-.703 3.125-1.023 4.735a190.345 190.345 0 0 0-1.563 9.562l-1.18-.187a29.643 29.643 0 0 1 1.727-5.04 15.165 15.165 0 0 1 1.266-2.343 6.145 6.145 0 0 1 1.82-1.93 7.154 7.154 0 0 0-1.406 2.164 23.431 23.431 0 0 0-.93 2.406c-.258.828-.516 1.649-.719 2.493s-.43 1.68-.593 2.507l-1.18-.187c.14-1.64.375-3.258.633-4.875a52.92 52.92 0 0 1 .992-4.805c.187-.781.406-1.562.648-2.344l.36-1.18.414-1.156a23.595 23.595 0 0 1 2.11-4.507z" opacity="1"/></g><g opacity=".3" style="display:block"><path d="m263.816 595.492.508 44.328a2.344 2.344 0 0 0 2.344 2.343h7.742l-.39-61.265-4.688-17.187-4.125-43.485a.51.51 0 0 0-.525-.425.508.508 0 0 0-.483.472l-.383 75.22z" opacity="1"/></g><path fill="#20252A" d="M9.428-13.5a7.16 7.16 0 0 1 4 6.29c.53 7.38-3.47 24.38-23.09 20-1.22-.27-4.38-1.61-3.72-3.66v-.06L9.428-13.5z" transform="translate(390.514 586.234) scale(.78125)" style="display:block"/><path fill="#FB9D9D" d="m-54.549-3.694 63-16.32 27.31-10.87a5.995 5.995 0 0 1 3.89-.2l12.81 3.61a5.783 5.783 0 0 1 2.55 1.49l8 8a2.188 2.188 0 0 1 .37 2.597 2.203 2.203 0 0 1-.61.703 2.21 2.21 0 0 1-2.63 0l-8.69-6.52-7.45-2.24a1.103 1.103 0 0 0-1.3.57 1.085 1.085 0 0 0 .34 1.38l9.45 6.75a2.426 2.426 0 0 1 .89 2.75c-.18.522-.533.966-1 1.26l-.74.49a2.406 2.406 0 0 1-2.25.24l-3-1.19 1.17.78a2.095 2.095 0 0 1 .317 3.217 2.068 2.068 0 0 1-.817.503l-.9.3c-.401.125-.83.125-1.23 0l-5.17-1.49 4.53 1.95a1.321 1.321 0 0 1 .729.765 1.325 1.325 0 0 1-.059 1.055c-.13.26-.341.47-.6.6l-1.31.65a6.111 6.111 0 0 1-3.44.62l-5.69-.63s-7.51 1.66-19.18.83l-65.88 33.36s-11.92 5.641-12.51-14.2c-.56-18.834 9.1-20.81 9.1-20.81z" transform="rotate(8.258 -3770.433 2415.027) scale(.78125)" style="display:block"/><g opacity=".15" style="display:block"><path d="M342.62 567.698c-.374 2.582-8.38-1.216-8.38-1.216-3.866-.561-15.183-4.177-15.183-4.177l-55.471 13.421-.247 7.14 1.413 2.171 54.679-18.4c8.93 1.952 14.922 1.511 14.922 1.511l4.329 1.126a4.773 4.773 0 0 0 2.729-.094l1.086-.355a1.04 1.04 0 0 0 .53-.397l.006-.038-.412-.692z" opacity="1"/></g><g opacity=".15" style="display:block"><path d="M371.97 557.552s1.336-2.972 2.546-.57l1.918 11.58-4.885-6.913.42-4.097z" opacity="1"/></g><path fill="#FB9D9D" d="M-.835-6.758s2.5-3.34 3.34 0l-.84 15-4.17-10 1.67-5z" transform="rotate(-12.611 2732.452 -1409.964) scale(.78125)" style="display:block"/><g opacity=".4" style="display:block"><path fill="#FFF" d="M395.383 574.313a5.594 5.594 0 0 1 4.122 4.114c1.663 5.536 1.513 19.179-14.192 19.186-.976.002-3.614-.48-3.46-2.156l-.01-.046 13.54-21.098z" opacity="1"/></g><path fill="#FB9D9D" d="m-4.201-18.695 20.44 10.94c1.85 1 2.59 3 2.87 5.07.85 6.27-3.31 25.67-22 20.52a6.627 6.627 0 0 1-3.43-2.34l-12.89-16.68 15.01-17.51z" transform="rotate(-12.611 2825.414 -1441.23) scale(.78125)" style="display:block"/><g opacity=".15" style="display:block"><path d="M373.293 581.785c2.146-2.681 3.968-7.1 3.503-12.968l-1.415-.348-9.374 14.778 1.942 1.24 12.703 10.51a5.162 5.162 0 0 0 3.014 1.2c10.984.536 13.913-7.484 14.045-13.694-4.067 14.279-18.73 5.743-23.99 2.165a1.979 1.979 0 0 1-.428-2.883z" opacity="1"/></g><path fill="#FFD669" d="M20.954-18.765H2.124a2.005 2.005 0 0 0-1.68.92l-22 34.61a.794.794 0 0 0-.029.793.807.807 0 0 0 .669.427l20.47.78 22-36.32a.793.793 0 0 0-.6-1.21z" transform="rotate(-12.611 2728.758 -1359.393) scale(.78125)" style="display:block"/><g opacity=".15" style="display:block"><path d="m375.405 545.095-14.86 3.324a.605.605 0 0 0-.44.395l-11.02 30.613a.627.627 0 0 0 .378.793.625.625 0 0 0 .32.028l15.739-2.897 10.577-31.443a.62.62 0 0 0-.375-.788.617.617 0 0 0-.32-.025z" opacity="1"/></g><path fill="#FFD669" d="M21.055-18.35H2.285a1.526 1.526 0 0 0-1.27.7l-22.07 34.75 22.93 1.25 19.18-36.7z" transform="rotate(-12.611 2731.526 -1361.381) scale(.78125)" style="display:block"/><path fill="#FB9D9D" d="M9.94.134a.944.944 0 0 0 .36-1.19l-1.33-5.92-5.11-9.78a2.253 2.253 0 0 1 1.08-2.8 1.994 1.994 0 0 1 1.36-.12c.453.12.85.396 1.12.78l7.39 10.29 3.33 10.84c-3.33 10-15 17.51-15 17.51h-3a9.19 9.19 0 0 1-5.2-1.62l-6.42-4.5a9.115 9.115 0 0 1-3.09-3.68l-3.39-7.35a1.944 1.944 0 0 1 .38-2.18 1.937 1.937 0 0 1 2.9.18l4.49 5.78 5.36 4.59a1.005 1.005 0 0 0 1 .13l.1-.05a.941.941 0 0 0 .34-1.41l-6-8.27-3.54-9.2a1.941 1.941 0 0 1 .94-2.42l.21-.11a1.94 1.94 0 0 1 2.5.7l4.9 7.7 6.19 5.41a.942.942 0 0 0 1.05.14l.21-.1a1.004 1.004 0 0 0 .4-1.32l-3.68-6.63-5.55-7.64a1.923 1.923 0 0 1 .4-2.68 2.75 2.75 0 0 1 3.49.16l6.66 6.82 3.78 7.57a1.001 1.001 0 0 0 1.36.37h.01z" transform="rotate(-12.611 2760.27 -1354.091) scale(.78125)" style="display:block"/><path fill="#20252A" d="M-9.122-18.841s9.17-3.34 15.84-3.34c0 0-1.66 34.19 3.34 36.7 0 0-9.2 7.82-18.36 7.66 0 0-3.33-7.66-.82-41.02z" transform="translate(258.78 572.844) scale(.78125)" style="display:block"/><g opacity=".4" style="display:block"><path fill="#FFF" d="M253.723 557.444a41.517 41.517 0 0 1 9.68-1.914.584.584 0 0 1 .601.617c-.172 4.031-.922 26.258 2.633 28.04 0 0-7.188 6.109-14.344 5.984 0 0-5.18-8.97-1.078-29.946a3.645 3.645 0 0 1 2.508-2.781z" opacity="1"/></g><g opacity=".3" style="display:block"><path d="M264.357 575.387c-29.97 13.68-27.938.297-27.938.297l-.781 5.164a9.058 9.058 0 0 0-.102 1.727c.235 6.07 6.25 10.25 12.133 8.695l4.64-1.226 11.407-3.907v.07l3.258-1.702c-2.617-1.297-2.617-9.118-2.617-9.118z" opacity="1"/></g><g opacity=".15" style="display:block"><path stroke-linecap="round" stroke-miterlimit="10" stroke="#000" stroke-width=".648" d="m343.395 551.171-5.422-2.492" fill="none" opacity="1"/></g><g opacity=".15" style="display:block"><path stroke-linecap="round" stroke-miterlimit="10" stroke="#000" stroke-width=".648" d="m339.621 554.405-4.25-1.82" fill="none" opacity="1"/></g><g opacity=".2" style="display:block"><path fill="#FFF" d="M274.934 585.583h18.508a1.666 1.666 0 0 1 1.664 1.664v19.469a4.625 4.625 0 0 1-4.625 4.625h-12.586a4.622 4.622 0 0 1-4.625-4.625v-19.469a1.663 1.663 0 0 1 1.664-1.664z" opacity="1"/></g><g opacity=".2" style="display:block"><path fill="#FFF" d="M338.996 585.583h18.508a1.666 1.666 0 0 1 1.664 1.664v19.469a4.625 4.625 0 0 1-4.625 4.625h-12.586a4.622 4.622 0 0 1-4.625-4.625v-19.469a1.663 1.663 0 0 1 1.664-1.664z" opacity="1"/></g><path fill="#FF1D1D" d="M32.689 32.689c18.054-18.054 18.054-47.324 0-65.378-18.054-18.054-47.325-18.054-65.379 0-18.054 18.054-18.054 47.324 0 65.378 18.054 18.054 47.325 18.054 65.379 0z" transform="rotate(2.869 -5519.438 5374.144) scale(.78125)" style="display:block"/><g opacity=".2" style="display:block"><path fill="#FFF" d="M230.708 285.234a33.54 33.54 0 0 1 24.3-30.564 33.541 33.541 0 0 1 36.765 13.153 33.54 33.54 0 1 0-57.454 34.332 33.466 33.466 0 0 1-3.611-16.921z" opacity="1"/></g><path fill="#F4F4F4" d="M27.209-9.37v-.13c0-8.13-5.88-15.57-14.72-15.57-7 0-11.1 5.05-12.49 9.77-1.39-4.72-5.46-9.77-12.49-9.77-8.84 0-14.72 7.44-14.72 15.57v.13c0 1.77 0 19.77 27.2 34.44C27.209 10.4 27.249-7.6 27.209-9.37z" transform="rotate(2.869 -5581.7 5372.63) scale(.78125)" style="display:block"/><path fill="#2946FF" d="M5.332 53.335c29.456-2.946 50.947-29.212 48.002-58.667C50.388-34.788 24.122-56.28-5.333-53.335-34.789-50.389-56.28-24.123-53.334 5.332c2.945 29.456 29.211 50.948 58.666 48.003z" transform="rotate(-7.508 6156.192 -966.739) scale(.78125)" style="display:block"/><g opacity=".2" style="display:block"><path fill="#FFF" d="M147.317 814.011a38.883 38.883 0 0 1 55.379-48.503 38.89 38.89 0 0 0-44.797-1.98 38.89 38.89 0 0 0-17.252 25.73 38.887 38.887 0 0 0 18.84 40.69 38.814 38.814 0 0 1-12.17-15.937z" opacity="1"/></g><path fill="#F4F4F4" d="m15.952-15.224-8.25 2.21-3.35.89-6.38 1.7a.728.728 0 0 1-.91-.69 30.937 30.937 0 0 0-1.35-8.28 49.179 49.179 0 0 0-1.36-4.73 8.81 8.81 0 0 0-2.72-4 6.009 6.009 0 0 0-5.07-1.23c-4.11 1.1-3.68 5.3-3.2 8.66.57 3.92 1.44 7.9.69 11.85a10.85 10.85 0 0 1-4 7.06 30.152 30.152 0 0 1-5.13 3.32.723.723 0 0 0-.38.83l7.08 26.59a.735.735 0 0 0 .342.434.734.734 0 0 0 .548.076l7.36-2a.747.747 0 0 1 .64.14 8.18 8.18 0 0 0 7.23 1.5l11.44-3 8.31-2.22 3.3-.88a6.341 6.341 0 0 0 4.48-7.74 5.555 5.555 0 0 0-1.22-2.27.698.698 0 0 1-.05-.89 7.212 7.212 0 0 0 .73-5.52l-.19-.7a5.555 5.555 0 0 0-1.22-2.27.698.698 0 0 1-.05-.89 5.596 5.596 0 0 0 .93-4.78l-.19-.7a5.555 5.555 0 0 0-1.22-2.27.698.698 0 0 1-.05-.89 5.596 5.596 0 0 0 .93-4.78 6.363 6.363 0 0 0-7.72-4.53z" transform="rotate(-7.508 6122.463 -1027.87) scale(.78125)" style="display:block"/><path fill="#D9DDDE" d="m-.07-18.103-8.923 2.392a2.752 2.752 0 0 0-1.946 3.37L-3.3 16.158a2.753 2.753 0 0 0 3.37 1.945l8.924-2.392a2.752 2.752 0 0 0 1.945-3.37L3.301-16.158A2.751 2.751 0 0 0-.07-18.103z" transform="rotate(-7.508 6258.98 -862.447) scale(.78125)" style="display:block"/><path fill="#AECFEC" d="M28.9-19h-57.8c-3.09 0-5.6 2.507-5.6 5.6v26.8c0 3.093 2.51 5.6 5.6 5.6h57.8c3.09 0 5.6-2.507 5.6-5.6v-26.8c0-3.093-2.51-5.6-5.6-5.6z" transform="rotate(-3.837 5937.43 -13606.173) scale(.78125)" style="display:block"/><g opacity=".2" style="display:block"><path fill="#AECFEC" d="m945.344 350.502-45.055 3.022a4.376 4.376 0 0 0-4.072 4.658l1.4 20.89a4.376 4.376 0 0 0 4.659 4.073l45.055-3.022a4.376 4.376 0 0 0 4.072-4.658l-1.4-20.89a4.376 4.376 0 0 0-4.659-4.073z" opacity="1"/></g><path fill="#A8D5FF" d="M28.9-19h-57.8c-3.09 0-5.6 2.507-5.6 5.6v26.8c0 3.093 2.51 5.6 5.6 5.6h57.8c3.09 0 5.6-2.507 5.6-5.6v-26.8c0-3.093-2.51-5.6-5.6-5.6z" transform="rotate(-3.837 5939.777 -13536.25) scale(.78125)" style="display:block"/><g opacity=".81" style="display:block" fill="red"><path d="M904.337 372.556a4.36 4.36 0 0 0-.583-8.7 4.36 4.36 0 0 0 .583 8.7zm15.465-1.037a4.36 4.36 0 0 0-.583-8.7 4.36 4.36 0 0 0 .583 8.7zm15.466-1.037a4.36 4.36 0 0 0-.584-8.7 4.36 4.36 0 0 0 .584 8.7z" opacity=".3"/></g><path fill="#A8D5FF" d="m-7.56-4.5.12 12 15-15-15.12 3z" transform="rotate(-3.837 6220.314 -13346.625) scale(.78125)" style="display:block"/><g opacity=".2" style="display:block"><path fill="#FFF" d="m893.914 370.442-.732-10.913a3.34 3.34 0 0 1 .176-1.336 3.417 3.417 0 0 1 1.747-1.983 3.41 3.41 0 0 1 1.3-.342l35.539-2.125-33.864 4.448a3.467 3.467 0 0 0-1.97.984 3.453 3.453 0 0 0-.964 1.976l-1.232 9.291z" opacity="1"/></g><path fill="#1DA200" d="M-.508-35.563a6.96 6.96 0 0 0-2.99.702 6.962 6.962 0 0 0-2.41 1.918c-8.75 11.26-10.52 35-6.92 41.15 4.26 7.25-.14 9.86.89 16.42.83 5.33 8.32 9.37 11.1 10.7a2.4 2.4 0 0 0 2.07 0c2.87-1.39 10.81-5.68 11.49-11.06.83-6.59-3.64-9.06.39-16.44 3.42-6.26.94-29.93-8.15-40.92a6.919 6.919 0 0 0-2.46-1.851 6.893 6.893 0 0 0-3.01-.609" transform="rotate(2.717 -15844.415 18774.003) scale(.78125)" style="display:block"/><g opacity=".4" style="display:block"><path fill="#1DA200" d="M872.41 743.956a5.438 5.438 0 0 0-2.36.436 5.44 5.44 0 0 0-1.952 1.408c-7.246 8.462-9.508 26.922-6.927 31.855 3.055 5.816-.475 7.69.085 12.847.45 4.19 6.145 7.62 8.265 8.762a1.875 1.875 0 0 0 1.615.076c2.292-.978 8.647-4.03 9.377-8.204.893-5.112-2.504-7.205.915-12.815 2.901-4.758 1.844-23.321-4.841-32.235a5.405 5.405 0 0 0-1.851-1.536 5.385 5.385 0 0 0-2.327-.587" opacity="1"/></g><path fill="#1DA200" d="M23.63-26.947a7.005 7.005 0 0 0-5.78-1.61c-14 2.63-31.08 19.23-32.46 26.23-1.62 8.25-6.639 7.29-10.209 12.88-2.91 4.54-.001 12.53 1.219 15.37a2.367 2.367 0 0 0 1.55 1.36c3.07.87 11.86 2.92 15.93-.66 5-4.39 3.28-9.2 11.19-12.05 6.71-2.42 20.55-21.79 21-36a7.09 7.09 0 0 0-.61-3.012 7.067 7.067 0 0 0-1.85-2.458" transform="rotate(2.692 -16935.862 19571.671) scale(.78125)" style="display:block"/><path fill="#1DA200" d="M-19.423-22.609a5.676 5.676 0 0 0-1.56 2.026 5.84 5.84 0 0 0-.53 2.504c.28 11.85 11.62 28.08 17.19 30.15 6.55 2.43 5.09 6.42 9.2 10.11 3.34 3 10.3 1.66 12.79 1 .29-.073.55-.208.78-.397.23-.188.41-.425.54-.693 1.13-2.41 4-9.35 1.59-13.17-2.93-4.68-7.11-3.92-8.4-10.8-1.09-5.83-15.14-19.78-26.78-22.08a5.783 5.783 0 0 0-2.56.101c-.83.225-1.6.635-2.26 1.199" transform="rotate(2.797 -16446.584 17531.485) scale(.78125)" style="display:block"/><path fill="#1DA200" d="M15.306-20.919a5.057 5.057 0 0 0-4.28-.75c-9.91 2.89-21 16.07-21.52 21.21-.58 6.06-4.26 5.73-6.45 10-1.77 3.48.91 9 2 11 .12.227.3.422.51.573.21.151.45.252.7.297 2.28.41 8.76 1.26 11.44-1.61 3.28-3.51 1.71-6.86 7.21-9.48 4.66-2.22 13.25-17.17 12.58-27.47a5.01 5.01 0 0 0-.65-2.133 5.077 5.077 0 0 0-1.52-1.637" transform="rotate(4.33 -10722.003 12196.728) scale(.78125)" style="display:block"/><path fill="#1DA200" d="M-9.802-28.127c-.82.257-1.58.694-2.21 1.281a5.736 5.736 0 0 0-1.45 2.109c-4.26 11.07 0 30.4 4.41 34.43 5.13 4.75 2.26 7.88 4.66 12.85 2 4 8.88 5.46 11.42 5.85a1.999 1.999 0 0 0 1.64-.51c2-1.8 7.24-7.12 6.48-11.57-.93-5.45-5.08-6.34-3.65-13.18 1.22-5.81-6.46-24.06-16.35-30.62a5.81 5.81 0 0 0-4.95-.64" transform="rotate(2.397 -18547.3 20795.975) scale(.78125)" style="display:block"/><path fill="#1DA200" d="M14.406-26.006a5.72 5.72 0 0 0-2.48-.672 5.743 5.743 0 0 0-2.52.472c-10.83 4.82-21.45 21.53-21.22 27.46.27 7-4 7.18-5.8 12.39-1.48 4.23 2.43 10.14 4 12.2.18.239.4.435.66.575.27.14.55.221.85.235 2.66.11 10.16.08 12.77-3.6 3.19-4.51.89-8.08 6.74-11.9 5-3.25 12.44-21.59 10.09-33.21a5.794 5.794 0 0 0-1.05-2.34 5.759 5.759 0 0 0-1.95-1.66" transform="rotate(2.736 -16204.947 18997.678) scale(.78125)" style="display:block"/><g opacity=".2" style="display:block"><path fill="#1DA200" d="M846.332 770.815a4.518 4.518 0 0 0-1.777.909 4.481 4.481 0 0 0-1.217 1.586c-3.775 8.463-1.24 23.718 2.037 27.042 3.809 3.915 1.442 6.24 3.112 10.215 1.397 3.202 6.705 4.622 8.671 5.03a1.562 1.562 0 0 0 1.3-.331c1.634-1.323 5.94-5.26 5.528-8.763-.504-4.29-3.705-5.153-2.31-10.432 1.188-4.483-4.06-19.034-11.509-24.555a4.54 4.54 0 0 0-3.835-.701" opacity="1"/></g><g opacity=".2" style="display:block"><path fill="#1DA200" d="M899.844 774.864a4.469 4.469 0 0 0-1.91-.62 4.487 4.487 0 0 0-1.984.272c-8.635 3.346-17.563 15.978-17.61 20.614-.058 5.472-3.397 5.449-5.001 9.445-1.318 3.244 1.507 8.006 2.653 9.674.131.193.295.354.493.473.205.12.42.194.654.216 2.072.188 7.925.452 10.103-2.319 2.662-3.397 1.004-6.27 5.715-9.027 4.026-2.345 10.535-16.37 9.147-25.527a4.527 4.527 0 0 0-.73-1.867 4.5 4.5 0 0 0-1.458-1.37" opacity="1"/></g><path fill="#1DA200" d="M.625-29.571a5.758 5.758 0 0 0-4.57 2c-7.63 9.08-9.85 28.75-7 34 3.31 6.17-.42 8.19.22 13.68.52 4.45 6.62 8.05 8.89 9.24a1.994 1.994 0 0 0 1.719.06c2.43-1.06 9.171-4.38 9.901-8.83.89-5.45-2.74-7.65.84-13.65 3-5.1 1.73-24.85-5.48-34.27a5.79 5.79 0 0 0-1.98-1.618 5.822 5.822 0 0 0-2.49-.602" transform="rotate(3.82 -11541.758 13428.681) scale(.78125)" style="display:block"/><path fill="#1DA200" d="M-13.886-18.835a4.45 4.45 0 0 0-1.35 1.487c-.34.59-.53 1.247-.58 1.924-.55 9.29 7.27 22.699 11.49 24.679 5 2.33 3.57 5.35 6.54 8.5 2.42 2.56 7.94 2 9.92 1.65.23-.04.45-.13.64-.26s.35-.308.47-.509c1-1.81 3.72-7 2.09-10.19-2-3.85-5.31-3.53-5.86-9-.48-4.63-10.56-16.44-19.51-19a4.52 4.52 0 0 0-2-.084c-.67.121-1.3.388-1.85.784" transform="rotate(2.955 -16230.587 16988.02) scale(.78125)" style="display:block"/><g opacity=".2" style="display:block"><path d="M902.386 828.05a3.95 3.95 0 0 0-3.293-.826c-7.885 1.693-17.27 11.338-17.965 15.314-.793 4.689-3.642 4.224-5.59 7.428-1.575 2.612.202 7.064.939 8.684.08.184.21.346.365.475.155.13.336.222.528.271 1.754.448 6.755 1.476 9.005-.61 2.754-2.55 1.72-5.248 6.153-6.98 3.756-1.466 11.293-12.631 11.352-20.695a3.914 3.914 0 0 0-.386-1.698 3.966 3.966 0 0 0-1.092-1.362" opacity="1"/></g><g opacity=".2" style="display:block"><path d="M869.363 775.58a4.498 4.498 0 0 0-3.644 1.38c-6.31 6.786-8.814 22.047-6.796 26.255 2.34 4.944-.65 6.374-.365 10.683.23 3.492 4.85 6.54 6.574 7.558a1.558 1.558 0 0 0 1.339.114c1.937-.731 7.327-3.057 8.072-6.5.908-4.218-1.838-6.077 1.19-10.618 2.542-3.862 2.326-19.322-2.93-26.955a4.523 4.523 0 0 0-1.482-1.34 4.548 4.548 0 0 0-1.92-.568" opacity="1"/></g><g opacity=".2" style="display:block"><path d="M843.005 844.084a3.477 3.477 0 0 0-1.106 1.113 3.518 3.518 0 0 0-.52 1.48c-.757 7.232 4.873 17.973 8.097 19.667 3.82 1.995 2.597 4.301 4.804 6.864 1.799 2.084 6.127 1.841 7.684 1.638.181-.023.356-.086.509-.18s.284-.229.385-.381c.844-1.378 3.15-5.332 1.99-7.88-1.425-3.075-4.02-2.942-4.256-7.23-.211-3.63-7.662-13.203-14.557-15.517a3.531 3.531 0 0 0-1.558-.136 3.548 3.548 0 0 0-1.471.547" opacity="1"/></g><path fill="#FFD669" d="m-20.91 36.23-.7-.21c.17-.56 17.11-56.48 42.84-72.25l.38.62C-3.88-19.99-20.74 35.67-20.91 36.23z" transform="rotate(1.111 -44031.328 46368.218) scale(.78125)" style="display:block"/><path fill="#FFD669" d="M15.38 24.69C13.05 10.35-15.81-23.88-16.1-24.22l.55-.47c1.2 1.41 29.29 34.73 31.65 49.26l-.72.12z" transform="rotate(1.111 -44484.808 44846.911) scale(.78125)" style="display:block"/><path fill="#FFD669" d="m-30.15 57.235-.73-.08 3.4-29.42a78.564 78.564 0 0 1 20.3-44.45l37.52-40.52.54.5-37.52 40.51a77.81 77.81 0 0 0-20.11 44l-3.4 29.46z" transform="rotate(1.111 -43179.2 46743.99) scale(.78125)" style="display:block"/><path fill="#FFD669" d="M30.115 49.71c-.19-.68-19.43-68.12-60.93-98.83l.43-.59c41.71 30.86 61 98.54 61.2 99.22l-.7.2z" transform="rotate(1.111 -43465.413 44254.134) scale(.78125)" style="display:block"/><path fill="#FFF" d="m-.445-68.081-.73.008L.445 68.081l.73-.01-1.62-136.152z" transform="rotate(1.111 -42727.769 45478.229) scale(.78125)" style="display:block"/><path fill="#FFD669" d="M-18.725 48.345c-.72-43.17 36.49-96.16 36.87-96.69l.59.43c-.37.52-37.45 53.32-36.73 96.24l-.73.02z" transform="rotate(1.111 -41743.949 46249.313) scale(.78125)" style="display:block"/><path fill="#FFD669" d="M15.315 50.525c-.89-16.54-31-100-31.36-100.8l.69-.25c.3.84 30.5 84.36 31.4 101l-.73.05z" transform="rotate(1.111 -41724.338 44868.049) scale(.78125)" style="display:block"/><path fill="#FFD669" d="m-.365-19.445-.73.027 1.46 38.863.73-.027-1.46-38.863z" transform="rotate(1.111 -39038.689 45588.333) scale(.78125)" style="display:block"/><path fill="#FFD669" d="m-5.335-2.647-.28.672 10.94 4.622.29-.672-10.95-4.622z" transform="rotate(1.111 -43990.078 44449.228) scale(.78125)" style="display:block"/><path fill="#FFD669" d="m-9.415-4.23-.27.676L9.405 4.23l.28-.675-19.1-7.785z" transform="rotate(1.111 -42100.542 43468.011) scale(.78125)" style="display:block"/><path fill="#FFD669" d="m-6.105-8.376-.57.45L6.095 8.376l.58-.45-12.78-16.302z" transform="rotate(1.111 -40480.964 44386.364) scale(.78125)" style="display:block"/><path fill="#FFD669" d="m2.94-11.775-6.58 23.353.71.197 6.57-23.352-.7-.198z" transform="rotate(1.111 -41051.292 45629.084) scale(.78125)" style="display:block"/><path fill="#FFD669" d="m.975-9.844-2.67 19.589.72.099 2.67-19.589-.72-.099z" transform="rotate(1.111 -40458.266 46429.942) scale(.78125)" style="display:block"/><path fill="#FFD669" d="m-1.96 9.245-.71-.18c1.82-7.08 4.54-17.79 4.61-18.31h.73c0 .37-3.24 13-4.63 18.46" transform="rotate(1.111 -41486.513 47175.228) scale(.78125)" style="display:block"/><path fill="#FFD669" d="m7.965-5.122-16.3 9.614.37.63 16.3-9.614-.37-.63z" transform="rotate(1.111 -43412.77 46670.549) scale(.78125)" style="display:block"/><path fill="#868A90" d="M13.29 31.025h-26.54c-1.85 0-3.69-.36-5.41-1.07a14.16 14.16 0 0 1-4.58-3.06 14.16 14.16 0 0 1-3.06-4.58c-.71-1.72-1.07-3.55-1.07-5.41v-47.93h54.74v47.93c0 3.74-1.49 7.33-4.13 9.97a14.11 14.11 0 0 1-9.97 4.13" transform="translate(867.168 909.135) scale(.78125)" style="display:block"/><path fill="#606166" d="M.38 28.045h12.9c3.74 0 7.33-1.49 9.97-4.13a14.11 14.11 0 0 0 4.13-9.97v-42l-54.59.68-.17 2.3h40.14v40s2.92 13.13-12.4 13.13" transform="translate(867.176 911.463) scale(.78125)" style="display:block"/><path fill="#868A90" d="M29.025 3.28h-58.07c-.21 0-.42-.04-.61-.12-.2-.08-.38-.2-.53-.35-.15-.14-.27-.32-.35-.52-.08-.19-.12-.4-.12-.61v-3.36c0-.21.04-.42.12-.61.08-.2.2-.38.35-.53.15-.14.33-.26.53-.34.19-.08.4-.12.61-.12h58.09c.21 0 .42.04.62.12.19.08.37.2.52.34.15.15.27.33.35.53.08.19.12.4.12.61v3.36c0 .21-.04.42-.12.61-.08.2-.2.38-.35.52-.15.15-.33.27-.52.35-.2.08-.41.12-.62.12" transform="translate(866.914 887.475) scale(.78125)" style="display:block"/><path fill="#606166" d="M6.585 1.68v-3.36a1.7 1.7 0 0 0-.53-1.16c-.33-.3-.76-.46-1.2-.44h-11.49v6.56h11.54c.22.01.44-.02.64-.1.21-.07.4-.19.56-.34.16-.15.29-.33.38-.53.09-.19.14-.41.15-.63" transform="translate(885.703 887.475) scale(.78125)" style="display:block"/></g></svg>