<svg id="Layer_1" data-name="Layer 1" xmlns="http://www.w3.org/2000/svg" viewBox="0 0 56 43"><defs><style>.cls-1{fill:#dedede;}</style></defs><path class="cls-1" d="M31.07,13.82V12.29H9.57V43H23.4V14.59a.77.77,0,0,1,.77-.77ZM12.65,18.43a.78.78,0,0,1-.78.77.76.76,0,0,1-.77-.77V13.82a.78.78,0,0,1,1.55,0Z"/><path class="cls-1" d="M46.43,20H24.93V43h21.5ZM35.68,40.7a8.45,8.45,0,1,1,8.44-8.45A8.45,8.45,0,0,1,35.68,40.7Z"/><path class="cls-1" d="M35.68,25.34a6.91,6.91,0,1,0,6.9,6.91A6.91,6.91,0,0,0,35.68,25.34Zm0,2.56a4.37,4.37,0,0,0-4.36,4.35.77.77,0,1,1-1.54,0,5.89,5.89,0,0,1,5.89-5.89.77.77,0,0,1,.77.77A.75.75,0,0,1,35.68,27.9ZM31.07,0H9.57V10.75h21.5ZM12.65,9.22a.78.78,0,0,1-.78.77.76.76,0,0,1-.77-.77V4.6a.78.78,0,0,1,1.55,0Zm33.78,6.13H28.77v3.08H46.43V15.35ZM32.6,17.66H31.07a.77.77,0,0,1,0-1.54H32.6a.77.77,0,1,1,0,1.54Zm3.85,0H34.92a.77.77,0,1,1,0-1.54h1.53a.77.77,0,1,1,0,1.54ZM24.93,15.35h2.3v3.08h-2.3Z"/></svg>