<svg id="Layer_1" data-name="Layer 1" xmlns="http://www.w3.org/2000/svg" viewBox="0 0 56 43"><defs><style>.cls-1{fill:#dedede;}</style></defs><path class="cls-1" d="M14.36,1.58A4.48,4.48,0,1,0,8.05,7.89L9.63,9.24l6.1-6.06Zm-3.23,3.1a1.29,1.29,0,0,1-1.82,0,1.28,1.28,0,1,1,1.82,0ZM48.89,22.39a2.21,2.21,0,0,1,0,3.12h0L32,42.35a2.21,2.21,0,0,1-3.13-3.12h0L45.76,22.39A2.22,2.22,0,0,1,48.89,22.39Zm-4.14-.45L28.44,38.23l-.36-.36a11.5,11.5,0,0,1-2.54-12.46,4.48,4.48,0,0,1-.94-3.35L10.42,9.92l6-5.94L28.3,18.14a4.33,4.33,0,0,1,.8-.07,4.53,4.53,0,0,1,2.8,1,11.72,11.72,0,0,1,4.32-.83,11.51,11.51,0,0,1,8.16,3.37Zm-9-8.69-.69-1.55a.47.47,0,0,0-.2-.22l-1.42-.94a.53.53,0,0,1-.15-.73.79.79,0,0,1,.22-.19l1.56-.7a.5.5,0,0,0,.22-.19l.93-1.43A.52.52,0,0,1,37,7.16a.56.56,0,0,1,.2.23l.69,1.55a.51.51,0,0,0,.19.22l1.43.95a.52.52,0,0,1,.15.72.71.71,0,0,1-.23.19l-1.56.7a.5.5,0,0,0-.22.19l-.92,1.43a.52.52,0,0,1-.72.14.41.41,0,0,1-.2-.23ZM17.42,31.57,16.72,30a.56.56,0,0,0-.2-.23l-1.45-1a.54.54,0,0,1,.07-.94l1.59-.7A.55.55,0,0,0,17,27l1-1.46a.54.54,0,0,1,.74-.15.45.45,0,0,1,.2.23l.7,1.59a.71.71,0,0,0,.19.23l1.46,1a.54.54,0,0,1,.16.74.53.53,0,0,1-.23.19l-1.6.71a.6.6,0,0,0-.23.19l-1,1.45a.53.53,0,0,1-.74.16.62.62,0,0,1-.19-.23ZM9.89,23l-.81-1.82a.56.56,0,0,0-.22-.26L7.2,19.82A.6.6,0,0,1,7,19a.52.52,0,0,1,.27-.22L9.11,18a.63.63,0,0,0,.26-.22l1.1-1.67a.61.61,0,0,1,.84-.17.49.49,0,0,1,.22.27L12.34,18a.63.63,0,0,0,.22.26l1.67,1.09a.61.61,0,0,1,.17.84.49.49,0,0,1-.27.22l-1.82.81a.63.63,0,0,0-.26.22L11,23.09a.61.61,0,0,1-.84.17A.63.63,0,0,1,9.89,23Z"/></svg>