<svg id="Layer_1" data-name="Layer 1" xmlns="http://www.w3.org/2000/svg" viewBox="0 0 56 43"><defs><style>.cls-1{fill:#dedede;fill-rule:evenodd;}</style></defs><path class="cls-1" d="M18.1,27.14v6.68h-11V27.14Zm-11-1.26h11v-.79a1.68,1.68,0,0,0-1.68-1.68H8.82a1.67,1.67,0,0,0-1.67,1.68Zm20.17,9.2H6.51a1.39,1.39,0,0,0-1.39,1.39v1.72H25.87a5.53,5.53,0,0,1,1.45-3.11Zm-6.45,4.37H4.39a1.56,1.56,0,1,0,0,3.11H20.88a1.56,1.56,0,1,0,0-3.11Zm8.78-.63a1.64,1.64,0,1,0,1.63-1.63A1.64,1.64,0,0,0,29.65,38.82Zm1.63-2.9a2.9,2.9,0,1,0,2.9,2.9A2.89,2.89,0,0,0,31.28,35.92Zm0,7.08a4.18,4.18,0,1,1,4.18-4.18A4.18,4.18,0,0,1,31.28,43ZM19.36,33.82V29.59H23a2.36,2.36,0,0,0,2-1.13l.72-1.18a1.86,1.86,0,0,1,1.62-.91h1.28L27,29.17a.6.6,0,0,0,0,.63.62.62,0,0,0,.54.32h2.71a.63.63,0,0,0,.55-.32l2-3.43H33a.54.54,0,0,1,.54.54v7a5.45,5.45,0,0,0-2.27-.5,5.38,5.38,0,0,0-2.15.45ZM25,32.32a.63.63,0,1,0,0-1.26H23.75a.63.63,0,0,0,0,1.26Zm4.15,0a.63.63,0,1,0,0-1.26H27.9a.63.63,0,0,0,0,1.26Zm-.56-3.46h1.24l3.84-6.65-.94-.54Zm8.16-14.07.87.5.5-.87-.87-.51ZM36.12,18l-.88-.51-.5.88.87.5Zm1.18-.78-2-1.14a.64.64,0,0,0-.87.23l-1.13,2a.62.62,0,0,0,.22.86h0l2,1.14a.66.66,0,0,0,.31.09.63.63,0,0,0,.55-.32l1.14-2a.62.62,0,0,0-.23-.86Zm-5.81,2.28,3.78-6.56a2.8,2.8,0,0,1,2.86-1.34.62.62,0,0,0,.65-.3l2.58-4.48.94.54-2.48,4.3a.64.64,0,0,0,.24.86l1.37.79-5.17,8.94Zm4.12-3.9a.64.64,0,0,1-.29-.38.65.65,0,0,1,.06-.49l1.14-2a.62.62,0,0,1,.86-.23l2,1.14a.64.64,0,0,1,.23.86l-1.14,2a.62.62,0,0,1-.54.32.56.56,0,0,1-.32-.09ZM40.77,5l3.37,2a.28.28,0,0,0,.37-.09l.58-1-.17,0A2.1,2.1,0,0,1,43.51,5a2,2,0,0,1-.44-1.54,2.12,2.12,0,0,1,2.34-1.85l1.31.16L43.65,0a.31.31,0,0,0-.21,0,.25.25,0,0,0-.17.13l-2.6,4.49a.27.27,0,0,0,.1.36Zm3.56-1.35a.84.84,0,0,0,.74.93l1.13.14h0l4.1.48a2,2,0,0,1-.07-.85,2.15,2.15,0,0,1,.27-.81l-5.24-.61a.83.83,0,0,0-.62.18A.75.75,0,0,0,44.33,3.64Zm7.16.84a.87.87,0,0,0,.17.62.86.86,0,0,0,.57.31.83.83,0,0,0,.62-.18.8.8,0,0,0,.32-.55.84.84,0,0,0-.73-.94h-.09a.87.87,0,0,0-.53.18A.89.89,0,0,0,51.49,4.48Z"/></svg>