<svg id="Layer_1" data-name="Layer 1" xmlns="http://www.w3.org/2000/svg" viewBox="0 0 56 43"><defs><style>.cls-1{fill:#dedede;}</style></defs><path class="cls-1" d="M3.42,6.53H1.08a1.08,1.08,0,0,1,0-2.16H3.42Zm0,4.15H1.08a1.08,1.08,0,0,1,0-2.16H3.42Zm0,4.16H1.08a1.08,1.08,0,0,1,0-2.16H3.42ZM4.22,19h-.8L5.11,17.3a1.07,1.07,0,0,1-.28,1.49,1.12,1.12,0,0,1-.62.2Zm-.8,0H1.08a1.08,1.08,0,0,1,0-2.16H3.42Zm0,4.15H1.08a1.08,1.08,0,0,1,0-2.16H3.92l-.51.51v1.65Zm0,4.16H1.08a1.08,1.08,0,1,1,0-2.16H3.42Zm0,4.15H1.08a1.08,1.08,0,0,1,0-2.16H3.42Zm0,4.16H1.08a1.08,1.08,0,1,1,0-2.16H3.42ZM54.92,6.53H52.58V4.37h2.34a1.08,1.08,0,0,1,0,2.16Zm0,4.15H52.58V8.52h2.34a1.08,1.08,0,0,1,0,2.16Zm0,4.16H52.58V12.68h2.34a1.08,1.08,0,0,1,0,2.16Zm0,4.15H52.58V16.83h2.34a1.08,1.08,0,0,1,0,2.16Zm0,4.15H52.58V21h2.34a1.08,1.08,0,1,1,0,2.16Zm0,4.16H52.58V25.14h2.34a1.08,1.08,0,1,1,0,2.16Zm0,4.15H52.58V29.29h2.34a1.08,1.08,0,0,1,0,2.16Zm0,4.16H52.58V33.45h2.34A1.08,1.08,0,0,1,56,34.53a1.1,1.1,0,0,1-1.08,1.08Zm-7.87-2L45.9,34.78l6.89,6.88a.79.79,0,0,0,1.15,0,.81.81,0,0,0,0-1.15l-2.58-2.58,0,0-4.26-4.26Zm-3-3-1.15,1.16L45,33.87l1.16-1.15Zm-2.38-3.91L39,29.33l2.24,2.26.31-.3h0l2-2,.31-.31L42.76,27.8Z"/><path class="cls-1" d="M43,18.33,30.6,30.75l4.15,4.14,4-4L38,30.16a1.15,1.15,0,0,1,0-1.63l2.81-2.82a1.18,1.18,0,0,1,1.65,0l.75.76,4-4L43,18.33Zm-21.1,10.6L12,38.86h3l8.43-8.43a1.06,1.06,0,0,0,0-1.5,1,1,0,0,0-.72-.3,1.09,1.09,0,0,0-.76.3Zm-3.81-9.78-.41.71a.56.56,0,0,1-.21.22l-.88.54.88.54a.7.7,0,0,1,.21.21l.41.72.41-.72a.6.6,0,0,1,.21-.21l.88-.54-.88-.54a.63.63,0,0,1-.21-.22l-.41-.71ZM14.53,7.62,4.86,17.31v3L16,9.13a1.06,1.06,0,0,0,0-1.49,1,1,0,0,0-1.48,0ZM40.35,1.11,33.47,8a1.05,1.05,0,0,0,.11,1.5,1.07,1.07,0,0,0,1.39,0l8.36-8.36S40.35,1.11,40.35,1.11ZM24.87,10.28a.83.83,0,0,1-.2.22l-.88.54.88.54a.8.8,0,0,1,.2.21l.42.72.41-.72a.6.6,0,0,1,.21-.21l.88-.54-.88-.54a.73.73,0,0,1-.21-.22l-.41-.71-.42.71Z"/><path class="cls-1" d="M16.92,10,4.84,22.08V37.8A1.06,1.06,0,0,0,5.9,38.86h4.33L21,28a2.32,2.32,0,0,1,3.29,3.28h0l-7.54,7.55H48.19L42,32.62a1.16,1.16,0,0,1-1.58-.06l-.75-.75-4.11,4.11a1.07,1.07,0,0,1-1.52,0h0l-4.41-4.4a1.11,1.11,0,0,1,0-1.53h0L42.27,17.31a1.07,1.07,0,0,1,1.52,0h0l4.4,4.4a1.07,1.07,0,0,1,0,1.52l-4.11,4.11.76.76a1.15,1.15,0,0,1,0,1.58l2.61,2.59,3.64,3.65V2.15a1,1,0,0,0-1-1h-5l-9.26,9.25a2.32,2.32,0,0,1-3.28-3.28l6-6H5.9a1.06,1.06,0,0,0-1.06,1V15.52l8.79-8.79A2.33,2.33,0,1,1,16.92,10Zm9.78,2.55-.87,1.5a.62.62,0,0,1-.86.22.66.66,0,0,1-.22-.22l-.89-1.5-1.62-1a.63.63,0,0,1-.21-.87.7.7,0,0,1,.21-.21l1.62-1L24.74,8a.63.63,0,0,1,.86-.23.63.63,0,0,1,.23.23l.87,1.5,1.62,1a.62.62,0,0,1,.22.86.58.58,0,0,1-.22.22l-1.62,1Zm-5.54,7.51a.62.62,0,0,1,.22.86.66.66,0,0,1-.22.22l-1.61,1-.88,1.5a.62.62,0,0,1-.86.21.56.56,0,0,1-.22-.21l-.89-1.49-1.61-1a.62.62,0,0,1,0-1.08l1.61-1,.88-1.49a.63.63,0,0,1,.86-.23.63.63,0,0,1,.23.23l.88,1.49,1.61,1Z"/></svg>