<svg id="Layer_1" data-name="Layer 1" xmlns="http://www.w3.org/2000/svg" viewBox="0 0 56 43"><defs><style>.cls-1{fill:#dedede;}</style></defs><path class="cls-1" d="M35.15,15.07a10.11,10.11,0,1,0,0,14.3A10.13,10.13,0,0,0,35.15,15.07ZM47,17V15a5.28,5.28,0,0,1-2.49-2.2,8.31,8.31,0,0,1-1.07-4.27A12.07,12.07,0,0,1,45,2.7c2.12-3.67,5.5-3.53,7.7,0A11.48,11.48,0,0,1,54.3,8.52a8.14,8.14,0,0,1-1.07,4.27A5.32,5.32,0,0,1,50.75,15l0,2A5.64,5.64,0,0,0,47,17Zm3.61,1.09a.86.86,0,0,1,.56.76c.15,5,.3,10,.44,15L51.79,40a.41.41,0,0,1,0,.22,2.89,2.89,0,0,1-.21,1,3,3,0,0,1-4.8,1,3,3,0,0,1-.63-1,2.8,2.8,0,0,1-.22-1,.65.65,0,0,1,0-.14c.15-3.55.3-7.08.42-10.59s.22-7,.28-10.55a.81.81,0,0,1,.49-.78A4.7,4.7,0,0,1,50.62,18.06ZM4.67,15.6V13.13a4.44,4.44,0,0,1-2.07-1.59,4.86,4.86,0,0,1-.88-3.17h0L2.3.77A.83.83,0,1,1,4,.89L3.52,6.55s0,.06,0,.08c0,.29.19.48.41.48s.42-.22.44-.56c0,0,0-.08,0-.11l0-5.62a.83.83,0,0,1,1.66,0L6.05,6.47c0,.4.22.63.52.64S7,6.92,7,6.55L7,.82a.82.82,0,0,1,1.64,0l0,5.68a.61.61,0,0,1,0,.13c0,.29.19.48.41.48s.41-.22.44-.56c0,0,0-.08,0-.12L9.21.88A.82.82,0,1,1,10.85.77l.49,7.59a4.78,4.78,0,0,1-.89,3.17,4.57,4.57,0,0,1-2.08,1.59v2.43a6,6,0,0,0-3.7,0Zm3.67,1.12a.83.83,0,0,1,.56.75q.26,7.92.47,15.83c.07,2.18.12,4.36.19,6.52a.41.41,0,0,1,0,.22,2.86,2.86,0,0,1-.23,1,3.06,3.06,0,0,1-5,1,2.91,2.91,0,0,1-.66-1A2.88,2.88,0,0,1,3.44,40v-.08c.16-3.76.31-7.5.44-11.2s.23-7.45.3-11.15a.81.81,0,0,1,.49-.78,4.86,4.86,0,0,1,3.67,0ZM28,11A11.21,11.21,0,1,1,16.78,22.21,11.21,11.21,0,0,1,28,11Zm0-6.28a17.51,17.51,0,1,1-17.5,17.51A17.5,17.5,0,0,1,28,4.72Z"/></svg>