<svg xmlns="http://www.w3.org/2000/svg" viewBox="0 0 372.277 372.277" style="enable-background:new 0 0 372.277 372.277" xml:space="preserve"><path style="fill:#aed5f3" d="M83.334 116.138H15c-8.284 0-15 6.716-15 15 0 8.284 6.716 15 15 15h30c-8.284 0-15 6.716-15 15 0 8.284 6.716 15 15 15h5l33.334-60z"/><path style="fill:#64c37d" d="m260 86.139 9.825 17.685 25.076-63.325c-2.791-3.572-6.26-7.017-10.568-10.167-46.927-34.311-90.144 4.371-90.144 4.371 25.068-.276 42.009 6.51 53.427 15.32-9.428-.748-20.257-.112-32.118 3.124-21.956 5.993-36.545 18.734-46.248 32.992H260z"/><path style="fill:#4b925e" d="M322.846 79.815c14.355 1.393 31.35 8.046 49.432 25.41 0 0-5.018-57.782-62.713-64.901-5.297-.653-10.183-.519-14.663.175l-25.076 63.325 1.865 3.358a18.144 18.144 0 0 1 12.62.283c9.359 3.705 13.943 14.299 10.237 23.659a18.283 18.283 0 0 1-1.62 3.148c17.656 13.994 36.383 39.442 33.924 83.859 0 0 52.576-56.492 17.267-114.052-6.429-10.479-13.889-18.356-21.273-24.264z"/><path style="fill:#50412e" d="M284.31 107.466a18.138 18.138 0 0 0-12.62-.283l17.42 31.356a18.08 18.08 0 0 0 3.817-4.266 18.32 18.32 0 0 0 1.62-3.148c3.707-9.361-.877-19.954-10.237-23.659z"/><path style="fill:#78b9eb" d="M290 326.139h-40v-.001h-50v.001h-40v-.001h-50v.001H70v-.001H20v30h320v-30h-50z"/><path style="fill:#a0815c" d="M160 206.138h20v-29.999H70v89.999h90v-60zm-30 30h-30v-30h30v30z"/><path style="fill:#ffc170" d="M160 266.138H50v30h260v-30H200z"/><path style="fill:#786145" d="M180 206.138h20v60h90v-89.999H180v29.999zm50 0h30v30h-30v-30zM110 326.139v-30H70v30zm90 0v-30h-40v30zm90 0v-30h-40v30z"/><path style="fill:#ffd6a0" d="M180 176.138V86.139h-80l-16.666 29.999-33.334 60v.001h130z"/><path style="fill:#ffc170" d="m271.69 107.182-1.865-3.358L260 86.139h-80v90h130l-20.89-37.6z"/><path style="fill:#50412e" d="M160 266.138h40v-60h-40zm-60-60h30v30h-30zm130 0h30v30h-30z"/></svg>