<svg xmlns="http://www.w3.org/2000/svg" viewBox="0 0 489.038 489.038" style="enable-background:new 0 0 489.038 489.038" xml:space="preserve"><path d="M302.7 152.181c-32.3-18.6-84.5-18.7-116.6 0-32.1 18.6-31.9 48.9.4 67.5s84.5 18.6 116.5 0c32.2-18.7 32-48.9-.3-67.5zm-14.8 29.3c-2.8.9-5.5 1.8-8.4 2.6-1.7.5-2.7.6-3.5.2-.4-.2-.8-.7-1.1-1.3-1.9-3-4.7-5.6-8.6-7.8-.4-.3-.9-.5-1.4-.8-1.2-.6-2.5-1.2-4-1.5-5.4-1.2-10.1.8-9.4 4.1.3 1.7 1.2 3.3 2.3 4.9 1.9 2.7 4 5.4 5.4 8.2 4.5 9-5.3 17.8-20.9 18.7-5.7.3-11-.4-16-2-2.2-.7-3.8-.7-5.5.4-1.6 1-3.4 2-5.1 3-1.5.9-3.1.9-4.7 0l-3.3-1.8c-.8-.4-1.5-.9-2.3-1.4-1.6-.9-1.4-1.9.2-2.9 1.2-.7 2.5-1.5 3.7-2.2 2.8-1.6 2.8-1.8.5-3.6-2.9-2.3-5.5-4.7-7.1-7.4-1.3-2.1-.9-2.6 2.3-3.7 2.5-.8 4.9-1.6 7.4-2.4 1.8-.6 2.8-.7 3.6-.3.4.3.8.7 1.1 1.4 1.7 3 4.3 5.8 7.7 8.3l1.8 1.2c1.8 1.1 3.9 1.9 6.4 2.5 6.1 1.4 11.8-1.1 11.1-4.9-.2-1.3-.9-2.5-1.7-3.8-2.1-3.1-4.8-6.1-6.3-9.4-2.3-5.3-1.3-10.2 6.2-14 8.4-4.3 17.8-4.6 27.7-1.9 4.1 1.1 4.1 1.1 7.2-.7 1.1-.6 2.1-1.2 3.2-1.8 2.4-1.3 3.2-1.3 5.6 0 .3.1.5.3.7.4.5.3 1 .6 1.4.9 5 2.9 5 2.9.1 5.8-3.5 2-3.5 2.1-.6 4.4 2.3 1.8 4.1 3.8 5.5 5.8 1.1 1.4.7 2.2-1.2 2.8zm198.1 34-293.4-169.3c-4-2.3-10.6-2.3-14.6 0L3.2 147.781c-4 2.3-4 6.1 0 8.5l293.3 169.3c4.1 2.4 10.6 2.3 14.6 0l174.9-101.6c4-2.3 4.1-6.1 0-8.5zm-152.9 71c-1.6-1.6-3.6-3-5.9-4.3-14.9-8.6-39-8.6-53.9 0-1.1.7-2.1 1.3-3.1 2.1l-197.6-114.2c1.9-.8 3.7-1.6 5.4-2.6 14.8-8.6 14.7-22.6-.2-31.2-1.6-.9-3.4-1.8-5.2-2.5l81.5-47.3c1.3 1 2.7 2.1 4.3 3 14.9 8.6 39.1 8.6 53.9 0 1.7-1 3.2-2 4.4-3.1l198.2 114.5c-2.6.9-5.1 2-7.3 3.3-14.8 8.6-14.7 22.6.2 31.2 2.3 1.3 4.9 2.4 7.6 3.4l-82.3 47.7zm23.9-43.2-12.9 7.5c-2 1.1-5.2 1.2-7.2 0l-22.7-13.1c-2-1.2-2-3 0-4.2l12.9-7.5c2-1.1 5.2-1.2 7.2 0l22.7 13.1c2 1.2 2 3.1 0 4.2zm-182-105.1-12.9 7.5c-2 1.1-5.2 1.2-7.2 0l-22.7-13.1c-2-1.2-2-3 0-4.2l12.9-7.5c2-1.1 5.2-1.2 7.2 0l22.7 13.1c2 1.2 2 3.1 0 4.2zm291.2 129.4 22.8 13.2-183.3 106.5-6-3.4-16.9-9.7L0 210.581l22.6-13.1 282.9 163.4 160.7-93.3zm-.4 57.7 22.8 13.2-182.6 106.1-5.9-3.4-16.9-9.7L0 267.581l22.6-13.1 283.3 163.8 159.9-93z"/></svg>