<?xml version="1.0" standalone="no"?>
<!DOCTYPE svg PUBLIC "-//W3C//DTD SVG 20010904//EN"
 "http://www.w3.org/TR/2001/REC-SVG-20010904/DTD/svg10.dtd">
<svg version="1.0" xmlns="http://www.w3.org/2000/svg"
 width="500.000000pt" height="500.000000pt" viewBox="0 0 500.000000 500.000000"
 preserveAspectRatio="xMidYMid meet">
<metadata>
Created by potrace 1.16, written by Peter Selinger 2001-2019
</metadata>
<g transform="translate(0.000000,500.000000) scale(0.100000,-0.100000)"
fill="#000000" stroke="none">
<path d="M2358 3840 c-310 -56 -563 -282 -660 -590 -20 -66 -23 -94 -23 -235
1 -144 3 -168 26 -235 l25 -75 599 -2 600 -1 -73 34 c-95 45 -194 70 -313 79
-104 8 -152 27 -192 74 -55 66 -61 168 -14 240 30 46 113 91 167 91 85 0 183
-81 197 -164 l6 -36 58 0 59 0 0 385 0 384 -82 27 c-67 21 -107 27 -208 29
-69 2 -146 0 -172 -5z m290 -121 l52 -10 0 -75 c0 -41 -2 -74 -5 -74 -2 0 -30
7 -62 15 -116 30 -278 13 -386 -41 -147 -75 -253 -203 -301 -363 -20 -68 -21
-226 -2 -298 l14 -53 -74 0 -73 0 -13 43 c-6 23 -12 94 -12 157 0 93 4 130 23
190 115 373 462 584 839 509z m-5 -267 l52 -17 3 -83 c2 -46 -1 -82 -5 -80
-119 60 -123 61 -207 56 -153 -9 -254 -91 -292 -239 -19 -74 -8 -157 30 -225
l25 -44 -84 0 -83 0 -16 48 c-123 354 221 702 577 584z"/>
<path d="M2960 3365 l0 -345 61 0 61 0 -4 302 -4 301 -39 34 c-82 71 -75 97
-75 -292z"/>
<path d="M3221 3228 l-1 -208 56 0 57 0 -6 78 c-7 98 -29 179 -72 267 l-33 70
-1 -207z"/>
<path d="M1812 2550 c2 -5 21 -32 43 -60 l40 -50 648 0 c419 0 647 3 645 10
-1 5 -21 32 -43 60 l-40 50 -648 0 c-419 0 -647 -3 -645 -10z"/>
<path d="M2148 2264 c95 -45 194 -70 313 -79 104 -8 152 -27 192 -74 56 -67
62 -170 12 -240 -32 -47 -112 -91 -165 -91 -85 0 -183 81 -197 164 l-6 36 -58
0 -59 0 0 -385 0 -384 83 -26 c100 -32 257 -43 365 -26 316 49 575 276 674
591 20 65 23 96 23 225 0 129 -3 162 -25 238 l-24 87 -601 -1 -600 -1 73 -34z
m786 -131 c92 -267 -82 -556 -364 -603 -76 -13 -170 -3 -237 25 l-33 14 0 80
c0 45 2 81 4 81 2 0 25 -12 51 -27 63 -35 183 -44 249 -19 103 39 175 120 202
227 19 74 8 157 -30 225 l-25 44 84 0 83 0 16 -47z m268 5 c6 -24 12 -95 12
-158 0 -93 -4 -129 -23 -190 -79 -254 -264 -437 -508 -501 -91 -24 -238 -29
-325 -10 l-58 12 0 75 c0 41 2 74 5 74 2 0 30 -7 62 -15 183 -48 397 12 535
149 71 72 125 163 153 260 21 73 22 219 1 294 l-14 52 74 0 73 0 13 -42z"/>
<path d="M1673 1903 c7 -99 29 -180 72 -268 l33 -70 1 208 1 207 -56 0 -57 0
6 -77z"/>
<path d="M1920 1681 l0 -299 43 -37 c84 -73 77 -100 77 290 l0 345 -60 0 -60
0 0 -299z"/>
</g>
</svg>
