<svg xmlns="http://www.w3.org/2000/svg" version="1.1" xmlns:xlink="http://www.w3.org/1999/xlink" xmlns:svgjs="http://svgjs.com/svgjs" width="512" height="512" x="0" y="0" viewBox="0 0 128 128" style="enable-background:new 0 0 512 512" xml:space="preserve" class=""><g><path d="M125.84 75.15c-.57-3.87-1.06-7.22-1.22-9.37-.53-7.18-2.47-11-6.5-12.93a12.05 12.05 0 0 0-5.54-1.13c-.58-2.44-1.76-6.39-3.56-8.17-3.1-3.06-7.35-3.15-9.84-2.86a7.56 7.56 0 0 0-4.77-4.95 11.62 11.62 0 0 0-8.25.67c-.78-11.95-1.78-22.94-2.92-25.19a5.79 5.79 0 0 0-4.55-3.44c-3.07-.38-6.08 1.79-7 2.84-.64.74-1.1 1.27-1.06 23 0 10.19.18 21.75.33 23.8.13 1.75-.11 8-.39 14a16.29 16.29 0 0 1-1.27-2.38c-2.26-5-7-9.09-13.21-11.48-4.09-1.56-7.9-1.14-10.21 1.12A5.93 5.93 0 0 0 44.43 65c.77 2.14 2.52 4.23 4.54 6.65a45.8 45.8 0 0 1 5 6.79 54.85 54.85 0 0 1 3.33 7.82 50.68 50.68 0 0 0 4 9c.75 1.24 1.57 2.55 2.41 3.9a124.78 124.78 0 0 1 7 12.24c2.49 5.43 11.53 10 12.55 10.56a2 2 0 1 0 1.74-3.6c-2.43-1.21-9.08-5.12-10.7-8.65A125.45 125.45 0 0 0 67 97c-.83-1.33-1.64-2.63-2.38-3.86A47 47 0 0 1 61 84.92a57.77 57.77 0 0 0-3.59-8.39 48.86 48.86 0 0 0-5.41-7.4c-1.71-2-3.32-4-3.85-5.44a1.92 1.92 0 0 1 .49-2.1c.9-.88 2.94-1.4 6-.24 7.1 2.71 9.93 7 11 9.39a16.48 16.48 0 0 0 4.64 6.33c-.1 1.82-.18 3.43-.25 4.61a2 2 0 0 0 1.88 2.11H72a2 2 0 0 0 2-1.88c0-.86 1.2-21 .92-24.78-.32-4.69-.51-39.43.08-44.13a5.12 5.12 0 0 1 3.19-1.22c.24 0 .88.11 1.46 1.27.91 1.86 2 14.52 2.88 30.08V43.48c.48 8.26.9 17.33 1.23 26a2 2 0 1 0 4-.15c-.15-4-.6-15.27-1.28-26.86a2.62 2.62 0 0 1 1-2.18c1.48-1.17 4.28-1.17 5.66-.73 2.2.71 2.5 3.5 2.51 3.61 0 .18 1.78 18.59 2 22.77a2 2 0 0 0 2 1.89h.12a2 2 0 0 0 1.88-2.11c-.2-3.5-1.4-16.25-1.85-21.07 1.74-.17 4.5-.08 6.37 1.76 1.15 1.13 2.35 5.3 2.84 7.9V54.46a41.85 41.85 0 0 1 1.06 12.93 2 2 0 0 0 1.79 2.19h.2a2 2 0 0 0 2-1.8 44 44 0 0 0-.67-12 8 8 0 0 1 3 .74c2.18 1 3.72 3 4.21 9.6.17 2.29.67 5.7 1.25 9.65 1.07 7.32 2.41 16.43 2.12 22-.44 8.44-3.91 21.34-3.94 21.47a2 2 0 0 0 .25 1.6l4 6.28a2 2 0 0 0 3.37-2.15l-3.54-5.54c.8-3.1 3.45-13.78 3.85-21.45.35-5.98-1.02-15.33-2.12-22.83z" fill="#000000" data-original="#000000" class=""></path><path d="M2 16h58.22A13.49 13.49 0 0 0 64 23.24a2 2 0 0 0 2.83-2.83A9.59 9.59 0 0 1 77.24 4.76a2 2 0 1 0 1.52-3.7A13.58 13.58 0 0 0 60.11 12H2a2 2 0 0 0 0 4zM90 12a2 2 0 0 0 0 4h36a2 2 0 0 0 0-4zM14 78a14 14 0 0 0 13.84-12H38a2 2 0 0 0 0-4H27.84A14 14 0 1 0 14 78zm0-24A10 10 0 1 1 4 64a10 10 0 0 1 10-10zM2 116h28.16a14 14 0 0 0 27.68 0H65a2 2 0 0 0 0-4h-7.16a14 14 0 0 0-27.68 0H2a2 2 0 0 0 0 4zm42-12a10 10 0 1 1-10 10 10 10 0 0 1 10-10z" fill="#000000" data-original="#000000" class=""></path></g></svg>