<svg xmlns="http://www.w3.org/2000/svg" version="1.1" xmlns:xlink="http://www.w3.org/1999/xlink" xmlns:svgjs="http://svgjs.com/svgjs" width="512" height="512" x="0" y="0" viewBox="0 0 64 64" style="enable-background:new 0 0 512 512" xml:space="preserve" class=""><g><path d="M59 2H5a3.009 3.009 0 0 0-3 3v54a3.009 3.009 0 0 0 3 3h54a3.009 3.009 0 0 0 3-3V5a3.009 3.009 0 0 0-3-3zM12 60H5a1 1 0 0 1-1-1V12h8zm48-1a1 1 0 0 1-1 1H14V48h46zM14 46V12h22v34zm46 0H38V12h22zm0-36H4V5a1 1 0 0 1 1-1h54a1 1 0 0 1 1 1z" fill="#000000" data-original="#000000"></path><path d="M8 6H7a1 1 0 0 0 0 2h1a1 1 0 0 0 0-2zM13 6h-1a1 1 0 0 0 0 2h1a1 1 0 0 0 0-2zM18 6h-1a1 1 0 0 0 0 2h1a1 1 0 0 0 0-2zM57 6h-1a1 1 0 0 0 0 2h1a1 1 0 0 0 0-2zM52 6H28a1 1 0 0 0 0 2h24a1 1 0 0 0 0-2z" fill="#000000" data-original="#000000"></path></g></svg>