<svg xmlns="http://www.w3.org/2000/svg" width="52" height="53" viewBox="0 0 52 53" fill="none">
  <path d="M43.875 18.375H32.5V7C32.5 5.70707 31.9864 4.46709 31.0721 3.55285C30.1579 2.63861 28.9179 2.125 27.625 2.125H8.125C6.83207 2.125 5.59209 2.63861 4.67785 3.55285C3.76361 4.46709 3.25 5.70707 3.25 7V49.25C3.25 49.681 3.4212 50.0943 3.72595 50.399C4.0307 50.7038 4.44402 50.875 4.875 50.875H15.4375C15.653 50.875 15.8597 50.7894 16.012 50.637C16.1644 50.4847 16.25 50.278 16.25 50.0625V42.7957C16.25 41.9212 16.9223 41.1707 17.7968 41.127C18.0165 41.1164 18.2361 41.1506 18.4422 41.2274C18.6484 41.3041 18.8368 41.422 18.996 41.5737C19.1553 41.7255 19.282 41.908 19.3687 42.1102C19.4553 42.3124 19.5 42.53 19.5 42.75V50.0625C19.5 50.278 19.5856 50.4847 19.738 50.637C19.8903 50.7894 20.097 50.875 20.3125 50.875H47.125C47.556 50.875 47.9693 50.7038 48.274 50.399C48.5788 50.0943 48.75 49.681 48.75 49.25V23.25C48.75 21.9571 48.2364 20.7171 47.3221 19.8029C46.4079 18.8886 45.1679 18.375 43.875 18.375ZM9.96125 44.3618C9.6247 44.4058 9.28282 44.3433 8.98358 44.1832C8.68435 44.023 8.44278 43.7731 8.29279 43.4686C8.14281 43.1641 8.09192 42.8203 8.14728 42.4855C8.20264 42.1506 8.36147 41.8415 8.60147 41.6015C8.84147 41.3615 9.1506 41.2026 9.48547 41.1473C9.82034 41.0919 10.1641 41.1428 10.4686 41.2928C10.7731 41.4428 11.023 41.6843 11.1832 41.9836C11.3433 42.2828 11.4058 42.6247 11.3618 42.9613C11.3153 43.3164 11.1528 43.6463 10.8996 43.8996C10.6463 44.1528 10.3164 44.3153 9.96125 44.3618ZM9.96125 36.2368C9.6247 36.2808 9.28282 36.2183 8.98358 36.0582C8.68435 35.898 8.44278 35.6481 8.29279 35.3436C8.14281 35.0391 8.09192 34.6953 8.14728 34.3605C8.20264 34.0256 8.36147 33.7165 8.60147 33.4765C8.84147 33.2365 9.1506 33.0776 9.48547 33.0223C9.82034 32.9669 10.1641 33.0178 10.4686 33.1678C10.7731 33.3178 11.023 33.5593 11.1832 33.8586C11.3433 34.1578 11.4058 34.4997 11.3618 34.8363C11.3153 35.1914 11.1528 35.5213 10.8996 35.7746C10.6463 36.0278 10.3164 36.1903 9.96125 36.2368ZM9.96125 28.1118C9.6247 28.1558 9.28282 28.0933 8.98358 27.9332C8.68435 27.773 8.44278 27.5231 8.29279 27.2186C8.14281 26.9141 8.09192 26.5703 8.14728 26.2355C8.20264 25.9006 8.36147 25.5915 8.60147 25.3515C8.84147 25.1115 9.1506 24.9526 9.48547 24.8973C9.82034 24.8419 10.1641 24.8928 10.4686 25.0428C10.7731 25.1928 11.023 25.4343 11.1832 25.7336C11.3433 26.0328 11.4058 26.3747 11.3618 26.7112C11.3153 27.0664 11.1528 27.3963 10.8996 27.6496C10.6463 27.9028 10.3164 28.0653 9.96125 28.1118ZM9.96125 19.9868C9.6247 20.0308 9.28282 19.9683 8.98358 19.8082C8.68435 19.648 8.44278 19.3981 8.29279 19.0936C8.14281 18.7891 8.09192 18.4453 8.14728 18.1105C8.20264 17.7756 8.36147 17.4665 8.60147 17.2265C8.84147 16.9865 9.1506 16.8276 9.48547 16.7723C9.82034 16.7169 10.1641 16.7678 10.4686 16.9178C10.7731 17.0678 11.023 17.3093 11.1832 17.6086C11.3433 17.9078 11.4058 18.2497 11.3618 18.5863C11.3153 18.9414 11.1528 19.2713 10.8996 19.5246C10.6463 19.7778 10.3164 19.9403 9.96125 19.9868ZM9.96125 11.8618C9.6247 11.9058 9.28282 11.8433 8.98358 11.6832C8.68435 11.523 8.44278 11.2731 8.29279 10.9686C8.14281 10.6641 8.09192 10.3203 8.14728 9.98547C8.20264 9.6506 8.36147 9.34147 8.60147 9.10147C8.84147 8.86147 9.1506 8.70264 9.48547 8.64728C9.82034 8.59192 10.1641 8.64281 10.4686 8.79279C10.7731 8.94278 11.023 9.18435 11.1832 9.48358C11.3433 9.78282 11.4058 10.1247 11.3618 10.4613C11.3153 10.8164 11.1528 11.1463 10.8996 11.3996C10.6463 11.6528 10.3164 11.8153 9.96125 11.8618ZM18.0863 36.2368C17.7497 36.2808 17.4078 36.2183 17.1086 36.0582C16.8093 35.898 16.5678 35.6481 16.4178 35.3436C16.2678 35.0391 16.2169 34.6953 16.2723 34.3605C16.3276 34.0256 16.4865 33.7165 16.7265 33.4765C16.9665 33.2365 17.2756 33.0776 17.6105 33.0223C17.9453 32.9669 18.2891 33.0178 18.5936 33.1678C18.8981 33.3178 19.148 33.5593 19.3082 33.8586C19.4683 34.1578 19.5308 34.4997 19.4868 34.8363C19.4403 35.1914 19.2778 35.5213 19.0246 35.7746C18.7713 36.0278 18.4414 36.1903 18.0863 36.2368ZM18.0863 28.1118C17.7497 28.1558 17.4078 28.0933 17.1086 27.9332C16.8093 27.773 16.5678 27.5231 16.4178 27.2186C16.2678 26.9141 16.2169 26.5703 16.2723 26.2355C16.3276 25.9006 16.4865 25.5915 16.7265 25.3515C16.9665 25.1115 17.2756 24.9526 17.6105 24.8973C17.9453 24.8419 18.2891 24.8928 18.5936 25.0428C18.8981 25.1928 19.148 25.4343 19.3082 25.7336C19.4683 26.0328 19.5308 26.3747 19.4868 26.7112C19.4403 27.0664 19.2778 27.3963 19.0246 27.6496C18.7713 27.9028 18.4414 28.0653 18.0863 28.1118ZM18.0863 19.9868C17.7497 20.0308 17.4078 19.9683 17.1086 19.8082C16.8093 19.648 16.5678 19.3981 16.4178 19.0936C16.2678 18.7891 16.2169 18.4453 16.2723 18.1105C16.3276 17.7756 16.4865 17.4665 16.7265 17.2265C16.9665 16.9865 17.2756 16.8276 17.6105 16.7723C17.9453 16.7169 18.2891 16.7678 18.5936 16.9178C18.8981 17.0678 19.148 17.3093 19.3082 17.6086C19.4683 17.9078 19.5308 18.2497 19.4868 18.5863C19.4403 18.9414 19.2778 19.2713 19.0246 19.5246C18.7713 19.7778 18.4414 19.9403 18.0863 19.9868ZM18.0863 11.8618C17.7497 11.9058 17.4078 11.8433 17.1086 11.6832C16.8093 11.523 16.5678 11.2731 16.4178 10.9686C16.2678 10.6641 16.2169 10.3203 16.2723 9.98547C16.3276 9.6506 16.4865 9.34147 16.7265 9.10147C16.9665 8.86147 17.2756 8.70264 17.6105 8.64728C17.9453 8.59192 18.2891 8.64281 18.5936 8.79279C18.8981 8.94278 19.148 9.18435 19.3082 9.48358C19.4683 9.78282 19.5308 10.1247 19.4868 10.4613C19.4403 10.8164 19.2778 11.1463 19.0246 11.3996C18.7713 11.6528 18.4414 11.8153 18.0863 11.8618ZM26.2112 44.3618C25.8747 44.4058 25.5328 44.3433 25.2336 44.1832C24.9343 44.023 24.6928 43.7731 24.5428 43.4686C24.3928 43.1641 24.3419 42.8203 24.3973 42.4855C24.4526 42.1506 24.6115 41.8415 24.8515 41.6015C25.0915 41.3615 25.4006 41.2026 25.7355 41.1473C26.0703 41.0919 26.4141 41.1428 26.7186 41.2928C27.0231 41.4428 27.273 41.6843 27.4332 41.9836C27.5933 42.2828 27.6558 42.6247 27.6118 42.9613C27.5653 43.3164 27.4028 43.6463 27.1496 43.8996C26.8963 44.1528 26.5664 44.3153 26.2112 44.3618ZM26.2112 36.2368C25.8747 36.2808 25.5328 36.2183 25.2336 36.0582C24.9343 35.898 24.6928 35.6481 24.5428 35.3436C24.3928 35.0391 24.3419 34.6953 24.3973 34.3605C24.4526 34.0256 24.6115 33.7165 24.8515 33.4765C25.0915 33.2365 25.4006 33.0776 25.7355 33.0223C26.0703 32.9669 26.4141 33.0178 26.7186 33.1678C27.0231 33.3178 27.273 33.5593 27.4332 33.8586C27.5933 34.1578 27.6558 34.4997 27.6118 34.8363C27.5653 35.1914 27.4028 35.5213 27.1496 35.7746C26.8963 36.0278 26.5664 36.1903 26.2112 36.2368ZM26.2112 28.1118C25.8747 28.1558 25.5328 28.0933 25.2336 27.9332C24.9343 27.773 24.6928 27.5231 24.5428 27.2186C24.3928 26.9141 24.3419 26.5703 24.3973 26.2355C24.4526 25.9006 24.6115 25.5915 24.8515 25.3515C25.0915 25.1115 25.4006 24.9526 25.7355 24.8973C26.0703 24.8419 26.4141 24.8928 26.7186 25.0428C27.0231 25.1928 27.273 25.4343 27.4332 25.7336C27.5933 26.0328 27.6558 26.3747 27.6118 26.7112C27.5653 27.0664 27.4028 27.3963 27.1496 27.6496C26.8963 27.9028 26.5664 28.0653 26.2112 28.1118ZM26.2112 19.9868C25.8747 20.0308 25.5328 19.9683 25.2336 19.8082C24.9343 19.648 24.6928 19.3981 24.5428 19.0936C24.3928 18.7891 24.3419 18.4453 24.3973 18.1105C24.4526 17.7756 24.6115 17.4665 24.8515 17.2265C25.0915 16.9865 25.4006 16.8276 25.7355 16.7723C26.0703 16.7169 26.4141 16.7678 26.7186 16.9178C27.0231 17.0678 27.273 17.3093 27.4332 17.6086C27.5933 17.9078 27.6558 18.2497 27.6118 18.5863C27.5653 18.9414 27.4028 19.2713 27.1496 19.5246C26.8963 19.7778 26.5664 19.9403 26.2112 19.9868ZM26.2112 11.8618C25.8747 11.9058 25.5328 11.8433 25.2336 11.6832C24.9343 11.523 24.6928 11.2731 24.5428 10.9686C24.3928 10.6641 24.3419 10.3203 24.3973 9.98547C24.4526 9.6506 24.6115 9.34147 24.8515 9.10147C25.0915 8.86147 25.4006 8.70264 25.7355 8.64728C26.0703 8.59192 26.4141 8.64281 26.7186 8.79279C27.0231 8.94278 27.273 9.18435 27.4332 9.48358C27.5933 9.78282 27.6558 10.1247 27.6118 10.4613C27.5653 10.8164 27.4028 11.1463 27.1496 11.3996C26.8963 11.6528 26.5664 11.8153 26.2112 11.8618ZM45.0938 47.625H32.5V21.625H43.875C44.306 21.625 44.7193 21.7962 45.024 22.101C45.3288 22.4057 45.5 22.819 45.5 23.25V47.2188C45.5 47.3265 45.4572 47.4298 45.381 47.506C45.3048 47.5822 45.2015 47.625 45.0938 47.625Z" fill="#7053C1"/>
  <path d="M40.625 41.125C40.3036 41.125 39.9894 41.2203 39.7222 41.3989C39.455 41.5774 39.2467 41.8312 39.1237 42.1281C39.0007 42.4251 38.9685 42.7518 39.0312 43.067C39.0939 43.3822 39.2487 43.6718 39.476 43.899C39.7032 44.1263 39.9928 44.2811 40.308 44.3438C40.6232 44.4065 40.9499 44.3743 41.2469 44.2513C41.5438 44.1283 41.7976 43.92 41.9761 43.6528C42.1547 43.3856 42.25 43.0714 42.25 42.75C42.25 42.319 42.0788 41.9057 41.774 41.6009C41.4693 41.2962 41.056 41.125 40.625 41.125ZM40.625 33C40.3036 33 39.9894 33.0953 39.7222 33.2739C39.455 33.4524 39.2467 33.7062 39.1237 34.0031C39.0007 34.3001 38.9685 34.6268 39.0312 34.942C39.0939 35.2572 39.2487 35.5468 39.476 35.774C39.7032 36.0013 39.9928 36.1561 40.308 36.2188C40.6232 36.2815 40.9499 36.2493 41.2469 36.1263C41.5438 36.0033 41.7976 35.795 41.9761 35.5278C42.1547 35.2606 42.25 34.9464 42.25 34.625C42.25 34.194 42.0788 33.7807 41.774 33.4759C41.4693 33.1712 41.056 33 40.625 33ZM40.625 24.875C40.3036 24.875 39.9894 24.9703 39.7222 25.1489C39.455 25.3274 39.2467 25.5812 39.1237 25.8781C39.0007 26.1751 38.9685 26.5018 39.0312 26.817C39.0939 27.1322 39.2487 27.4218 39.476 27.649C39.7032 27.8763 39.9928 28.0311 40.308 28.0938C40.6232 28.1565 40.9499 28.1243 41.2469 28.0013C41.5438 27.8783 41.7976 27.67 41.9761 27.4028C42.1547 27.1356 42.25 26.8214 42.25 26.5C42.25 26.069 42.0788 25.6557 41.774 25.351C41.4693 25.0462 41.056 24.875 40.625 24.875ZM34.125 41.125C33.8036 41.125 33.4894 41.2203 33.2222 41.3989C32.955 41.5774 32.7467 41.8312 32.6237 42.1281C32.5007 42.4251 32.4685 42.7518 32.5312 43.067C32.5939 43.3822 32.7487 43.6718 32.976 43.899C33.2032 44.1263 33.4928 44.2811 33.808 44.3438C34.1232 44.4065 34.4499 44.3743 34.7469 44.2513C35.0438 44.1283 35.2976 43.92 35.4761 43.6528C35.6547 43.3856 35.75 43.0714 35.75 42.75C35.75 42.319 35.5788 41.9057 35.2741 41.6009C34.9693 41.2962 34.556 41.125 34.125 41.125ZM34.125 33C33.8036 33 33.4894 33.0953 33.2222 33.2739C32.955 33.4524 32.7467 33.7062 32.6237 34.0031C32.5007 34.3001 32.4685 34.6268 32.5312 34.942C32.5939 35.2572 32.7487 35.5468 32.976 35.774C33.2032 36.0013 33.4928 36.1561 33.808 36.2188C34.1232 36.2815 34.4499 36.2493 34.7469 36.1263C35.0438 36.0033 35.2976 35.795 35.4761 35.5278C35.6547 35.2606 35.75 34.9464 35.75 34.625C35.75 34.194 35.5788 33.7807 35.2741 33.4759C34.9693 33.1712 34.556 33 34.125 33ZM34.125 24.875C33.8036 24.875 33.4894 24.9703 33.2222 25.1489C32.955 25.3274 32.7467 25.5812 32.6237 25.8781C32.5007 26.1751 32.4685 26.5018 32.5312 26.817C32.5939 27.1322 32.7487 27.4218 32.976 27.649C33.2032 27.8763 33.4928 28.0311 33.808 28.0938C34.1232 28.1565 34.4499 28.1243 34.7469 28.0013C35.0438 27.8783 35.2976 27.67 35.4761 27.4028C35.6547 27.1356 35.75 26.8214 35.75 26.5C35.75 26.069 35.5788 25.6557 35.2741 25.351C34.9693 25.0462 34.556 24.875 34.125 24.875Z" fill="#14532D"/>
</svg>