<svg xmlns="http://www.w3.org/2000/svg" width="16" height="17" viewBox="0 0 16 17" fill="none">
  <path opacity="0.5" d="M3.33338 12.0516C3.23114 12.0517 3.13133 12.0204 3.04741 11.962C2.96349 11.9036 2.89948 11.8209 2.86403 11.725C2.82858 11.6291 2.82338 11.5246 2.84913 11.4257C2.87488 11.3267 2.93034 11.238 3.00805 11.1716L7.67471 7.17159C7.76533 7.09395 7.88072 7.05127 8.00005 7.05127C8.11937 7.05127 8.23477 7.09395 8.32538 7.17159L12.992 11.1716C13.0698 11.238 13.1252 11.3267 13.151 11.4257C13.1767 11.5246 13.1715 11.6291 13.1361 11.725C13.1006 11.8209 13.0366 11.9036 12.9527 11.962C12.8688 12.0204 12.769 12.0517 12.6667 12.0516H3.33338Z" fill="#22C55E"/>
  <path fill-rule="evenodd" clip-rule="evenodd" d="M2.95337 9.21024C2.99612 9.26012 3.04828 9.30109 3.10688 9.3308C3.16547 9.36051 3.22934 9.37839 3.29484 9.3834C3.36035 9.38842 3.4262 9.38047 3.48863 9.36003C3.55106 9.33958 3.60885 9.30703 3.6587 9.26424L8.00003 5.54357L12.3414 9.26424C12.3908 9.30951 12.4488 9.34437 12.512 9.36677C12.5752 9.38916 12.6422 9.39862 12.7091 9.39459C12.776 9.39055 12.8415 9.37311 12.9015 9.34329C12.9615 9.31346 13.0149 9.27188 13.0586 9.221C13.1022 9.17012 13.1352 9.11098 13.1555 9.04711C13.1758 8.98323 13.1831 8.91593 13.1769 8.84918C13.1707 8.78244 13.1511 8.71763 13.1194 8.6586C13.0876 8.59957 13.0443 8.54753 12.992 8.50557L8.32537 4.50557C8.23476 4.42793 8.11936 4.38525 8.00003 4.38525C7.88071 4.38525 7.76531 4.42793 7.6747 4.50557L3.00804 8.50557C2.90749 8.59189 2.84533 8.7146 2.8352 8.84673C2.82508 8.97886 2.86782 9.1096 2.95404 9.21024" fill="#22C55E"/>
</svg>