<?xml version="1.0" standalone="no"?>
<svg version="1.0" xmlns="http://www.w3.org/2000/svg"
 width="32.000000pt" height="32.000000pt" viewBox="0 0 32.000000 32.000000"
 preserveAspectRatio="xMidYMid meet">

<g transform="translate(0.000000,32.000000) scale(0.100000,-0.100000)"
fill="#000000" stroke="none">
<path d="M115 310 c-16 -7 -11 -9 23 -9 23 -1 42 -5 42 -10 0 -16 -18 -22 -23
-9 -2 7 -8 10 -12 5 -5 -4 -4 -12 2 -18 9 -9 3 -19 -20 -38 -17 -14 -37 -25
-44 -23 -7 2 -13 -3 -13 -10 1 -24 27 -48 53 -48 14 0 32 -7 41 -15 8 -8 22
-15 30 -15 26 0 19 -19 -22 -61 -39 -39 -52 -41 -52 -7 0 10 -7 30 -16 44 -9
13 -14 28 -10 31 3 4 -5 18 -18 32 -37 41 -40 63 -10 106 26 38 26 39 2 24
-12 -9 -33 -35 -46 -60 -39 -75 -11 -163 66 -207 64 -36 128 -25 181 32 33 35
38 112 6 100 -17 -7 -24 6 -29 57 -3 23 -10 46 -18 50 -10 7 -10 9 0 9 7 0 4
8 -9 21 -23 23 -74 33 -104 19z"/>
</g>
</svg>
