<svg id="Layer_1" data-name="Layer 1" xmlns="http://www.w3.org/2000/svg" viewBox="0 0 56 43"><defs><style>.cls-1{fill:#dedede;}</style></defs><path class="cls-1" d="M42.08,40.38l-3.89-3.89-5.4-.25-4.5,4.5a1.26,1.26,0,0,1-.86.36,1.22,1.22,0,0,1-.85-.36l-5.49-5.51a1.2,1.2,0,0,1,0-1.71L40,14.59a1.25,1.25,0,0,1,1.72,0l5.51,5.51a1.24,1.24,0,0,1,.35.86,1.21,1.21,0,0,1-.35.85l-4.5,4.5L43,31.72l5.8,5.81V0H12.2V21.84a2.15,2.15,0,0,1,1.13.71,1.84,1.84,0,0,1,.47.68l1.26,3.42,3.28,1.13a2.1,2.1,0,0,1,.65.38,2.16,2.16,0,0,1,.68,1,2.19,2.19,0,0,1,0,1.34,2.14,2.14,0,0,1-.2.4,1,1,0,0,1-.09.18c0,.06-.1.1-.14.15a2.18,2.18,0,0,1-.9.65l-.88.32a2,2,0,0,1-.46.29l-2.08.78L14,35.84l-.2.58a2.1,2.1,0,0,1-.45.71l-.11.11a2.19,2.19,0,0,1-.59.4l-.07,0-.07,0-.21.07-.1,0V43H44.68ZM31.83,11.14a1.21,1.21,0,0,1,1.71,0l2,2a1.23,1.23,0,0,1,0,1.72,1.25,1.25,0,0,1-.86.35,1.18,1.18,0,0,1-.85-.36l-2-2a1.2,1.2,0,0,1,0-1.71ZM26.58,6.22a1.22,1.22,0,0,1,1.71-.11h0l1.26,1.1a1.22,1.22,0,0,1,.11,1.71h0A1.21,1.21,0,0,1,28,9.05h0L26.69,7.93A1.22,1.22,0,0,1,26.58,6.22Zm-7.4,13.34a1.21,1.21,0,0,1-1.71,0h0L16.9,19a1.23,1.23,0,0,1,0-1.72h0a1.2,1.2,0,0,1,1.7,0h0l.57.57A1.2,1.2,0,0,1,19.18,19.56ZM18.44,9.5a1.21,1.21,0,0,1,1.72-1.71l9.08,9.09a1.2,1.2,0,0,1,0,1.71,1.13,1.13,0,0,1-.85.35,1.15,1.15,0,0,1-.86-.35ZM20.5,20.88a1.2,1.2,0,0,1,1.71,0l2.46,2.46A1.21,1.21,0,0,1,23,25.05h0L20.5,22.59A1.2,1.2,0,0,1,20.5,20.88Z"/><path class="cls-1" d="M49.13,42.66a1,1,0,0,0,.28-.68,1,1,0,0,0-.27-.67L41.82,34l-1.35,1.35,3.26,3.27,4.05,4a1,1,0,0,0,1.35,0ZM13.25,31.42h0a2.18,2.18,0,0,1,.8-.54L16.55,30l.35-.13-2.82-1a2.06,2.06,0,0,1-1.1-1,2.9,2.9,0,0,1-.19-.29v0h0l-1.11-3-1,3a2.18,2.18,0,0,1-1.3,1.29l-2.81,1,2.82,1a2.18,2.18,0,0,1,1.29,1.3l1,2.81,1-2.82a1.78,1.78,0,0,1,.46-.74ZM44.65,21l-3.8-3.8L23.66,34.37l3.78,3.8,4-4a1.13,1.13,0,0,1,.92-.35l5.88.27,2.3-2.32-.27-5.86a1.2,1.2,0,0,1,.35-.92Z"/></svg>