<svg id="Layer_1" data-name="Layer 1" xmlns="http://www.w3.org/2000/svg" viewBox="0 0 56 43"><defs><style>.cls-1{fill:#dedede;}</style></defs><path class="cls-1" d="M50.29,4.56V3H45.68V1.49h-20a5.13,5.13,0,0,0,1.71.79.77.77,0,0,1,.06,1.47A5.82,5.82,0,0,0,23.82,7.3l-.49,1.37a.76.76,0,0,1-1,.46.8.8,0,0,1-.46-.46L21.4,7.3a5.78,5.78,0,0,0-3.64-3.55.77.77,0,0,1-.48-1,.75.75,0,0,1,.54-.5,5.33,5.33,0,0,0,1.71-.79H10.31V3H5.7V4.56h4.61V6.1H5.7V7.64h4.61V9.18H5.7v1.53h4.61v1.54H5.7v1.54h4.61v1.54H5.7v1.53h4.61V18.4H5.7v1.54h4.61v1.54H5.7V23h4.61v1.54H5.7v1.54h4.61v1.54H25.69V26.09h-.77a.78.78,0,0,1-.77-.77V23.78H18a.77.77,0,0,1-.77-.77V15.33a.77.77,0,0,1,.77-.77H34.28a5.81,5.81,0,0,0-3.45-3.12.76.76,0,0,1-.48-1,.77.77,0,0,1,.54-.5A5,5,0,0,0,34.42,6.7L35,5.09a.77.77,0,0,1,1.46,0L37,6.7A5,5,0,0,0,40.5,10a.77.77,0,0,1,.55.94.73.73,0,0,1-.5.53,5.82,5.82,0,0,0-3.46,3.12H38a.77.77,0,0,1,.77.77V23a.77.77,0,0,1-.77.77H31.85v1.54a.78.78,0,0,1-.77.77h-.77v1.54H45.69V26.09H50.3V24.55H45.69V23H50.3V21.48H45.69V19.94H50.3V18.4H45.69V16.86H50.3V15.33H45.69V13.79H50.3V12.25H45.69V10.71H50.3V9.18H45.69V7.64H50.3V6.1H45.69V4.56Z"/><path class="cls-1" d="M38.4,10.77A6.49,6.49,0,0,1,35.68,7.7,6.55,6.55,0,0,1,33,10.77a7.33,7.33,0,0,1,2.72,3.14A7.39,7.39,0,0,1,38.4,10.77ZM22.61,6.22a7.42,7.42,0,0,1,2.72-3.15A6.45,6.45,0,0,1,22.61,0a6.4,6.4,0,0,1-2.72,3.07A7.29,7.29,0,0,1,22.61,6.22Zm-3.84,16h5.38V20.71a.77.77,0,0,1,.77-.77h6.15a.77.77,0,0,1,.77.77v1.53h5.38V16.09H36.5l-.1.26a.76.76,0,0,1-1,.47.79.79,0,0,1-.46-.47l-.09-.26H18.77Z"/><path class="cls-1" d="M25.69,21.48H30.3v3.07H25.69Zm1.54,4.61h1.53v12.3H27.23Zm0,13.84h1.53V43H27.23Z"/></svg>