<svg id="Layer_1" data-name="Layer 1" xmlns="http://www.w3.org/2000/svg" viewBox="0 0 56 43"><defs><style>.cls-1{fill:#dedede;}</style></defs><path class="cls-1" d="M28,22.93H23.7v8.6H28v10a1.44,1.44,0,0,0,2.87,0V25.8A2.88,2.88,0,0,0,28,22.93Zm-17.2-8.6h1.43a2.87,2.87,0,0,0,2.87-2.86V2.87A2.88,2.88,0,0,0,12.23,0H10.8A2.88,2.88,0,0,0,7.93,2.87v38.7a1.44,1.44,0,0,0,2.87,0v-10H18v-8.6H10.8Z"/><path class="cls-1" d="M48.07,40.13V14.33a1.43,1.43,0,0,0,0-2.86H19.4a1.43,1.43,0,0,0,0,2.86v25.8H7.93a1.44,1.44,0,0,0,0,2.87H48.07a1.44,1.44,0,0,0,0-2.87ZM22.27,20.07H45.2V40.13H22.27Z"/></svg>