<svg id="Layer_1" data-name="Layer 1" xmlns="http://www.w3.org/2000/svg" viewBox="0 0 56 43"><defs><style>.cls-1{fill:#dedede;}</style></defs><path class="cls-1" d="M32.87,13.82a5.64,5.64,0,0,0-5.64-5.63H19a5.64,5.64,0,0,0-5.63,5.63v25.6A3.58,3.58,0,0,0,17,43H29.28a3.58,3.58,0,0,0,3.58-3.58V13.82Zm-8.2,10.75V23a1.54,1.54,0,1,0-3.07,0v1.53H20.06a1.54,1.54,0,0,0,0,3.07H21.6v1.54a1.54,1.54,0,0,0,3.07,0V27.64h1.54a1.54,1.54,0,0,0,0-3.07Z"/><circle class="cls-1" cx="32.87" cy="6.14" r="1.54"/><circle class="cls-1" cx="36.96" cy="8.2" r="1.54"/><circle class="cls-1" cx="41.05" cy="10.24" r="1.54"/><circle class="cls-1" cx="36.96" cy="4.1" r="1.54"/><circle class="cls-1" cx="41.05" cy="6.14" r="1.54"/><circle class="cls-1" cx="41.05" cy="2.05" r="1.54"/><path class="cls-1" d="M28.77,7.17H25.19a1.54,1.54,0,1,1,0-3.07h3.58V1.54A1.54,1.54,0,0,0,27.23,0H19a1.54,1.54,0,0,0-1.53,1.54V9.72A1.54,1.54,0,0,0,19,11.26h8.19a1.54,1.54,0,0,0,1.54-1.54Z"/></svg>