<svg id="Layer_1" data-name="Layer 1" xmlns="http://www.w3.org/2000/svg" viewBox="0 0 56 43"><defs><style>.cls-1{fill:#dedede;}</style></defs><path class="cls-1" d="M40.53,0H15.46a3.59,3.59,0,0,0-3.59,3.59V39.41A3.59,3.59,0,0,0,15.46,43H40.54a3.59,3.59,0,0,0,3.59-3.59V3.59A3.6,3.6,0,0,0,40.53,0ZM22.62,3.59A3.58,3.58,0,1,1,19,7.16,3.58,3.58,0,0,1,22.62,3.59ZM29.78,26a.89.89,0,0,1-.89.9H27.1V38.52a.9.9,0,0,1-.9.89H19a.89.89,0,0,1-.9-.89h0V26.87H16.35a.9.9,0,0,1-.9-.9h0V15.46A2.65,2.65,0,0,1,17,13a14.62,14.62,0,0,1,5.57-1.36A14.67,14.67,0,0,1,28.19,13a2.67,2.67,0,0,1,1.59,2.45V26Zm10.49-1.16L36.69,28.4a.89.89,0,0,1-.63.26.86.86,0,0,1-.63-.26l-3.59-3.59a.9.9,0,0,1-.19-1,.88.88,0,0,1,.83-.56h7.16a.9.9,0,0,1,.83.56.88.88,0,0,1-.2,1Zm.2-5.66a.9.9,0,0,1-.84.56H32.47a.9.9,0,0,1-.83-.56.91.91,0,0,1,.19-1l3.59-3.59a.9.9,0,0,1,1.27,0l3.58,3.59a.88.88,0,0,1,.2,1Z"/></svg>