<svg version="1.1" id="Layer_1" xmlns="http://www.w3.org/2000/svg" xmlns:xlink="http://www.w3.org/1999/xlink" x="0px" y="0px"
	 viewBox="0 0 56 43" style="enable-background:new 0 0 56 43;" xml:space="preserve">
<style type="text/css">
	.st0{fill:#DEDEDE;}
</style>
<g>
	<path class="st0" d="M14.1,15.8c0.6,7.1,6.6,12.7,13.9,12.7s13.3-5.6,13.9-12.7H14.1z M37.6,41.5l-2.3-12.1c-0.8,0.4-1.6,0.7-2.4,1
		l0.7,3.4H22.5l0.7-3.4c-0.8-0.3-1.6-0.6-2.4-1l-2.3,12.1c-0.1,0.7,0.3,1.4,1,1.5c0.1,0,0.2,0,0.2,0c0.6,0,1.1-0.4,1.2-1l1.1-5.7H34
		l1.1,5.7c0.1,0.6,0.6,1,1.2,1c0.1,0,0.2,0,0.2,0C37.3,42.8,37.8,42.2,37.6,41.5L37.6,41.5z M23.1,6.6c0.3-0.3,1-1.1,1.3-2.3
		c0.2-1,0.2-2.4-1.3-3.9c-0.5-0.5-1.3-0.5-1.8,0c-0.5,0.5-0.5,1.3,0,1.8C22,2.8,22,3.4,21.9,3.7c-0.1,0.6-0.5,1-0.6,1.1
		c-0.3,0.3-1,1.1-1.3,2.3c-0.2,1-0.2,2.4,1.3,3.9c0.2,0.2,0.6,0.4,0.9,0.4c0.3,0,0.7-0.1,0.9-0.4c0.5-0.5,0.5-1.3,0-1.8
		c-0.7-0.7-0.7-1.2-0.6-1.5C22.6,7.1,23,6.7,23.1,6.6L23.1,6.6z M28.9,6.6c0.3-0.3,1-1.1,1.3-2.3c0.2-1,0.2-2.4-1.3-3.9
		c-0.5-0.5-1.3-0.5-1.8,0c-0.5,0.5-0.5,1.3,0,1.8c0.7,0.7,0.7,1.2,0.6,1.5c-0.1,0.6-0.5,1-0.6,1.1c-0.3,0.3-1,1.1-1.3,2.3
		c-0.2,1-0.2,2.4,1.3,3.9c0.2,0.2,0.6,0.4,0.9,0.4c0.3,0,0.7-0.1,0.9-0.4c0.5-0.5,0.5-1.3,0-1.8c-0.7-0.7-0.7-1.2-0.6-1.5
		C28.4,7.1,28.8,6.7,28.9,6.6L28.9,6.6z M34.7,6.6c0.3-0.3,1-1.1,1.3-2.3c0.2-1,0.2-2.4-1.3-3.9c-0.5-0.5-1.3-0.5-1.8,0
		c-0.5,0.5-0.5,1.3,0,1.8c0.7,0.7,0.7,1.2,0.6,1.5c-0.1,0.6-0.5,1-0.6,1.1c-0.3,0.3-1,1.1-1.3,2.3c-0.2,1-0.2,2.4,1.3,3.9
		c0.2,0.2,0.6,0.4,0.9,0.4c0.3,0,0.7-0.1,0.9-0.4c0.5-0.5,0.5-1.3,0-1.8C34,8.5,34,8,34.1,7.7C34.2,7.1,34.6,6.7,34.7,6.6z"/>
</g>
</svg>
