<svg id="Layer_1" data-name="Layer 1" xmlns="http://www.w3.org/2000/svg" viewBox="0 0 56 43"><defs><style>.cls-1{fill:#dedede;}</style></defs><path class="cls-1" d="M48.21,26.21l-4-3.09a15.63,15.63,0,0,0,.09-1.62,15.84,15.84,0,0,0-.09-1.63l4-3.09a1.94,1.94,0,0,0,.46-2.47L44.57,7.2a1.9,1.9,0,0,0-2.37-.85L37.53,8.22a15.76,15.76,0,0,0-2.8-1.62L34,1.65A1.9,1.9,0,0,0,32.12,0H23.88A1.89,1.89,0,0,0,22,1.63l-.72,5a16.74,16.74,0,0,0-2.79,1.62L13.8,6.35a2,2,0,0,0-2.36.84L7.33,14.31a1.92,1.92,0,0,0,.46,2.48l4,3.09a13.17,13.17,0,0,0,0,3.24l-4,3.1a1.94,1.94,0,0,0-.47,2.46l4.11,7.12a1.91,1.91,0,0,0,2.38.85l4.67-1.87a15.68,15.68,0,0,0,2.79,1.62l.71,5A1.91,1.91,0,0,0,23.88,43h8.24A1.9,1.9,0,0,0,34,41.37l.71-5a16.82,16.82,0,0,0,2.8-1.62l4.67,1.87a2,2,0,0,0,.71.14,1.88,1.88,0,0,0,1.65-1l4.13-7.15a1.94,1.94,0,0,0-.48-2.46ZM28,28.67a7.17,7.17,0,1,1,7.17-7.17A7.18,7.18,0,0,1,28,28.67Z"/></svg>