<svg xmlns="http://www.w3.org/2000/svg" version="1.1" xmlns:xlink="http://www.w3.org/1999/xlink" xmlns:svgjs="http://svgjs.com/svgjs" width="512" height="512" x="0" y="0" viewBox="0 0 128 128" style="enable-background:new 0 0 512 512" xml:space="preserve" class=""><g><path d="m127.121 52.13-14.2-27.039a24.052 24.052 0 0 0-12.548-11.341c-2.364-.912-8.783-3.151-10.989-3.917a4.393 4.393 0 0 0-.546-1.053l-3.715-5.261C83.223.83 81.038.738 79.911.921a95.959 95.959 0 0 1-15.926 1.153A95.416 95.416 0 0 1 48.09.921c-1.131-.183-3.314-.091-5.213 2.6L39.162 8.78a4.429 4.429 0 0 0-.546 1.053c-2.206.766-8.625 3-10.989 3.917a24.052 24.052 0 0 0-12.549 11.341L.879 52.13a3.5 3.5 0 0 0 1.81 4.881l21.1 8.546a2 2 0 0 1 1.245 1.976l-3.4 55.752A3.5 3.5 0 0 0 25.125 127h77.75a3.5 3.5 0 0 0 3.493-3.713l-3.4-55.727a2 2 0 0 1 1.244-1.975l21.08-8.564a3.5 3.5 0 0 0 1.829-4.889ZM48.836 4.1c3.515.328 10.918 1.023 15.149.979 4.3.044 11.7-.691 15.2-1.007a1 1 0 0 1 .931 1.528c-3.355 4.943-9.776 9.44-15.655 12.489a1 1 0 0 1-.922 0c-5.868-3.04-12.277-7.525-15.639-12.458a1 1 0 0 1 .936-1.531ZM38.649 13c.024.064.041.129.068.191a39.381 39.381 0 0 0 9.7 13.665 6.422 6.422 0 0 0 8.7-.058l6.232-5.439a1 1 0 0 1 1.315 0l6.2 5.407a6.433 6.433 0 0 0 8.732.09 39.381 39.381 0 0 0 9.7-13.665c.027-.062.044-.127.068-.19.78.271 1.769.617 2.826.988l.016.036A42.521 42.521 0 0 1 81.59 29.08a9.4 9.4 0 0 1-10.49 1.466 12.143 12.143 0 0 1-1.545-1.015.5.5 0 0 0-.8.4v5.459a2.379 2.379 0 0 1-2.38 2.38H61.62a2.379 2.379 0 0 1-2.38-2.38v-5.441a.5.5 0 0 0-.8-.4 11.786 11.786 0 0 1-1.368.917A9.432 9.432 0 0 1 46.41 29.08a42.521 42.521 0 0 1-10.6-15.057l.016-.036c1.054-.371 2.043-.717 2.823-.987Z" fill="#7700AA" data-original="#000000" class=""></path><circle cx="64" cy="27.633" r="1.735" fill="#7700AA" data-original="#000000" class=""></circle></g></svg>