<svg width="69" height="69" viewBox="0 0 69 69" fill="none" xmlns="http://www.w3.org/2000/svg">
<path d="M10 27.25C7.925 27.25 6.25 28.925 6.25 31C6.25 33.075 7.925 34.75 10 34.75C12.075 34.75 13.75 33.075 13.75 31C13.75 28.925 12.075 27.25 10 27.25ZM10 12.25C7.925 12.25 6.25 13.925 6.25 16C6.25 18.075 7.925 19.75 10 19.75C12.075 19.75 13.75 18.075 13.75 16C13.75 13.925 12.075 12.25 10 12.25ZM10 42.25C7.925 42.25 6.25 43.95 6.25 46C6.25 48.05 7.95 49.75 10 49.75C12.05 49.75 13.75 48.05 13.75 46C13.75 43.95 12.075 42.25 10 42.25ZM17.5 48.5H52.5V43.5H17.5V48.5ZM17.5 33.5H52.5V28.5H17.5V33.5ZM17.5 13.5V18.5H52.5V13.5H17.5Z" fill="#22C55E"/>
<g opacity="0.2" filter="url(#filter0_f_51_224)">
<path d="M14.7737 30.7738C12.6987 30.7738 11.0237 32.4488 11.0237 34.5238C11.0237 36.5988 12.6987 38.2738 14.7737 38.2738C16.8487 38.2738 18.5237 36.5988 18.5237 34.5238C18.5237 32.4488 16.8487 30.7738 14.7737 30.7738ZM14.7737 15.7738C12.6987 15.7738 11.0237 17.4488 11.0237 19.5238C11.0237 21.5988 12.6987 23.2738 14.7737 23.2738C16.8487 23.2738 18.5237 21.5988 18.5237 19.5238C18.5237 17.4488 16.8487 15.7738 14.7737 15.7738ZM14.7737 45.7738C12.6987 45.7738 11.0237 47.4738 11.0237 49.5238C11.0237 51.5738 12.7237 53.2738 14.7737 53.2738C16.8237 53.2738 18.5237 51.5738 18.5237 49.5238C18.5237 47.4738 16.8487 45.7738 14.7737 45.7738ZM22.2737 52.0238H57.2737V47.0238H22.2737V52.0238ZM22.2737 37.0238H57.2737V32.0238H22.2737V37.0238ZM22.2737 17.0238V22.0238H57.2737V17.0238H22.2737Z" fill="#22C55E"/>
</g>
<defs>
<filter id="filter0_f_51_224" x="0.773682" y="0.523804" width="68" height="68" filterUnits="userSpaceOnUse" color-interpolation-filters="sRGB">
<feFlood flood-opacity="0" result="BackgroundImageFix"/>
<feBlend mode="normal" in="SourceGraphic" in2="BackgroundImageFix" result="shape"/>
<feGaussianBlur stdDeviation="2" result="effect1_foregroundBlur_51_224"/>
</filter>
</defs>
</svg>
