<svg id="Layer_1" data-name="Layer 1" xmlns="http://www.w3.org/2000/svg" viewBox="0 0 500 500"><defs><style>.cls-1{fill:#dedede;}</style></defs><path class="cls-1" d="M214.21,119.59c-.23-.57-.41-1-.55-1.29a8.67,8.67,0,0,1-.75-2.24c-6.9-41.21-43.17-71.12-84.45-71.12-2.69,0-5.39.12-8.11.38-45.28,4.3-76.9,41-76.92,89.3v3.9c0,74.88,0,152.31,0,228.47,0,51,37,88,87.89,88,74.94,0,151.12,0,224.8,0h96.32V271.12H436.91V439.25H183.62l4.94-7.08q2.2-3.15,4.32-6.26c4.07-5.94,7.92-11.54,12.27-17,2.41-3,6.71-3,10.16-2.94h1c51.21-.05,103.27-.05,153.61-.05h33.55V271.12H388V389.91H213.87V187.75h88.36V172.06h-87.5V138.44h87.5v-16H215.36ZM177.77,419.23a69.45,69.45,0,0,1-49.12,20.22h-.57A69.68,69.68,0,0,1,80,320a68.94,68.94,0,0,1,49.52-20.12A70,70,0,0,1,198.53,370,69.21,69.21,0,0,1,177.77,419.23ZM198.55,258.4q0,22.86,0,45.71a7,7,0,0,1-.63,2.74c-.08.19-.17.4-.26.67l-2.1,6.16-5-4.14c-41.46-34.21-82-34.08-123.86.38l-6.91,5.68-.45-8.93c0-.74-.07-1.4-.11-2-.08-1.26-.15-2.34-.15-3.48q0-24.27-.06-48.54c-.07-40.14-.15-81.64.21-122.48.25-29.52,14.6-51.46,41.5-63.45C126.76,55.09,152.4,59,174.8,78.11c15.29,13,23.45,30.35,23.58,50.08C198.66,171.6,198.6,215.73,198.55,258.4Z"/><path class="cls-1" d="M128.05,407.54a37.9,37.9,0,1,0,1.42-75.79h-.82a38.19,38.19,0,0,0-37.74,37.6A37.94,37.94,0,0,0,128.05,407.54ZM106.49,368.8c.48-12,11-21.84,22.92-21.45a22.7,22.7,0,0,1,21.67,22.72A22.41,22.41,0,0,1,128.76,392h-.1a22.42,22.42,0,0,1-22.17-23.16Z"/><path class="cls-1" d="M446.51,124.12c16.05,31.22,12.1,60.93-6,89.76,4.23,5.66,8.58,11.47,12.9,17.31a33.22,33.22,0,0,1,2.24,3.52c1.58,2.81,1,5.47-1.53,7-2.32,1.38-4.78.68-6.64-1.9-3.5-4.86-7-9.73-10.52-14.57-.88-1.2-1.93-2.27-3.1-3.64L431.31,224c-10.11,9.46-21.72,15.59-35.87,15.76a25.44,25.44,0,1,1,0-50.87c9.31.08,17.61,3.34,25.25,8.37,4.27,2.82,8.25,6.07,12.37,9.13,13.75-17.12,20.06-52.09,5.45-75.5L435.84,133q-67.45,53.76-134.9,107.5c-3,2.38-5.41,2.45-7.44.42s-1.93-4.42.47-7.43Q347.6,166.14,401.26,98.82c.53-.67,1.07-1.33,1.79-2.22A24.1,24.1,0,0,0,401,95.21a68.88,68.88,0,0,0-29.58-7.71c-.53,0-1.07,0-1.6,0-3.42-.16-5.55-2.14-5.42-5s2.24-4.62,5.49-4.61a78.87,78.87,0,0,1,33.79,7.93c1.93.92,3.8,2,6.06,3.13,6.14-7.59,14-12,24.16-10.94a24.67,24.67,0,0,1,16,8.1C459.87,96.92,458.7,109.71,446.51,124.12ZM426.45,115,425,116.3c-2.78,2.54-5.55,2.77-7.61.62s-1.71-4.91,1-7.6c3-3,6-6.1,9.1-9.07,2.29-2.2,4.86-2.33,6.9-.54s2.17,4.51.1,7.13c-.32.41-.67.79-1.09,1.28l7.16,7.77c7.38-5.66,8.6-15.6,2.92-22.57a15.66,15.66,0,0,0-22.61-1.89,61.54,61.54,0,0,0-6.76,7.3Q371.1,152,328.26,205.39a8,8,0,0,0-.75,1.42l.52.45,105.56-84.47Zm.65,99.54c-8-7.4-16.43-13.51-27.13-15.57-9-1.73-16.58,1.94-19.64,9.4-4.76,11.65,4.75,23.12,18,21.65C409.84,228.69,419,223,427.1,214.49Z"/></svg>