<svg id="Layer_1" data-name="Layer 1" xmlns="http://www.w3.org/2000/svg" viewBox="0 0 500 500"><defs><style>.cls-1{fill:#dedede;}</style></defs><path class="cls-1" d="M413.41,426.72C401.59,377.4,389.58,327.2,377.53,277q-22.84-95.16-45.76-190.32a46.31,46.31,0,0,0-2-7.15c-2.77-6.65-8-9.57-14.91-7.8-6.43,1.65-9.89,6.42-9.16,13.19.49,4.58,1.84,9.08,2.93,13.58,18.49,76,37.16,152,55.41,228.08,8.22,34.25-11.74,67.25-45.32,76.28a30.24,30.24,0,0,1-5.44,1.13c-11.24.88-21.92,1.31-30.72,11.16-3.88,4.33-13,5.28-19.83,5.42-27.85.58-55.72.25-83.58.25h-8.33c-.92,3.26-1.67,5.92-2.41,8.58A63.19,63.19,0,0,1,46.2,429c-1.4-5.52-3.17-7.94-9.13-9.11C22.23,417,12.37,404.55,12.28,389.3c-.21-35-.38-69.95,0-104.92C12.67,255.7,36.26,231.44,65,231c40.23-.63,80.51-1.1,120.72.17,60.69,1.91,108.6,51.94,111.89,115,.18,3.36.31,6.73.46,10,14.32,2.65,22.78-6.26,19.36-20.41q-21-87-42.34-174c-5-20.44-10-40.84-15-61.29-7.36-30.66,6.19-59.54,33.56-71.71,27.06-12,56.7-3,75.27,22.49,1.91,2.62,6.27,4.73,9.57,4.85,24,.82,28.43,4.19,34.18,27.74,2.72,11.12,6.4,22.13,7.69,33.41.86,7.49.8,17.26-3.26,22.76-15.43,20.89-14.68,41.56-8.29,65.86,18.56,70.56,34.59,141.8,51.43,212.81,1.46,6.15,3.19,10.14,10.58,11.47,9.76,1.74,16.67,10.79,16.88,20.8.54,26.81,2.32,25.65-23.54,25.44-19.81-.17-39.63-.28-59.44.07-8.87.15-13-3.57-11.83-12.17s1.7-17.87,5.15-25.67C400.17,433.85,407.26,431.25,413.41,426.72ZM29.25,301.91c33.63,0,66.7.16,99.77-.07,14.61-.1,26.33,5.1,35.77,16.26,10.58,12.52,21.23,25,32.52,36.89,4,4.25,9.93,9.2,15.17,9.44,22.74,1,45.55.44,68.22.44,8.85-62.44-38.53-117.5-101.61-118.35-34.65-.47-69.3-.11-103.95-.1C40.68,246.42,23.7,266.47,29.25,301.91ZM445.7,428.05c-.36-2.64-.48-4.77-1-6.81Q403.17,248,361.5,74.9C355.42,49.71,332.08,35,308.22,40.57c-24.57,5.77-39,29.46-32.9,54.9,9,37.9,18.36,75.73,27.59,113.58,10,40.85,20.07,81.67,29.92,122.55,5.33,22.1-6.34,38.66-28.89,41.65-1.79.24-3.57.59-5.41.9v14.44c32.43,2.09,57-25.31,50.48-56.14-4.81-22.67-10.7-45.12-16.19-67.65q-20.76-85.17-41.56-170.32c-4.77-19.6,3.85-35,21.33-38.58,16-3.31,29.71,6.65,34.11,25Q386.87,248.18,427,415.5C430.33,429.36,430.34,429.36,445.7,428.05Zm-164.58-46.7c-16.68,0-32.81-1-48.75.25-23.41,1.85-41.51-5.54-55.27-24.91-6.95-9.79-16-18.08-23.6-27.42-6.6-8.07-14.6-11.53-25-11.41-30.32.34-60.65.11-91,.14-3,0-5.91.26-9.28.42,0,24.35-.24,47.54.11,70.73C28.47,399.27,34.1,404,44,403.78c10.71-35.08,31.1-53.18,60.9-54,32.2-.93,51.94,15.37,66.43,55.37,29.72,0,59.71,0,89.7,0C277.13,405,282.44,399,281.12,381.35ZM60,412.76a47.11,47.11,0,0,0,46.75,47.57,47.6,47.6,0,0,0,48.23-47.24c.14-26.12-21.75-47.95-47.88-47.75A47.55,47.55,0,0,0,60,412.76ZM395,145.89c11.41-14,12.18-17.18,8.45-32.55-2.41-9.9-4.68-19.83-7.1-29.73-2.78-11.39-5.8-13.09-18.66-10C383.37,97.51,389.1,121.4,395,145.89Zm14.53,313.93h61.15c2.33-12.17.15-15-11.34-15.09q-18.93-.11-37.86,0C409.9,444.78,407.81,447.35,409.49,459.82Z"/><path class="cls-1" d="M130.65,278.11c-9.27,0-18.55,0-27.83,0-5.71,0-11.07-.85-10.94-8.08.12-6.56,5.05-7.63,10.49-7.62q28.75.06,57.51,0c5.44,0,10.36,1.07,10.48,7.63.13,7.23-5.24,8.09-11,8.07C149.82,278.08,140.24,278.11,130.65,278.11Z"/><path class="cls-1" d="M65.6,260.53c3.28,3.12,8.84,5.9,9.36,9.42,1.11,7.54-5.4,8.13-11.32,8.2-5.64.06-11.31-.58-11.5-7.5C51.94,263.16,57.67,262,65.6,260.53Z"/><path class="cls-1" d="M131.08,412.78a23.75,23.75,0,1,1-23.63-23.6A24,24,0,0,1,131.08,412.78Zm-24-10.74c-3.53,5.08-7.6,8.48-7,10.72.78,3.09,5,5.3,7.82,7.89,2.35-2.69,6.37-5.26,6.58-8.11C114.67,409.91,110.79,407,107.12,402Z"/></svg>