<svg id="Layer_1" data-name="Layer 1" xmlns="http://www.w3.org/2000/svg" viewBox="0 0 500 500"><defs><style>.cls-1,.cls-2{fill:#dedede;}.cls-2{stroke:#dedede;stroke-miterlimit:10;stroke-width:3px;}</style></defs><path class="cls-1" d="M279.6,340.71l5.41-9.28c21.09,11,42.2,11.77,63.08.5,15.88-8.57,26.41-21.85,31-39.35,9.58-36.58-13-72.86-49.52-79.83-38.27-7.29-69.94,19.89-74.93,50.38l16.5-16.69c2.79,2.91,5.23,5.48,7.47,7.82l-31,30.95-31.34-31.3,7.45-7.09,18.71,18.81c5.45-29.27,21.17-49.86,48.56-60.49,20.39-7.91,40.82-6.65,60.34,3.25a75.26,75.26,0,0,1,30.25,106.84C358.24,353,310.38,360,279.6,340.71Z"/><path class="cls-1" d="M258.13,301.07l4.77,9.13-9.37,5.95-5.67-10.63Z"/><path class="cls-1" d="M276.57,325.51c-2.39,2.93-4.57,5.58-7.07,8.63l-8.74-8.3,8.36-7.41Z"/><path class="cls-2" d="M192.34,125.24h10.2q123.66,0,247.32,0c13,0,13.37.33,13.37,13.26q0,147.87,0,295.74c0,12.89-.49,13.38-13.36,13.39q-166.8.08-333.58.11c-45.05,0-79.3-33.35-79.4-77.83q-.27-121,.13-242C37.16,92.07,62.63,61.45,97.28,54s70.07,9.32,85.19,41.15C186.8,104.25,188.87,114.43,192.34,125.24Zm258.23,12.88H190.51v6c0,73.06-.37,146.12.2,219.17.22,28.73-9,52.15-32,69.77-.29.22-.13,1-.2,1.8H450.57ZM177.77,326.75c.24-2.54.45-3.69.45-4.83,0-65.11.28-130.21-.14-195.31-.23-34.35-30-62.28-64.85-62s-63.86,28.63-64,63c-.21,63.64-.08,127.28-.06,190.92,0,2.43.37,4.86.63,8.19C82.39,284.52,141.89,281.69,177.77,326.75Zm.31,43.5c-.46-35.73-29.16-64.93-63.32-64.43-38.22.55-66.18,29.51-65.53,67.84.57,33.54,30.52,62.17,64.41,61.58C150.47,434.59,178.54,406.28,178.08,370.25Z"/><path class="cls-2" d="M154.35,368.47c0,17.22-11.41,32.61-29,39.09-17,6.23-40.15,1.47-49.6-10.73-1.5-1.93-.68-5.65-.93-8.54,3.12,0,7.27-1.17,9.2.38,10.34,8.26,21.54,11.73,34.48,8.25,21.91-5.89,30.85-30,17.17-46.08-8.09-9.52-22.43-10.9-30.14-1.75-3.1,3.68-5,10.44-3.93,14.93,1,4,6.43,7.83,10.77,9.63,4.18,1.74,8.77,2.85,6.79,7.71-1,2.46-6.58,4.74-9.74,4.34-10.62-1.35-17.21-8.22-20.07-18.43-3.06-10.94-.07-20.47,8.29-27.88,10.4-9.2,22.43-11,35.23-5.6S154.33,353.59,154.35,368.47Z"/></svg>