<svg id="Layer_1" data-name="Layer 1" xmlns="http://www.w3.org/2000/svg" viewBox="0 0 500 500"><defs><style>.cls-1{fill:#dedede;}</style></defs><path class="cls-1" d="M211,135c71.32-60.33,160.38-47.25,212.27-5.27a165,165,0,0,1,51,186c-23.19,62.1-87.4,113-171.63,105.61-16,42.61-46.08,66.63-92.69,62.53-35.57-3.13-60.95-23.55-72.16-57.8-13.29-40.6.49-73.52,33.36-99.61-2.56-6.55-5.09-13-7.94-20.28-34.58,11.12-67.59,8.39-98.28-11.46-21.26-13.75-35.84-33-43.87-57C4.77,189.24,24.4,136.4,68.14,109.62,107.21,85.7,168,85.23,211,135Zm94.32,269.73c51.2,8.44,123-19.41,152.3-89.78A148.46,148.46,0,0,0,214.74,153.78c-53.12,53.77-49.2,129-28.55,164.68C248.91,296,307.32,341.86,305.29,404.74ZM199.41,147.32c-20.5-30-61.14-44.24-98-34.79-50.26,12.89-80.5,65.13-66.79,115.38,13.75,50.4,66.1,79.87,116.06,65.66,6.94-2,8.46-4.89,7.83-12.11-1.22-14.2-2-28.69-.66-42.83C161.2,203.86,175.93,173.75,199.41,147.32Zm19.14,181.17a70.21,70.21,0,1,0,70.53,70.05A69.83,69.83,0,0,0,218.55,328.49Z"/><path class="cls-1" d="M406.81,97.37c-3.85-5.58-7.18-8.46-8-11.91-3.47-15.37-7.46-19.25-23-23.07-3.22-.79-5.56-5.16-8.3-7.87,2.9-2.58,5.44-6.69,8.76-7.47,14.51-3.39,19.37-8.24,22.59-22.55.75-3.33,4.84-5.91,7.39-8.83,2.71,2.76,7.33,5.23,7.81,8.34,2.12,13.74,9.33,21,23.11,23.14,3.1.47,5.57,5.09,8.32,7.8-2.89,2.59-5.42,6.73-8.74,7.49-14.53,3.35-19.11,7.8-22.47,22.55C413.5,88.53,410.43,91.56,406.81,97.37Zm0-49.9-8.12,7.19L405.5,61l8.62-5.7Z"/><path class="cls-1" d="M78.52,441c-3.8-5.39-7.15-8.19-7.92-11.57-3.46-15.26-7.71-19.47-22.92-23.29-3.23-.81-5.62-5-8.4-7.61,2.84-2.56,5.32-6.66,8.57-7.42,14.72-3.42,19.14-7.9,22.81-23.41.72-3,4.67-5.29,7.13-7.9,2.75,2.65,7.48,5,7.93,8,2.15,14.2,9.91,21.38,23.9,23.46,2.81.42,7,4.86,7,7.44s-4.22,6.88-7.06,7.32c-14,2.18-21.85,9.34-23.71,23.61C85.4,432.82,82.12,435.6,78.52,441Zm-.4-50L70.83,399l7.69,7.14,6.57-7.31Z"/><path class="cls-1" d="M218.87,101.57A31.21,31.21,0,1,1,250.11,70.2,31.15,31.15,0,0,1,218.87,101.57Zm-.27-15.66a15.49,15.49,0,0,0,1.07-31,15.49,15.49,0,1,0-1.07,31Z"/><path class="cls-1" d="M430,421.71a23.64,23.64,0,0,1,23.63-23c13,.1,23.88,11.39,23.33,24.31-.54,12.66-11.63,23.06-24.14,22.64A23.81,23.81,0,0,1,430,421.71Zm34.35.77c-4.9-3.69-7.74-7.49-10.39-7.36s-5.35,4.06-8,6.33c2.5,2.75,4.62,7,7.64,7.76C455.77,429.79,459.17,425.88,464.3,422.48Z"/><path class="cls-1" d="M109.76,336.56h14.9V351h-14.9Z"/><path class="cls-1" d="M297.67,69.75V55.44h14.55V69.75Z"/><path class="cls-1" d="M390.63,446.39v14.06H375.7V446.39Z"/><path class="cls-1" d="M46.07,460.81h-14V446.2h14Z"/><path class="cls-1" d="M452.64,249.17,438.12,251C428,187.91,395,148,329,140.16V126.58C381.34,115.73,448.86,182.17,452.64,249.17Z"/><path class="cls-1" d="M297.49,237.73c-3.85-5.24-7.6-8.08-8.05-11.37-1.86-13.81-9.2-21.05-22.87-23.34-3.17-.53-5.69-5-8.5-7.62,2.84-2.59,5.33-6.76,8.6-7.52,14.48-3.34,19.21-8.1,22.71-22.46.83-3.42,5.37-5.94,8.21-8.88,2.47,3,6.42,5.6,7.15,8.94,3.05,13.86,8.37,19.08,22.8,22.41,3.25.75,5.7,4.94,8.52,7.55-2.82,2.63-5.34,7-8.52,7.59-13.62,2.33-21.06,9.53-22.83,23.36C304.3,229.56,301,232.36,297.49,237.73Zm7-42.09-7.25-8.14L290,195.45l6.75,7.51Z"/><path class="cls-1" d="M433.5,265.49c-5.63,3.89-8.48,7.21-11.9,8-15.39,3.5-19.68,7.87-23.2,22.95-.74,3.21-5,5.6-7.69,8.36-2.52-2.58-6.81-4.88-7.27-7.79-2.19-14-9.33-21.8-23.66-23.66-2.86-.37-5.2-4.74-7.77-7.26,2.69-2.74,5.1-7.42,8.13-7.87,13.82-2,20.92-9.48,23.24-23.08.53-3.12,5-5.56,7.71-8.32,2.54,2.9,6.6,5.45,7.35,8.75,3.2,14.2,8,19.13,22.66,22.45C424.62,258.8,427.63,261.85,433.5,265.49Zm-41-5.35L384.77,265l5.93,8.63,8-7.71Z"/><path class="cls-1" d="M343.43,344.56V359H329c-.19-4.41-.4-9.06-.64-14.46Z"/><path class="cls-1" d="M124.74,125.78v13.87c-46.54,7.88-54.95,18.29-63,78.12-2.13.35-4.44.89-6.77,1.07s-4.76,0-7.06,0C38.22,169.68,77.93,121.27,124.74,125.78Z"/><path class="cls-1" d="M109.81,233.88V219.41h14.9v14.47Z"/></svg>