<svg id="Layer_1" data-name="Layer 1" xmlns="http://www.w3.org/2000/svg" viewBox="0 0 500 500"><defs><style>.cls-1{fill:#dedede;}</style></defs><path class="cls-1" d="M187.37,122c-.23-.57-.41-1-.56-1.29a8.93,8.93,0,0,1-.75-2.24c-6.9-41.21-43.16-71.12-84.45-71.12-2.68,0-5.38.12-8.11.38-45.27,4.3-76.9,41-76.91,89.31V141c0,74.88,0,152.31,0,228.47,0,51,37,88,87.89,88,74.93,0,151.12,0,224.8,0H425.6V273.56H410.07V441.69H156.78l4.94-7.08c1.47-2.1,2.9-4.19,4.32-6.26,4.07-5.93,7.91-11.54,12.26-17,2.42-3,6.72-3,10.16-2.94.36,0,.72,0,1,0,51.2-.05,103.26-.05,153.61-.05h33.55V273.56H361.14v118.8H187V190.19h88.36V174.5h-87.5V140.88h87.5v-16H188.51ZM150.93,421.68a69.48,69.48,0,0,1-49.12,20.21h-.58A69.69,69.69,0,0,1,53.11,322.42a69,69,0,0,1,49.53-20.12,70,70,0,0,1,69.05,70.1A69.28,69.28,0,0,1,150.93,421.68ZM171.7,260.84q0,22.86,0,45.71a6.83,6.83,0,0,1-.63,2.74c-.07.19-.16.4-.25.67l-2.1,6.16-5-4.14c-41.45-34.21-82-34.08-123.86.38L32.89,318l-.45-8.93c0-.74-.08-1.4-.12-2-.07-1.25-.14-2.34-.14-3.48q0-24.27-.06-48.53c-.08-40.15-.15-81.65.2-122.49.26-29.52,14.61-51.46,41.51-63.44,26.09-11.63,51.72-7.69,74.13,11.4,15.29,13,23.44,30.34,23.57,50.07C171.81,174,171.76,218.17,171.7,260.84Z"/><path class="cls-1" d="M101.21,410a37.91,37.91,0,1,0,1.41-75.8h-.81a38.17,38.17,0,0,0-37.74,37.6A37.94,37.94,0,0,0,101.21,410ZM79.64,371.24c.49-12,11-21.84,22.92-21.45a22.7,22.7,0,0,1,21.68,22.72,22.42,22.42,0,0,1-22.32,21.89h-.11a22.42,22.42,0,0,1-22.17-23.16Z"/><path class="cls-1" d="M487.88,115.51c.06,18.27.71,36.58-4.35,54.45-12.29,43.43-40.18,71.81-82.86,85.9a32.62,32.62,0,0,1-23.91-1.18c-52.17-22.83-80.32-62.73-83.69-119.54-1.06-17.72-.29-35.56-.24-53.35,0-6,2.67-9,8.41-9.29,30.2-1.55,56.49-13.41,80.88-30.38,7.86-5.48,8.6-5.5,16.4,0,22.11,15.45,46,26.65,73.07,29.8,2.43.28,4.87.39,7.31.57,6.22.46,8.89,3.07,9,9.29C488,93,487.88,104.25,487.88,115.51ZM472.43,88.18c-1.56-.42-2.17-.67-2.8-.75-27.7-3.19-52.48-14-75.37-29.39-3.18-2.15-5.1-1.78-8.05.2-22.53,15-46.8,25.8-74,29-2.86.34-3.83,1.41-3.79,4.31.16,14.36-.56,28.76.27,43.07,2.86,49.56,27.29,84.54,72.49,105,4.92,2.24,10,2.91,15.23,1.16,35-11.67,58.91-34.53,70.45-69.82C475.73,143.88,470.8,115.93,472.43,88.18Z"/><path class="cls-1" d="M379.9,163.58l40-40.09a31.62,31.62,0,0,1,3.89-3.71c3.49-2.48,7.13-2.46,10.22.58s3.26,6.61.77,10.18a22.37,22.37,0,0,1-2.64,2.88Q409.81,155.74,387.49,178c-5.93,5.92-9.34,5.92-15.24,0q-11.78-11.74-23.53-23.52c-5-5-5.74-9.43-2.19-13.1,3.71-3.82,8.14-3.12,13.44,2.18C366.53,150.18,373.08,156.75,379.9,163.58Z"/></svg>