<svg id="Layer_1" data-name="Layer 1" xmlns="http://www.w3.org/2000/svg" viewBox="0 0 500 500"><defs><style>.cls-1{fill:#dedede;}</style></defs><path class="cls-1" d="M204.77,109.9c-6.38,0-12.91-.07-19.43,0-6.87.1-10.35-3.06-10.3-10,.06-9.16,0-18.33,0-27.49,0-6.46,3.27-9.64,9.69-9.63,48.11.06,96.24-.62,144.32.48,26.39.61,48.45,23,49.88,49.44,1.78,32.87,2.31,28.73-25.56,28.71-1.29,0-2.58.2-5.22.42,1.15,16.81-3.74,33.43,7.24,49.73,16.05,23.84,29.79,49.23,44.75,73.82a125,125,0,0,1,18.61,67.13c-.23,37.31,0,74.63-.08,111.94-.07,26.68-16.12,42.67-42.89,42.72q-67.26.12-134.52,0c-26.66-.06-42.57-16.13-42.63-43-.08-37.64.08-75.28-.06-112.91a121.56,121.56,0,0,1,17.75-64.41c14.17-23.54,27-48,42.81-70.38,12.33-17.41,10-35.47,9.95-54.61h-14.9c-.21,3.24-.4,6.39-.62,9.53a39.58,39.58,0,0,1-33.72,36.77c-9.79,1.37-13.25-1.49-13.35-11.49-.19-21.6-.24-43.19-.38-64.79C206.12,111.61,205.78,111.35,204.77,109.9ZM402.31,408.28c0-31,.43-61-.28-91-.19-8.28-3.77-16.48-5.85-24.7-1.83-7.24-5.8-10.05-13.95-10-44.83.5-89.67.24-134.51.24-25.68,0-26.71.87-31.45,26.79a13.15,13.15,0,0,0-.28,1.94q-.66,47.55-1.23,95.11c0,.48.79,1,1.36,1.62ZM214.37,424.8c0,6.26,0,12.06,0,17.85a60.11,60.11,0,0,0,.32,8.81c1.74,11.07,10.72,19.69,22.31,19.76q71.57.43,143.14,0c10.94-.06,20.31-7.37,21.77-17.75,1.33-9.43.28-19.19.28-28.69Zm20.72-158.31h145.7c0-1.19.23-1.95,0-2.4-14.19-23.84-28.3-47.73-42.87-71.33-1.43-2.32-5.7-4-8.72-4.06-13.38-.43-26.79.15-40.17-.34-5.84-.22-8.77,2.17-11.46,6.86-7,12.18-14.38,24.11-21.57,36.16C249.17,242.74,242.43,254.13,235.09,266.49ZM362.81,125.11c3.16-26.7-13.54-46.34-39.51-46.56-31.37-.26-62.74-.08-94.11,0a51.37,51.37,0,0,0-6.43.82v45.77Zm-31,16.85H285.88v30.19h45.91Zm-109-.11v28.32c12.85-5.65,17-14.43,13.68-28.32Zm-17-48.17V79.24h-14.5V93.68Z"/><path class="cls-1" d="M96,34.06,82.83,26.24,90.44,12.8l13.5,7.72Z"/><path class="cls-1" d="M96.26,138.41,103.87,152l-13.18,7.85c-2.59-4.29-5-8.3-8-13.33Z"/><path class="cls-1" d="M95.79,93.72H81.24V79.21H95.79Z"/><path class="cls-1" d="M112.79,78.65h14.32V93.48H112.79Z"/><path class="cls-1" d="M158.53,94H144.37V79.14h14.16Z"/><path class="cls-1" d="M117.74,28.5l13.49,7.83c-2.67,4.56-5.06,8.64-7.89,13.5L110,41.88Z"/><path class="cls-1" d="M137.16,57.79,145,44.22,158.53,52,150.7,65.51Z"/><path class="cls-1" d="M137.1,114.83l13.52-7.66,7.9,13.37L145,128.41Z"/><path class="cls-1" d="M131.58,136.13l-13.82,7.93L110,130.72l12.71-7.64Z"/><path class="cls-1" d="M285.07,371.07c-1.28-1.05-1.51-1.4-1.78-1.43-21.81-2.2-21.81-2.2-21.8-24.39,0-21.06,0-21.06,22.48-24,.28-.53.82-1.08.83-1.63.51-20.43-2.34-21.52,22.05-21.1h1c27.5.15,23.19-1.8,25.08,22.28.52.35,1,1,1.58,1,21.39.43,21.64-1.92,21.34,22.84v1c.26,27.66.05,22.65-23.59,24.29,0,4-.11,8.07,0,12.16.24,7.34-3.06,10.95-10.54,10.83-7.85-.14-15.7,0-23.55,0-11.44-.09-13-1.63-13.11-13.1C285,376.81,285.07,373.87,285.07,371.07Zm-7.22-32.25v13.36c7.25,1.33,16.08.4,19.75,4.32,4,4.29,3.28,13.05,4.6,19.81H315c1.55-7.49.82-16.33,4.81-19.91,4.38-3.93,13.12-3,19.67-4.14V339.17c-7.24-1.33-16.08-.4-19.75-4.31-4-4.29-3.28-13.05-4.6-19.82H301.3C299.88,335.69,299.88,335.69,277.85,338.82Z"/></svg>