<svg xmlns="http://www.w3.org/2000/svg" version="1.1" xmlns:xlink="http://www.w3.org/1999/xlink" xmlns:svgjs="http://svgjs.com/svgjs" width="45" height="45" x="0" y="0" viewBox="0 0 128 128" style="enable-background:new 0 0 512 512" xml:space="preserve" class=""><g><path d="M64 35.4a28.587 28.587 0 0 0-24.354 43.58 1.731 1.731 0 0 0 .184.288 28.812 28.812 0 0 0 8.905 8.9 1.626 1.626 0 0 0 .282.181A28.6 28.6 0 1 0 64 35.4ZM43.459 78.405l5.4-5.4a1.75 1.75 0 0 0 .344-1.987 16.369 16.369 0 0 1 19.425-22.731L58.457 58.458a1.747 1.747 0 0 0-.512 1.237v8.61a1.75 1.75 0 0 0 1.75 1.75h8.611a1.748 1.748 0 0 0 1.237-.513l10.17-10.169A16.369 16.369 0 0 1 56.979 78.8a1.745 1.745 0 0 0-1.987.344l-5.4 5.4a25.327 25.327 0 0 1-6.133-6.139ZM64 89.1a24.945 24.945 0 0 1-11.313-2.7l3.937-3.938A19.871 19.871 0 0 0 81.962 55.48a1.749 1.749 0 0 0-2.818-.488L67.581 66.555h-6.136V60.42l11.563-11.564a1.749 1.749 0 0 0-.488-2.818 19.871 19.871 0 0 0-26.982 25.338L41.6 75.314A25.1 25.1 0 1 1 64 89.1Z" fill="#4169E1" data-original="#000000" class=""></path><path d="M121.693 52.667h-11.284a47.275 47.275 0 0 0-5.587-13.467l7.987-7.986a1.751 1.751 0 0 0 0-2.475L99.257 15.191a1.8 1.8 0 0 0-2.475 0L88.8 23.177a47.3 47.3 0 0 0-13.467-5.587V6.307a1.749 1.749 0 0 0-1.75-1.75H54.417a1.75 1.75 0 0 0-1.75 1.75V17.59A47.3 47.3 0 0 0 39.2 23.177l-7.986-7.986a1.749 1.749 0 0 0-2.475 0L15.191 28.743a1.749 1.749 0 0 0 0 2.475l7.986 7.982a47.3 47.3 0 0 0-5.587 13.467H6.306a1.751 1.751 0 0 0-1.75 1.75v19.166a1.751 1.751 0 0 0 1.75 1.75H17.59A47.3 47.3 0 0 0 23.177 88.8l-7.986 7.986a1.749 1.749 0 0 0 0 2.475l13.552 13.552a1.749 1.749 0 0 0 2.475 0l7.986-7.986a47.267 47.267 0 0 0 13.463 5.586v11.284a1.75 1.75 0 0 0 1.75 1.75h19.166a1.749 1.749 0 0 0 1.75-1.75v-11.288a47.279 47.279 0 0 0 13.467-5.586l7.986 7.986a1.8 1.8 0 0 0 2.475 0l13.552-13.552a1.751 1.751 0 0 0 0-2.475l-7.991-7.982a47.275 47.275 0 0 0 5.587-13.463h11.284a1.75 1.75 0 0 0 1.75-1.75v-19.17a1.75 1.75 0 0 0-1.75-1.75Zm-1.75 19.166h-10.93a1.749 1.749 0 0 0-1.713 1.387 43.862 43.862 0 0 1-6.17 14.872 1.748 1.748 0 0 0 .229 2.191l7.741 7.737-11.081 11.08-7.736-7.736a1.748 1.748 0 0 0-2.191-.23 43.858 43.858 0 0 1-14.871 6.17 1.749 1.749 0 0 0-1.388 1.712v10.93H56.167v-10.93a1.75 1.75 0 0 0-1.387-1.716 43.846 43.846 0 0 1-14.872-6.17 1.75 1.75 0 0 0-2.191.23l-7.737 7.74L18.9 98.02l7.736-7.737a1.748 1.748 0 0 0 .23-2.191A43.846 43.846 0 0 1 20.7 73.22a1.752 1.752 0 0 0-1.712-1.387H8.056V56.167h10.931A1.752 1.752 0 0 0 20.7 54.78a43.846 43.846 0 0 1 6.17-14.872 1.748 1.748 0 0 0-.23-2.191L18.9 29.98 29.98 18.9l7.737 7.736a1.748 1.748 0 0 0 2.191.23A43.866 43.866 0 0 1 54.78 20.7a1.751 1.751 0 0 0 1.387-1.712V8.057h15.666v10.93a1.75 1.75 0 0 0 1.388 1.713 43.87 43.87 0 0 1 14.871 6.17 1.75 1.75 0 0 0 2.191-.23l7.736-7.74L109.1 29.98l-7.737 7.737a1.748 1.748 0 0 0-.229 2.191A43.862 43.862 0 0 1 107.3 54.78a1.749 1.749 0 0 0 1.712 1.387h10.93Z" fill="#4169E1" data-original="#000000" class=""></path></g></svg>