<svg id="Layer_1" data-name="Layer 1" xmlns="http://www.w3.org/2000/svg" viewBox="0 0 56 43"><defs><style>.cls-1{fill:#dedede;}</style></defs><path class="cls-1" d="M12,5.85A6.37,6.37,0,0,1,14.5,1a1.14,1.14,0,0,1,1.58.26h0a1.14,1.14,0,0,1-.25,1.58h0a3.43,3.43,0,0,0-1.13,1.4,5.23,5.23,0,0,0-.39,1.35c0,.1,0,.19,0,.29h-.4v0l-.79,0h-.91v0ZM32.75,3.64a6.48,6.48,0,0,1,.79-1.86A5.29,5.29,0,0,1,35.25.13a1.12,1.12,0,0,1,1.52.5,1.12,1.12,0,0,1-.48,1.5,2.91,2.91,0,0,0-.93,1c-.07.14-.15.28-.2.41a5.45,5.45,0,0,0-2.41.09Zm12.64,36H10.59V43H45.41V39.67ZM26.51,28.45H.86L5.7,38.34H50.3l4.84-9.89H26.51Zm5.41-5.35a3.56,3.56,0,0,1-2.07,1,3.59,3.59,0,0,1-2.07-1c-.2-.15-.4-.31-.6-.44v4.48H52.53V22.66c-.21.14-.41.29-.61.44a3.56,3.56,0,0,1-2.07,1,3.59,3.59,0,0,1-2.07-1,3,3,0,0,0-1.26-.73,2.92,2.92,0,0,0-1.25.73,3.59,3.59,0,0,1-2.07,1,3.56,3.56,0,0,1-2.07-1,3,3,0,0,0-1.26-.73,2.82,2.82,0,0,0-1.25.73,3.61,3.61,0,0,1-2.08,1,3.62,3.62,0,0,1-2.07-1,3,3,0,0,0-1.25-.73,2.79,2.79,0,0,0-1.3.73Z"/><path class="cls-1" d="M31.92,17.14a3.6,3.6,0,0,1-2.07,1,3.57,3.57,0,0,1-2.07-1c-.2-.15-.4-.32-.6-.44v4.48a5.69,5.69,0,0,1,1.42.89,3,3,0,0,0,1.25.73,2.89,2.89,0,0,0,1.26-.73,3.6,3.6,0,0,1,2.07-1,3.57,3.57,0,0,1,2.07,1,3,3,0,0,0,1.26.73,2.92,2.92,0,0,0,1.25-.73,3.6,3.6,0,0,1,2.07-1,3.54,3.54,0,0,1,2.07,1,3,3,0,0,0,1.26.73,2.89,2.89,0,0,0,1.26-.73,3.6,3.6,0,0,1,2.07-1,3.57,3.57,0,0,1,2.07,1,3,3,0,0,0,1.25.73,2.89,2.89,0,0,0,1.26-.73,5.57,5.57,0,0,1,1.41-.89v-1c-2.85-.46-5.23-3.36-6.82-6H27.18v1.06a5.42,5.42,0,0,1,1.42.89,3,3,0,0,0,1.25.73,2.89,2.89,0,0,0,1.26-.73,3.62,3.62,0,0,1,2.07-1,3.59,3.59,0,0,1,2.07,1,3,3,0,0,0,1.26.73,2.92,2.92,0,0,0,1.25-.73,3.62,3.62,0,0,1,2.07-1,3.56,3.56,0,0,1,2.07,1,3,3,0,0,0,1.26.73,2.89,2.89,0,0,0,1.26-.73,7.65,7.65,0,0,1,.94-.67.65.65,0,0,1,.89.28.67.67,0,0,1-.24.88,5.82,5.82,0,0,0-.79.56,3.59,3.59,0,0,1-2.07,1,3.56,3.56,0,0,1-2.07-1,3,3,0,0,0-1.26-.73,2.89,2.89,0,0,0-1.26.73,3.56,3.56,0,0,1-2.07,1,3.59,3.59,0,0,1-2.07-1,3,3,0,0,0-1.25-.73c-.32,0-.82.37-1.25.71Zm11.77-6.91H37.6a4.29,4.29,0,0,1-3.61,2,4.25,4.25,0,0,1-3.57-2,3.8,3.8,0,0,0-3.07,2.56H44.93c-.44-.84-.87-1.72-1.24-2.6ZM3.59,11c3.6.63,6.24,3.22,6.24,6.27,0,2.46-1.69,4.64-4.35,5.72.91,1.77,2.55,4.12,4.94,4.12a4.05,4.05,0,0,0,2.87-1.3.64.64,0,0,1,.47-.19h0a.6.6,0,0,1,.46.2A3.87,3.87,0,0,0,17,27.13c2.38,0,4-2.31,4.89-4a6,6,0,0,1-3-5c0-2.68,2.09-5.09,5.15-6a4.7,4.7,0,0,0-.93-2.65c-1.4-1.39-5.37-2.1-9.35-2.1A12.93,12.93,0,0,0,14.22,10a4.48,4.48,0,0,0,2.59-.77.65.65,0,1,1,.88,1h0a6,6,0,0,1-3.86,1.12h-.2a6.71,6.71,0,0,1-3.87-1.1.66.66,0,0,1-.07-.93h0a.65.65,0,0,1,.93-.08h0a4.32,4.32,0,0,0,2.21.74,13.37,13.37,0,0,1-.4-2.58c-3.54.12-6.87.81-8.11,2.07A3.41,3.41,0,0,0,3.59,11Z"/><path class="cls-1" d="M32.86,5.19A2.91,2.91,0,1,0,34.21,5a8.13,8.13,0,0,0,.12,1.84.64.64,0,0,1-.52.76.27.27,0,0,1-.13,0A.67.67,0,0,1,33,7.11,9.73,9.73,0,0,1,32.86,5.19Z"/></svg>