<svg id="Layer_1" data-name="Layer 1" xmlns="http://www.w3.org/2000/svg" viewBox="0 0 56 43"><defs><style>.cls-1{fill:#dedede;}</style></defs><path class="cls-1" d="M6.5,41.81A1.18,1.18,0,0,0,7.68,43h9.65V24H6.5ZM38.67,43h9.64a1.18,1.18,0,0,0,1.19-1.18h0V24H38.67Zm-19-19H36.3v8.29H19.7Zm0,10.66H36.3V43H19.7ZM48.31,16.59H7.69A1.19,1.19,0,0,0,6.5,17.78v3.89h43V17.78A1.19,1.19,0,0,0,48.31,16.59ZM22.58,5.76a1.19,1.19,0,0,0,1.19-1.19V3.89a1.52,1.52,0,1,1,3,0V14.22h2.38V3.89a3.9,3.9,0,0,0-7.79,0v.68A1.18,1.18,0,0,0,22.58,5.76Zm-6.09,6.77h.84v1.69H19.7V12.53h.85a1.19,1.19,0,1,0,0-2.37H16.49a1.19,1.19,0,1,0,0,2.37Zm19,0h.85v1.69h2.37V12.53h.84a1.19,1.19,0,1,0,0-2.37H35.45a1.19,1.19,0,1,0,0,2.37Z"/></svg>