<svg id="Layer_1" data-name="Layer 1" xmlns="http://www.w3.org/2000/svg" viewBox="0 0 500 500"><defs><style>.cls-1{fill:#dedede;}</style></defs><path class="cls-1" d="M176.1,379.45c3.29,8.92,6.47,15.39,14.57,18.61,6.08,2.41,11.79,5.87,17.45,9.22,8,4.74,7.85,11.64-.17,16.53a5.09,5.09,0,0,1-.75.42c-18.46,6.37-30.09,19.21-37.46,37.16-3.9,9.52-12,9-17.21-.05a13.73,13.73,0,0,1-1.17-2.29c-5.8-16.72-17.32-27.48-33.67-34-3.6-1.42-8.44-6.32-8.19-9.23.32-3.67,4.81-7.54,8.34-10.23,4-3.08,9-4.94,13.56-7.35,9.75-5.15,9.75-5.15,14.35-17.61-2.59-.19-5-.53-7.39-.54-18.33,0-36.67.13-55-.06-30.59-.32-53-22.91-53.11-53.51-.11-32.95,0-65.9-.07-98.85,0-6.21.61-12.24,8.34-12.41,8.35-.2,9,6.17,8.95,12.66-.08,19.75,0,39.49,0,60.53,23.06-16.36,45.67-17,68.75-.54.43-2,1-3.55,1-5.05,0-65,.18-130.08,0-195.12-.08-21.45-15.19-36.5-35.3-36.29S47.59,67,47.46,88.63c-.08,14.61,0,29.23,0,43.84,0,4.3.05,8.6,0,12.89-.12,5.76-3.25,10.2-8.77,9.08-3.25-.66-7.91-5.64-8-8.8-.64-21.75-1.17-43.59.08-65.29C32,57.46,51.84,37.83,74.29,34.76c24.51-3.35,47,9.07,55.93,31.84,2.44,6.21,5.39,8.07,11.8,7.79,12.58-.55,25.21.11,37.8-.31,4.37-.14,8.82-1.63,13-3.1,13.71-4.8,22.68-14.2,28.3-27.71,2.06-4.94,6.85-11.06,11.42-12.09,7.69-1.73,8.81,7.27,12.16,12.26a17.88,17.88,0,0,1,1.62,3c8.77,20.52,25.37,27.81,46.47,27.79q80.35-.09,160.7,0c2.29,0,4.58,0,6.87,0,5.64.12,9.67,2.61,9.67,8.56s-4.07,8.54-9.67,8.58c-12.6.1-25.21,0-37.81,0h-9.43v30.92c14.06,0,27.69-.06,41.32,0,6.73,0,15.52-1.49,15.42,8.65s-8.88,8.49-15.61,8.53c-13.4.08-26.79,0-40.71,0v30.87h34.18c3.15,0,6.31.06,9.46,0,6.46-.16,12.93.56,12.78,8.84-.14,7.6-6.21,8.48-12.43,8.42-11.75-.11-23.49-.06-35.24,0-2.79,0-5.59.24-8.81.4v30.45h38.72c2.86,0,6.23-.92,8.47.27,3.56,1.88,8.32,4.74,9.06,8,1.26,5.58-3.28,8.8-8.94,8.88-12,.18-24.06.08-36.09.09h-11v30.91h37.73c2.87,0,5.73,0,8.6,0,5.62,0,9.82,2.31,10,8.25.14,6.45-4.33,8.9-10.24,8.93-12,.07-24.06,0-36.09,0h-10v30.86h38c2.87,0,5.73,0,8.6,0,5.65,0,9.7,2.47,9.77,8.43s-4,8.62-9.59,8.69c-12.32.16-24.64.07-37,.08H413.46v30.87c11.63,0,23.8,0,36,0,4.3,0,8.93-.89,12.78.45,3.14,1.08,7.62,5.07,7.41,7.41-.28,3.23-4,6.66-7.06,8.94-1.69,1.26-5,.42-7.57.42-30.65,0-61.3.08-91.95-.06-5.48,0-8.75,1-12,6.61-4.11,7.2-11.18,12.71-17.39,19.39,9.67,11.76,19.67,23.91,29.65,36.06,2.19,2.65,4.38,5.3,6.54,8,4.17,5.15,9.93,10.7,2.34,16.75-7,5.58-11.34-.54-15.41-5.51Q344.28,446,331.7,430.77l-11.91-14.49c-4,3.15-7.71,6.16-11.51,9-13.78,10.38-32.17,9.72-42.23-4.17-14-19.37-34.49-29.2-54.53-38.87C201.89,377.61,188.76,380.2,176.1,379.45Zm111.34-243.4H135v182a12.22,12.22,0,0,0,2.8.82c40.08.06,80.16.15,120.23,0a13,13,0,0,0,7.59-3.11c15.25-12.95,30-26.55,45.55-39.07,7.9-6.36,17.06-11.28,26.05-16.11,4.35-2.33,9.61-2.94,14.65-4.38,0-18.08-.16-35.54.1-53,.07-4.84-1.92-6.13-6.28-7.06-17.46-3.75-32.31-12.47-42.13-27.4C297.1,158.88,293,147.48,287.44,136.05Zm-39.57-18.26c16,0,31.11.14,46.24-.05,8-.1,12,3,12.67,11.44,2.26,29.2,21.91,48.83,51.45,51.31,8.07.68,11,4.25,10.94,12-.19,22.91,0,45.83-.09,68.75,0,9.81-2,11.82-12.05,12.53a51.9,51.9,0,0,0-33.14,14.43c-1.63,1.55-3.53,4.7-3,6.35,4.82,14.65,8.09,30.35,15.8,43.38,15.33,25.88,16.38,25.25,47.37,25,10.08-.1,11.69-1.53,11.7-11.26q0-124.6.11-249.21c0-8.09-2.87-11.16-11.11-11.08-33.5.3-67,.08-100.51.14C271.3,91.5,253.52,103.92,247.87,117.79ZM83.16,293.09c-18.7-.57-34.92,14.6-35.66,33.35A35.1,35.1,0,0,0,81,362.81c19,.85,35.4-14.54,36.13-33.8C117.86,310,102.45,293.67,83.16,293.09Zm143.49,77.08c9.6,5.57,17.6,10.57,26,14.85,2.11,1.08,6.23,1,8-.42,17.88-14.25,35.51-28.81,53-43.5,1.52-1.28,2.91-4.44,2.4-6.14-2.91-9.7-6.42-19.21-10.09-29.87Zm13.78-33.59H135c-4.1,8.88-7.95,17.26-12.1,26.28,27.71,0,55.07,0,82.43-.09a9.45,9.45,0,0,0,5.41-2C220.12,353.34,229.3,345.7,240.43,336.58ZM270,399.44c3.39,4.11,5.9,7.61,8.87,10.65,5.55,5.69,12.13,6.72,18.45,1.77q18.21-14.25,35.75-29.32c6-5.19,6.63-11.81,2-18.4-2.56-3.65-5.63-6.93-8.87-10.86Zm-50.65-281.9c-4.59-6.12-7-11.85-11.36-14.67-11.74-7.65-24.12-13.48-39.23-11.68-11.13,1.33-22.54.26-33.48.26v26.09ZM136.68,415.72c12.9,3.69,19.49,13.11,25,26.43,4.11-14.38,12.56-21.79,24.27-27.18-12.93-3.52-19.48-12.81-25-26C156.56,402.84,148.91,410.8,136.68,415.72ZM210.43,81.36l23.63,24.26c3.16-10.65,11.41-18,21.1-21.45l-24-24.11C228.19,70.72,220.19,77.94,210.43,81.36Z"/><path class="cls-1" d="M40.87,175.17C43,178.54,47,182,46.8,185.24c-.14,2.82-5.28,7.81-7.62,7.49-3.26-.45-7.95-4.7-8.32-7.78s4-6.54,6.21-9.84Z"/></svg>