<svg id="Layer_1" data-name="Layer 1" xmlns="http://www.w3.org/2000/svg" viewBox="0 0 500 500"><defs><style>.cls-1{fill:#dedede;}</style></defs><path class="cls-1" d="M175.12,447.08c11.2-29.51,21.91-57.73,32.61-86,.87-2.28,1.58-4.63,2.58-6.85,2.41-5.38,6.31-8.61,12.33-6.11s6.78,7.44,4.73,13c-3.48,9.45-7.09,18.86-10.65,28.27q-12.81,33.82-25.64,67.63c-4.37,11.5-7.42,13-18.5,8.77Q99.34,438.15,26.15,410.33c-11.59-4.41-12.81-7.18-8.52-18.51q47.36-125,94.74-250c9.65-25.46,29.22-34.21,54.9-24.57q47.16,17.7,94.24,35.62c24.44,9.32,33.54,29.28,24.44,53.62C277.4,229.39,268.6,252.16,260,275c-2.34,6.22-5.41,11.86-13.16,8.92-7.59-2.89-6.57-9.05-4.14-15.38q13-33.75,25.65-67.62c5.91-15.73,1.8-25.05-13.84-31Q207,151.84,159.41,134c-14.28-5.34-23.88-1.21-29.2,12.77q-46.35,122-92.5,244a31.84,31.84,0,0,0-.78,4Z"/><path class="cls-1" d="M323.71,105.78c3.34,3.54,5.33,5.76,7.43,7.86q48,47.87,96.11,95.72c1.94,1.93,5,3.83,5.34,6.06.54,3.76.55,8.86-1.6,11.36-1.69,2-7.1,1.62-10.57.9-2.31-.48-4.19-3.35-6.13-5.28-38.11-37.92-76.31-75.77-114.14-114-3.37-3.4-6.47-9.35-6-13.73.73-6.83,7.91-6.08,13.38-6.41q81.87-4.89,163.74-9.86c6.78-.42,12.9.61,13.36,8.67.44,7.61-5.37,9.33-11.73,9.71q-69.08,4.11-138.14,8.26C331.74,105.25,328.74,105.46,323.71,105.78Z"/><path class="cls-1" d="M192.78,85.47c5.63-14.73,11-28.91,16.47-43.06,4.22-11,7.19-12.36,17.88-8.36q21.84,8.18,43.61,16.5c10.74,4.12,12.27,7.45,8.31,18-5.34,14.22-10.78,28.42-16.41,43.27,6.35,2.5,12.21,4.92,18.16,7.13s9.73,5.9,7.5,12.42-7.47,6.89-13.45,4.63q-53-20-106.14-39.8c-6.16-2.3-10.7-5.85-8.11-12.85S169,76.51,175.11,79C180.71,81.18,186.42,83.14,192.78,85.47Zm67.37-19.13L224.88,53c-5.1,13.59-9.83,26.21-14.72,39.23l35.1,13.26Z"/><path class="cls-1" d="M72.92,367.6c3.9,1.26,6,1.84,7.94,2.59,25.65,9.67,51.33,19.25,76.87,29.19,3.43,1.33,7.14,4,8.83,7,1.16,2.11,0,7.18-1.87,8.83a11.55,11.55,0,0,1-9.64,1.86c-17.85-6.13-35.5-12.86-53.19-19.45-10.28-3.82-20.8-7.17-30.61-11.94-3.06-1.49-5.89-7.08-5.65-10.58C65.8,372.27,70.7,369.72,72.92,367.6Z"/><path class="cls-1" d="M404,126.34c18.12,7,34.69,13,50.79,20.12,2.46,1.08,4.65,7.73,3.58,10.51s-7.13,6.22-9.69,5.38q-24.66-8-48.56-18.29c-2.56-1.1-4.84-7.29-4.11-10.38S401.48,128.52,404,126.34Z"/><path class="cls-1" d="M247.67,316.34c-5.91,4-9.1,7.85-12.75,8.35-5.5.75-9.17-3.17-9-9.06s4-9.57,9.55-8.38C239.12,308,242.06,312,247.67,316.34Z"/></svg>