<svg id="Layer_1" data-name="Layer 1" xmlns="http://www.w3.org/2000/svg" viewBox="0 0 56 43"><defs><style>.cls-1{fill:#dedede;}</style></defs><path class="cls-1" d="M15.75,40.93A2.17,2.17,0,0,0,17.91,43H38.1a2.16,2.16,0,0,0,2.16-2.07l1.45-30.46H14.3ZM32.58,18a.87.87,0,0,1,.88-.88h1.4a.87.87,0,0,1,.88.88v17.4a.87.87,0,0,1-.88.88h-1.4a.87.87,0,0,1-.88-.88Zm-6.15,0a.87.87,0,0,1,.88-.88h1.4a.88.88,0,0,1,.89.88v17.4a.88.88,0,0,1-.89.88h-1.4a.87.87,0,0,1-.88-.88h0Zm-6.16,0a.88.88,0,0,1,.89-.88h1.4a.88.88,0,0,1,.88.88v17.4a.88.88,0,0,1-.88.88h-1.4a.88.88,0,0,1-.89-.88h0ZM42.67,2.22H33.35V.45A.45.45,0,0,0,32.9,0H23.11a.45.45,0,0,0-.45.45V2.22H13.34A1.36,1.36,0,0,0,12,3.58V7.84H44V3.57A1.33,1.33,0,0,0,42.67,2.22Z"/></svg>