<svg id="Layer_1" data-name="Layer 1" xmlns="http://www.w3.org/2000/svg" viewBox="0 0 500 500"><defs><style>.cls-1{fill:#dedede;}</style></defs><path class="cls-1" d="M59.82,362.49q0-33.86,0-67.73c0-8.81,0-8.78-8.11-11.8C34.34,276.49,22.78,264.41,16,247.19c-9.79-24.74-.3-53.38,18.4-68.21,13.28-10.53,28.35-15.15,45.3-13.25,1.12.13,2.25.2,3.37.37,3.14.48,4.31-.88,4.28-4-.09-10.16-.34-20.33.08-30.47a213.53,213.53,0,0,1,2.45-22.11c.44-3-.77-4.72-3.19-5.61-4.09-1.48-8.25-2.81-12.45-3.88-3.44-.87-6.12-2.22-6.33-6.19C67.65,89.52,70.6,88.14,74,87c5-1.66,10.23-3.06,14.92-5.43,8.65-4.37,13-12.53,16.66-21a57.19,57.19,0,0,0,2.2-6.38,5.83,5.83,0,0,1,5.87-4.54c3-.13,5.21.73,6.35,3.75,1.82,4.84,3.74,9.65,5.68,14.44,1.39,3.43,3.53,4.63,7.32,3.07,2.12-.87,4.71-.81,7.08-.81Q227.53,70,315,70c13.26,0,26.53,0,39.79,0,26.07,0,44,12.34,54.46,35.87a34,34,0,0,1,2.88,12.25c.5,13.53.49,27.08.61,40.62.07,7.83,0,7.83,7.72,7,19.94-2.12,37.25,4,50.77,18.49,14,15,19.61,33,15.39,53.73-4.16,20.42-16.09,34.48-34.38,43.61a33.28,33.28,0,0,1-8.25,3.07c-2.9.56-3.73,2.13-3.76,4.66,0,1.55,0,3.1,0,4.65V430.7c0,1.13,0,2.26,0,3.39.11,10.37-5.73,16.62-16.41,16.26-14.24-.49-28.51-.42-42.75,0-10.17.28-15.47-6.81-15.4-15.1,0-4.09-1.31-5.27-5.35-5.26q-110.26.15-220.55,0c-4.09,0-5.38,1.26-5.32,5.29.12,8.4-5.58,15.37-15.45,15.08-14.38-.42-28.8-.46-43.17,0-10,.33-16-6.14-16-15.89C59.88,410.47,59.82,386.48,59.82,362.49Zm75.25-69.64c3-.84,5.21-1.12,7.06-2.05,2-1,4.91-2.35,5.31-4,1.11-4.75,4.31-5.59,8.22-6.46a44.82,44.82,0,0,0,11.49-3.73c11.43-6.14,17.9-16.24,21.38-28.48,1-3.42,2.37-6.37,6.69-6.35s6.12,2.14,7.17,6.19c2.49,9.57,7,18.18,14.91,24.4a12.87,12.87,0,0,0,7.54,2.48c12.53-.13,25.12-1.65,37.58-.86,17.39,1.09,34.78,3.24,52,6,12.29,2,24.31,5.62,36.43,8.61,4.57,1.12,9.08,2.48,14.66,4,0-4.11-.11-7.43,0-10.74.13-3.1-.21-5.53-3.36-7.43-1.78-1.07-2.72-3.73-3.75-5.81-2.86-5.74-4.94-12-8.48-17.24-6.23-9.22-15.63-13.88-26.53-15.45-3.67-.53-5.6-2.43-5.8-6-.23-4.22,2.06-6.09,7.91-7.52,4.18-1,8.52-2.11,12.26-4.15,11.15-6.07,17.4-16,20.57-28.06,1.15-4.32,3.21-6.37,7.14-6.36,4.09,0,6.07,2.19,6.75,6.11.24,1.37,1.4,2.58,2.5,4.48,5.82-9.14,12.58-15.86,21-20.62,3.09-1.74,4.09-3.84,4.07-7.09-.06-12.13.38-24.29-.18-36.39a81.87,81.87,0,0,0-3.51-20.63c-4.42-14-21.49-26-36.29-26q-104.76-.12-209.52-.08a44.63,44.63,0,0,0-4.72.47l-.06,1.16c1.57.31,3.14.6,4.7,1s3.3.79,4.91,1.29c4.23,1.32,6.33,5.72,3.94,9.26a9.35,9.35,0,0,1-5.5,3.29c-11.28,2.22-20.74,7.21-26.64,17.38-2.37,4.08-3.9,8.65-5.66,13.06-1.31,3.31-2.22,6.76-6.76,7s-6.15-2.37-7.35-6.06c-1.28-3.92-2.91-7.73-4.39-11.58l-1.45.08a38.09,38.09,0,0,0-1.1,6.28c-.12,13.83-.19,27.66,0,41.48a7,7,0,0,0,2.78,5.14c21.59,12.92,31.24,32.37,31.39,57,.12,19,0,38.09,0,57.14C134.52,288.78,134.86,290.66,135.07,292.85Zm-13.91,35.29c0-32.59-.08-65.17,0-97.76,0-9.77-1.74-18.93-6.48-27.53-11.4-20.65-38.48-31.19-61.53-19.93-19.72,9.63-33.05,34-25.75,56.41,5.17,15.83,15.23,26.52,30.83,32a73.59,73.59,0,0,0,9,2.22c4.24.92,5.54,2.9,5.54,9q0,74.49-.07,149c0,4.07,1.28,5.44,5.31,5.38,12.41-.18,24.83-.05,37.24-.07,5.86,0,5.88,0,5.88-5.88Zm257.62,16.52c0,29.06.07,58.12-.08,87.19,0,4,1.35,5.11,5.12,5.06,12.41-.15,24.83,0,37.24-.06,6.06,0,6.09,0,6.09-6.16q0-73,0-146c0-2-.51-4.28.33-5.83a11.73,11.73,0,0,1,5.13-5.2c4.62-1.92,9.85-2.42,14.33-4.54,16.79-8,25.9-21.69,27.43-40,1.19-14.25-4.13-26.62-14.28-36.51-13.05-12.73-28.78-17.71-46.5-12.41-13,3.89-22.87,12.27-29.33,24.49-1.82,3.43-1.73,5.83,1.28,8.47a40.8,40.8,0,0,0,21.56,9.76c3.7.54,7,2.58,6.81,6.79-.17,4-3.09,5.74-7.1,6.41-9.86,1.65-18.6,5.8-24.79,13.9a15.66,15.66,0,0,0-3.11,8.75C378.69,287.38,378.78,316,378.78,344.66ZM250,355.8H359.57c5.72,0,5.92-.19,5.93-6,0-12.55-.17-25.11.1-37.65.09-3.89-1.59-5.72-4.83-6.78-4.79-1.58-9.53-3.43-14.43-4.55-14.76-3.36-29.54-6.68-44.4-9.55-17.48-3.37-35.21-4.3-53-4.23-2.4,0-4.38.14-5.5,2.78-1.19,2.82-3.54,3.88-6.66,4.31a41.29,41.29,0,0,0-10.47,3c-13.37,5.74-20.22,16.89-24,30.23-1.07,3.73-2.93,6.38-6.72,6.31-4-.07-6.07-3.14-7-6.84-2.71-11.26-8.59-20.43-18.29-26.79a10.55,10.55,0,0,0-7.44-1.25c-7.49,1.79-14.82,4.22-22.21,6.43-4,1.21-6.54,3-6.33,8.18.48,12.11.13,24.25.16,36.38,0,5.8.21,6,5.93,6Zm-.24,60.77c37,0,73.92,0,110.88.07,3.63,0,5-1,4.93-4.77-.19-12.69-.15-25.39,0-38.09,0-3.71-1.07-5.27-5.07-5.27q-110.46.14-220.92,0c-3.95,0-5.16,1.47-5.12,5.23.14,12.41,0,24.83.06,37.24,0,5.58,0,5.59,5.65,5.59ZM195.48,268.46a3.73,3.73,0,0,0-1.76,1.11,50.29,50.29,0,0,1-15.18,15.62c-1.83,1.2-1.8,2.46.14,4.31,5.26,5,10.08,10.49,15.11,15.75a6.67,6.67,0,0,0,1.63,1.11l18.41-19.06Zm151.79-38.89,18.19,18.69,18.35-18.76-18.29-18.66ZM114,111l16.6-17.36L114,76.26,97.32,93.68C102.75,99.31,108.27,105.05,114,111Z"/></svg>