<svg xmlns="http://www.w3.org/2000/svg" width="512" height="512" viewBox="0 0 512.081 512.081" xmlns:v="https://vecta.io/nano"><path d="M443.966 45.03C409.641 18.044 336.19 1.062 333.075.358a10.67 10.67 0 0 0-12.768 8.032 10.68 10.68 0 0 0-.266 2.357c0 14.4-29.547 32-64 32s-64-17.6-64-32a10.663 10.663 0 0 0-4.011-8.341 10.411 10.411 0 0 0-9.024-2.133c-3.115.704-76.544 17.707-110.933 44.672-35.52 28.032-45.632 163.115-46.699 178.411a10.666 10.666 0 0 0 6.016 10.325 252.934 252.934 0 0 0 79.317 21.973v224.427a10.666 10.666 0 0 0 5.675 9.408c1.728.939 43.605 22.592 143.659 22.592s141.931-21.653 143.659-22.592a10.668 10.668 0 0 0 5.675-9.408V255.654a252.952 252.952 0 0 0 79.296-21.973 10.667 10.667 0 0 0 6.037-10.325c-1.067-15.296-11.179-150.379-46.742-178.326z" fill="#03a9f4"/><path d="M117.374 256.081a10.67 10.67 0 0 1-10.667-10.667v-64a85.333 85.333 0 0 0-18.219-56.448 10.67 10.67 0 0 1 15.082-15.083 104.298 104.298 0 0 1 24.469 71.531v64c.002 5.891-4.774 10.667-10.665 10.667zm277.333 0a10.67 10.67 0 0 1-10.667-10.667v-64a104.302 104.302 0 0 1 24.448-71.552 10.67 10.67 0 0 1 15.345 14.821c-.086.089-.173.176-.262.262a85.33 85.33 0 0 0-18.197 56.469v64a10.67 10.67 0 0 1-10.667 10.667z" fill="#0288d1"/><path d="M337.491 2.534a10.517 10.517 0 0 0-8.789-2.261 645.695 645.695 0 0 1-72.661 10.475A645.204 645.204 0 0 1 183.38.273a10.538 10.538 0 0 0-8.789 2.261 10.668 10.668 0 0 0-3.883 8.213c0 32 44.117 53.333 85.333 53.333s85.333-21.333 85.333-53.333a10.665 10.665 0 0 0-3.883-8.213z" fill="#1976d2"/></svg>