<svg xmlns="http://www.w3.org/2000/svg" width="512" height="512" viewBox="0 0 507.763 507.763" xmlns:v="https://vecta.io/nano"><path fill="#fe9738" d="M399.605 257.458H108.158L30.341 212.99a4.92 4.92 0 0 1-1.967-6.455L96.843 68.403a10.368 10.368 0 0 1 3.758-4.165l84.317-53.211c6.941-4.38 15.727-4.723 22.931-.79 33.897 18.508 64.913 18.751 93.136 1.291 7.376-4.563 16.741-4.398 24.051.268l82.159 52.445a10.376 10.376 0 0 1 3.713 4.137l68.482 138.158a4.92 4.92 0 0 1-1.967 6.455z"/><path fill="#fe860a" d="M170.621 20.048 100.6 64.238a10.383 10.383 0 0 0-3.758 4.165L28.374 206.535a4.92 4.92 0 0 0 1.967 6.455l77.818 44.467h62.463V20.048z"/><path fill="#fea95c" d="M325.036 11.796c-7.31-4.667-16.676-4.831-24.051-.268-28.223 17.46-59.239 17.218-93.136-1.291-7.203-3.933-15.99-3.591-22.931.79L100.6 64.238l8.253 104.509v327.02a4.494 4.494 0 0 0 4.495 4.495h281.067a4.495 4.495 0 0 0 4.495-4.495v-327.02l8.285-104.507z"/><path fill="#fe9738" d="M328.929 446.085c-97.933 0-177.323-79.39-177.323-177.323V114.57L145.4 35.966l-44.8 28.272 8.253 104.509v331.515H398.91v-54.177z"/><path fill="#fe860a" d="M196.721 7.498c3.82-.06 7.66.85 11.13 2.74 33.89 18.51 64.91 18.75 93.13 1.29 3.05-1.89 6.44-2.97 9.89-3.25l.13 1.45c-1.04 30.65-26.21 55.18-57.12 55.18-15.57 0-29.69-6.23-40-16.33-10.3-10.1-16.8-24.07-17.14-39.56z"/><path fill="#6cf5c2" d="m325.031 11.798 12.18 7.77c-5.76 40.83-40.94 72.34-83.33 72.34-42.23 0-77.29-31.27-83.26-71.86l14.3-9.02c3.6-2.27 7.69-3.46 11.8-3.53l.02 1.52c.34 15.49 6.84 29.46 17.14 39.56 10.31 10.1 24.43 16.33 40 16.33 30.91 0 56.08-24.53 57.12-55.18l-.13-1.45c4.88-.41 9.87.78 14.16 3.52z"/><path d="M486.109 203.204L417.628 65.047a17.879 17.879 0 0 0-6.397-7.128l-82.16-52.445c-9.734-6.214-22.308-6.341-32.032-.324-26.138 16.17-54.137 15.682-85.596-1.496-9.556-5.218-21.253-4.824-30.527 1.029l-14.171 8.943-.049.031-70.099 44.238a17.87 17.87 0 0 0-6.474 7.177L21.654 203.204c-2.916 5.882-.734 13.041 4.965 16.298l74.734 42.705v233.561c0 6.614 5.381 11.995 11.995 11.995h281.067c6.614 0 11.995-5.381 11.995-11.995V415.7a7.5 7.5 0 0 0-15 0v77.063H116.353V168.747a7.5 7.5 0 0 0-15 0v76.184l-65.179-37.245 67.389-135.953a2.863 2.863 0 0 1 1.04-1.153l60.931-38.453a91.61 91.61 0 0 0 17.811 34.068 7.48 7.48 0 0 0 5.775 2.71 7.465 7.465 0 0 0 4.786-1.729 7.5 7.5 0 0 0 .982-10.561c-7.955-9.586-13.426-20.886-15.988-32.923l10.02-6.324a15.18 15.18 0 0 1 .953-.552c1.967 14.061 8.467 27.034 18.764 37.121a64.29 64.29 0 0 0 45.245 18.468c16.881 0 32.855-6.467 44.979-18.209 10.486-10.156 17.115-23.312 19.067-37.58 1.064.381 2.097.878 3.073 1.501l7.955 5.078c-7.241 35.208-38.699 61.209-75.074 61.209-13.312 0-26.45-3.5-37.993-10.12a7.5 7.5 0 0 0-7.463 13.011 91.51 91.51 0 0 0 45.456 12.108c41.567 0 77.764-28.403 88.448-67.672l60.83 38.829c.44.282.796.678 1.028 1.146l67.401 135.978-65.179 37.245v-76.184a7.5 7.5 0 0 0-15 0V385.7a7.5 7.5 0 0 0 15 0V262.207l74.734-42.705c5.699-3.257 7.881-10.416 4.965-16.298zM253.881 57.405c-13.071 0-25.412-5.037-34.748-14.183-7.274-7.127-12.08-16.127-13.981-25.927 34.676 18.644 67.282 19.413 96.98 2.28-5.27 21.868-24.818 37.83-48.251 37.83z"/></svg>