<svg xmlns="http://www.w3.org/2000/svg" width="512" height="512" xmlns:v="https://vecta.io/nano"><path fill="#ffd250" d="m199.128 2.162-30.693 18.372-4.718-.129-62.734 37.027a49.527 49.527 0 0 0-21.208 25.286L34.757 202.966c-3.462 9.247 1.556 19.504 10.981 22.446l83.062 25.933-.004 221.304L256 480.516l127.2-7.867-.004-221.304 83.062-25.933c9.425-2.943 14.443-13.199 10.981-22.446L432.221 82.718a49.526 49.526 0 0 0-21.208-25.286l-62.734-37.027-5.521.778-29.396-19.345-57.363 32.397z"/><path d="M373.143 155.738c5.552 0 10.052 4.5 10.052 10.052v304.674c0 5.552-4.5 10.052-10.052 10.052h-19.394a9.341 9.341 0 0 0 9.342-9.341V165.79c-.001-5.552 4.5-10.052 10.052-10.052zm-264.447 89.33v-79.28c0-5.552 4.5-10.052 10.052-10.052s10.052 4.5 10.052 10.052v85.556zm357.563-19.657l-10.546 3.296a17.135 17.135 0 0 0 1.421-14.986L412.115 93.477a49.496 49.496 0 0 0-21.206-25.285L294.59 11.34 313.705 0l97.308 57.429a49.523 49.523 0 0 1 21.206 25.285l45.018 120.255c3.461 9.248-1.554 19.496-10.978 22.442z" fill="#ffc433"/><path fill="#76d6b9" d="M34.758 202.964l6.122-16.353 87.916 27.926.004 36.808-83.06-25.932c-9.426-2.943-14.444-13.201-10.982-22.449zm442.485 0l-6.122-16.353-87.916 27.926-.004 36.808 83.061-25.932c9.425-2.943 14.443-13.201 10.981-22.449z"/><path fill="#37cba6" d="m466.259 225.411-10.547 3.296a17.133 17.133 0 0 0 1.421-14.985l-7.58-20.259 21.567-6.849 6.118 16.355c3.471 9.238-1.555 19.496-10.979 22.442z"/><path fill="#76d6b9" d="M348.28 20.403c-9.321 42.382-47.099 74.093-92.282 74.093s-82.961-31.712-92.282-74.093L198.291 0l57.707 36.204L313.705 0z"/><path fill="#37cba6" d="M348.28 20.403c-9.321 42.382-47.099 74.093-92.282 74.093a94.453 94.453 0 0 1-29.713-4.769c2.873.33 5.799.494 8.775.494 43.566 0 87.143-37.778 98.554-78.47z"/><path fill="#76d6b9" d="M373.858 512H138.142a9.34 9.34 0 0 1-9.341-9.341V472.65H383.2v30.009c0 5.159-4.183 9.341-9.342 9.341z"/><path fill="#37cba6" d="M383.195 472.646v30.012a9.34 9.34 0 0 1-9.341 9.341h-20.125a9.34 9.34 0 0 0 9.341-9.341v-30.012z"/><path fill="#effbff" d="M255.998 9.72c20.335.81 57.708-9.72 57.708-9.72 0 31.871-25.837 57.708-57.708 57.708S198.29 31.871 198.29 0c0 0 37.373 10.53 57.708 9.72z"/><path fill="#d6f6fd" d="M313.71.002c0 31.874-25.837 57.71-57.71 57.71a57.525 57.525 0 0 1-22.86-4.708 56.49 56.49 0 0 0 3.74.124c28.649 0 52.426-20.871 56.938-48.243C305.057 2.433 313.71.002 313.71.002z"/><path fill="#37cba6" d="m128.804 251.344-20.109-6.274v-36.922l20.099 6.388z"/></svg>