<svg xmlns="http://www.w3.org/2000/svg" width="512" height="512" viewBox="0 0 493.106 493.106" xmlns:v="https://vecta.io/nano"><path fill="#ff8087" d="M113.338 236.944S103.691 59.824 99.237 63.19a106.799 106.799 0 0 0-19.236 18.774l-21.162 26.643-17.497 22.028-16.919 21.3a10 10 0 0 0 1.336 13.823l73.496 62.778zm355.344-85.008l-55.493-69.939a106.838 106.838 0 0 0-19.097-18.682c-2.778-2.109-8.628 173.629-8.628 173.629l8.465-8.474 73.417-62.71a10.002 10.002 0 0 0 1.336-13.824z"/><path fill="#e6646e" d="m468.682 151.936-55.493-69.939a106.838 106.838 0 0 0-19.097-18.682c-.852-.647-1.992 15.433-3.165 38.039a106.538 106.538 0 0 1 3.196 3.819l55.493 69.939a9.945 9.945 0 0 1 1.942 4.133l15.787-13.485a10 10 0 0 0 1.337-13.824z"/><path fill="#ffb4b9" d="M394.092 63.314a106.9 106.9 0 0 0-29.414-15.821l-60.956-21.316h-114.26l-60.984 21.326a106.949 106.949 0 0 0-29.241 15.684V228.52l.019.016v220.488a12 12 0 0 0 4.95 9.712c13.503 9.811 55.889 34.32 142.387 34.37 86.498-.05 128.884-24.559 142.387-34.37a11.998 11.998 0 0 0 4.95-9.712V228.469z"/><path fill="#ff9ba0" d="M394.092 63.314a106.9 106.9 0 0 0-29.414-15.821l-.6-.21-.149 168.393v246.441c0 4.297-1.839 8.326-4.95 10.852a95.114 95.114 0 0 1-4.43 3.377c17.566-6.516 28.648-13.411 34.43-17.611a11.998 11.998 0 0 0 4.95-9.712V228.468z"/><path fill="#fe8087" d="m197.211.26 88.503-.258-10.957 76.653-33.383.387-34.728 1.967z"/><path fill="#ff8087" d="M316.293 213.42c-13.523 0-24.485-10.962-24.485-24.484v-22.604a4.818 4.818 0 0 1 4.818-4.818h39.332a4.818 4.818 0 0 1 4.818 4.818v22.604c.002 13.522-10.96 24.484-24.483 24.484z"/><g fill="#e6646e"><circle cx="241.374" cy="131.246" r="7.5"/><circle cx="241.374" cy="169.013" r="7.5"/><circle cx="241.374" cy="206.78" r="7.5"/><path d="m199.911 1.834 41.463 75.208-34.36 32.25c-5.964 5.597-15.742 2.824-17.879-5.07l-27.023-68.479 32.931-34.539a3.042 3.042 0 0 1 4.868.63z"/><path d="m282.979 1.575-41.606 75.467 34.36 32.25c5.964 5.597 15.742 2.824 17.879-5.07l29.41-71.294L287.692.794a3.042 3.042 0 0 0-4.713.781z"/></g></svg>