<svg xmlns="http://www.w3.org/2000/svg" version="1.1" xmlns:xlink="http://www.w3.org/1999/xlink" xmlns:svgjs="http://svgjs.com/svgjs" width="512" height="512" x="0" y="0" viewBox="0 0 512 512" style="enable-background:new 0 0 512 512" xml:space="preserve" class=""><g><path d="M72 240a8 8 0 0 0 0-16H40a8 8 0 0 0-8 8v24a8 8 0 0 0 8 8h24v8H40a8 8 0 0 0 0 16h32a8 8 0 0 0 8-8v-24a8 8 0 0 0-8-8H48v-8zM240 240a8 8 0 0 0 0-16h-32a8 8 0 0 0-8 8v24a8 8 0 0 0 8 8h24v8h-24a8 8 0 0 0 0 16h32a8 8 0 0 0 8-8v-24a8 8 0 0 0-8-8h-24v-8zM128 224a8 8 0 0 0-8 8v40h-16v-40a8 8 0 0 0-16 0v48a8 8 0 0 0 8 8h32a8 8 0 0 0 8-8v-48a8 8 0 0 0-8-8zM288 240a8 8 0 0 0 0-16h-24a8 8 0 0 0-8 8v48a8 8 0 0 0 8 8h24a8 8 0 0 0 0-16h-16v-32zM472 240a8 8 0 0 0 0-16h-32a8 8 0 0 0-8 8v48a8 8 0 0 0 8 8h32a8 8 0 0 0 0-16h-24v-8h8a8 8 0 0 0 0-16h-8v-8zM360 224a8 8 0 0 0-8 8v48a8 8 0 0 0 16 0v-48a8 8 0 0 0-8-8z" fill="#000000" data-original="#000000" class=""></path><path d="M464 152H48a40.04 40.04 0 0 0-40 40v128a40.04 40.04 0 0 0 40 40h416a40.04 40.04 0 0 0 40-40V192a40.04 40.04 0 0 0-40-40zm24 168a24.032 24.032 0 0 1-24 24H48a24.032 24.032 0 0 1-24-24V192a24.032 24.032 0 0 1 24-24h416a24.032 24.032 0 0 1 24 24z" fill="#000000" data-original="#000000" class=""></path><path d="M416 248v-16a8 8 0 0 0-8-8h-24a8 8 0 0 0-8 8v48a8 8 0 0 0 8 8h32a8 8 0 0 0 8-8v-24a8 8 0 0 0-8-8zm-24-8h8v8h-8zm16 32h-16v-8h16zM344 256v-24a8 8 0 0 0-8-8h-24a8 8 0 0 0-8 8v48a8 8 0 0 0 16 0v-4.69l10.34 10.35a8 8 0 0 0 11.32-11.32L331.31 264H336a8 8 0 0 0 8-8zm-16-8h-8v-8h8zM184 248v-16a8 8 0 0 0-8-8h-24a8 8 0 0 0-8 8v48a8 8 0 0 0 8 8h32a8 8 0 0 0 8-8v-24a8 8 0 0 0-8-8zm-24-8h8v8h-8zm16 32h-16v-8h16zM48 192h56a8 8 0 0 0 0-16H48a8 8 0 0 0 0 16zM136 176h-8a8 8 0 0 0 0 16h8a8 8 0 0 0 0-16z" fill="#000000" data-original="#000000" class=""></path></g></svg>