<svg xmlns:xsi="http://www.w3.org/2001/XMLSchema-instance"
    xsi:noNamespaceSchemaLocation="companyIcon.xsd" width="800" height="800" viewBox="0 0 24 24"
    xmlns="http://www.w3.org/2000/svg">
    <path fill-rule="evenodd"
        d="M11 2a3 3 0 0 1 3 3v1.17c.313-.11.65-.17 1-.17h4a3 3 0 0 1 3 3v10a3 3 0 0 1-3 3H5a3 3 0 0 1-3-3V5a3 3 0 0 1 3-3zm0 2H5a1 1 0 0 0-1 1v14a1 1 0 0 0 1 1h7V5a1 1 0 0 0-1-1m8 4h-4a1 1 0 0 0-1 1v11h5a1 1 0 0 0 1-1V9a1 1 0 0 0-1-1M9 14a1 1 0 0 1 0 2H7a1 1 0 0 1 0-2zm9 0a1 1 0 0 1 0 2h-2a1 1 0 0 1 0-2zm-9-4a1 1 0 0 1 0 2H7a1 1 0 0 1 0-2zm9 0a1 1 0 0 1 0 2h-2a1 1 0 0 1 0-2zM9 6a1 1 0 1 1 0 2H7a1 1 0 1 1 0-2z" />
</svg>