
<svg version="1.0" xmlns="http://www.w3.org/2000/svg"
 width="225px" height="225px" viewBox="0 0 616.000000 405.000000"
 preserveAspectRatio="xMidYMid meet">

<g transform="translate(0.000000,405.000000) scale(0.100000,-0.100000)"
fill="#9A3570" stroke="none">
<path d="M3356 3572 c69 -50 143 -150 128 -174 -2 -4 -20 0 -39 8 -40 17 -191
54 -219 54 -16 0 -18 -5 -13 -45 6 -40 5 -45 -13 -45 -17 0 -16 -4 12 -29 l33
-30 -67 23 c-37 13 -69 22 -72 19 -6 -6 -66 29 -66 38 0 10 -81 41 -89 34 -3
-4 3 -11 14 -17 66 -37 173 -186 148 -208 -4 -4 -51 -4 -103 -1 -131 9 -270
-4 -376 -35 -141 -42 -144 -42 -146 -3 0 19 -1 40 -1 47 1 17 -23 9 -132 -43
-328 -159 -569 -439 -684 -795 -17 -52 -31 -100 -31 -107 0 -6 -5 -15 -11 -19
-33 -20 41 238 105 363 123 245 325 447 559 559 84 41 51 35 -42 -7 -230 -104
-448 -332 -577 -604 l-47 -98 -19 26 c-11 15 -25 27 -33 27 -7 0 -18 7 -25 15
-11 13 -15 13 -21 3 -15 -22 -10 123 6 190 30 128 119 263 239 363 104 87 86
98 -47 31 -204 -103 -469 -341 -601 -540 -124 -186 -176 -337 -183 -538 -6
-148 8 -240 56 -372 16 -42 32 -95 36 -117 11 -60 53 -156 84 -190 41 -44 91
-121 91 -139 0 -9 -44 -107 -99 -219 -122 -249 -120 -244 -86 -257 16 -6 220
-10 533 -10 279 0 565 -5 636 -10 l129 -9 86 -50 c183 -104 549 -266 638 -282
53 -9 71 -8 140 11 107 29 146 48 286 137 287 181 549 403 715 604 l62 76 112
7 c264 16 450 84 593 218 42 39 90 91 106 115 105 152 152 356 130 563 -29
273 -156 512 -370 696 -86 74 -247 176 -341 215 -30 12 -56 23 -57 24 -2 1 -7
25 -13 53 -9 49 -37 118 -45 110 -2 -2 3 -30 10 -62 8 -33 12 -63 9 -68 -9
-14 -24 -9 -31 10 -13 37 -98 155 -137 189 -93 80 -231 139 -427 184 -80 18
-152 41 -197 64 -72 36 -203 75 -250 75 -23 0 -22 -2 14 -28z m204 -62 c47
-23 190 -126 190 -136 0 -4 -11 1 -24 9 -55 36 -185 111 -248 143 -38 19 -68
36 -68 39 0 6 101 -30 150 -55z m326 -96 c144 -46 243 -100 315 -173 114 -114
136 -228 73 -372 -29 -67 -44 -92 -51 -86 -2 3 5 20 15 38 48 83 52 210 12
304 -42 99 -173 194 -383 281 -98 40 -89 44 19 8z m-491 -15 c58 -18 125 -62
113 -74 -2 -2 -30 9 -63 26 -33 16 -91 41 -130 54 -59 22 -64 25 -29 20 23 -2
72 -14 109 -26z m-436 -225 c33 -4 61 -10 61 -14 0 -4 -53 -10 -117 -13 -195
-10 -362 -67 -500 -171 -101 -76 -173 -205 -173 -308 0 -24 -4 -37 -10 -33 -5
3 -10 37 -10 74 0 56 5 79 32 131 83 166 302 297 551 329 86 12 96 12 166 5z
m-1220 -92 c-140 -92 -297 -220 -376 -307 -244 -270 -366 -565 -351 -851 3
-52 2 -97 -3 -100 -15 -9 -24 70 -24 211 1 170 19 247 100 410 97 196 260 385
463 535 91 68 263 170 286 170 6 0 -37 -31 -95 -68z m2630 -31 c7 -5 12 -14 9
-21 -2 -7 -10 -4 -22 9 -19 21 -12 28 13 12z m139 -60 c323 -162 537 -413 624
-729 30 -107 32 -354 4 -457 -10 -38 -25 -81 -33 -95 -9 -16 -12 -18 -8 -5 45
134 45 409 1 560 -35 118 -103 254 -176 352 -97 130 -257 271 -380 332 -80 41
-120 65 -120 74 0 11 6 9 88 -32z m10 -169 c92 -177 77 -334 -43 -458 -59 -61
-72 -43 -16 23 65 77 85 134 85 234 0 77 -3 92 -37 163 -21 43 -53 100 -72
126 -19 26 -35 54 -35 61 1 26 78 -71 118 -149z m-172 81 c-8 -16 -26 -39 -41
-53 -21 -19 -18 -13 11 27 44 60 51 66 30 26z m-2247 -149 c39 -5 61 -11 61
-19 0 -10 -12 -11 -42 -7 -24 4 -63 7 -87 7 l-45 0 -60 -87 c-33 -48 -62 -86
-64 -84 -5 6 13 40 67 123 51 81 47 79 170 67z m1607 -80 c5 23 9 25 20 14 32
-33 84 -229 84 -319 0 -46 -15 -34 -29 23 -8 28 -42 107 -77 176 -35 69 -64
127 -64 130 0 3 13 -7 29 -22 l30 -29 7 27z m-418 -75 c68 -34 183 -136 279
-249 59 -69 69 -96 26 -72 -13 8 -22 5 -40 -14 -26 -28 -59 -31 -85 -7 -32 29
-17 73 27 73 15 0 10 6 -20 25 -52 32 -71 31 -92 -2 -9 -16 -27 -41 -40 -56
-23 -28 -32 -64 -14 -52 14 8 251 -43 277 -60 21 -14 24 -13 43 13 19 25 22
26 32 9 5 -9 33 -45 60 -78 l50 -60 -31 -39 c-31 -40 -83 -62 -205 -90 -61
-13 -178 6 -258 43 -120 55 -223 192 -248 331 -21 119 30 258 111 298 47 24
57 23 128 -13z m-1038 -50 c-179 -19 -343 -121 -440 -274 -22 -36 -112 -214
-200 -397 -89 -183 -221 -448 -294 -588 -74 -140 -157 -301 -185 -358 -28 -56
-53 -102 -56 -102 -7 0 76 173 204 426 66 132 196 404 290 606 93 202 190 398
215 436 112 169 276 263 456 260 l85 -1 -75 -8z m2005 -58 c-5 -31 -3 -40 10
-43 11 -2 -18 -36 -91 -108 -59 -58 -104 -96 -100 -85 13 38 108 203 138 239
39 47 51 46 43 -3z m-2641 -88 c-23 -105 -25 -109 -40 -88 -21 28 -17 56 13
87 33 35 35 35 27 1z m-90 -79 c15 -40 48 -103 75 -141 l48 -70 -24 -47 c-22
-44 -43 -53 -43 -19 0 8 -26 41 -58 73 -74 73 -96 118 -88 178 6 48 44 119 55
105 4 -4 20 -40 35 -79z m2827 -101 c17 -54 6 -160 -26 -226 -48 -102 -137
-172 -255 -203 l-64 -16 -23 28 c-13 16 -37 49 -53 74 -36 55 -46 67 -65 77
-12 7 -13 16 -4 46 9 35 24 48 31 27 5 -14 51 -16 165 -6 117 9 116 9 116 107
0 55 1 56 46 85 89 57 115 59 132 7z m129 -69 c-17 -79 -24 -60 -9 22 7 38 15
61 17 52 2 -10 -2 -43 -8 -74z m-2253 9 c4 -9 -5 -37 -21 -65 -33 -59 -35 -97
-7 -158 14 -32 17 -48 9 -57 -15 -18 -41 -16 -69 6 -13 10 -35 22 -49 26 -14
4 -32 12 -40 17 -8 6 10 -14 40 -43 68 -66 147 -109 265 -145 86 -26 101 -28
357 -32 147 -2 343 1 435 7 92 6 202 13 243 16 l75 4 -90 -14 c-329 -52 -705
-65 -880 -32 -118 23 -234 61 -317 104 -120 62 -209 171 -207 254 0 33 1 32
17 -16 15 -45 16 -47 20 -22 2 19 8 27 17 23 9 -3 24 12 41 44 43 78 143 130
161 83z m1927 -19 c8 -21 12 -17 -58 -48 -68 -30 -72 -31 -79 -12 -4 11 13 24
55 45 71 36 74 36 82 15z m-159 -94 c0 -7 -6 -15 -12 -17 -8 -3 -13 4 -13 17
0 13 5 20 13 18 6 -3 12 -11 12 -18z m567 -37 c-11 -16 -40 -46 -63 -68 -52
-48 -33 -19 30 48 51 53 61 60 33 20z m-743 -47 c15 -8 35 -25 43 -38 9 -13
36 -48 62 -77 25 -30 44 -56 42 -58 -1 -2 -24 8 -49 22 -70 40 -194 82 -281
95 l-79 13 94 28 c110 32 131 34 168 15z m591 -146 c0 -10 -100 -43 -108 -36
-5 5 77 44 96 45 6 1 12 -3 12 -9z m-903 -76 c-3 -3 -12 -4 -19 -1 -8 3 -5 6
6 6 11 1 17 -2 13 -5z m1553 -133 c-18 -33 -41 -68 -52 -78 -11 -10 -2 11 20
45 23 35 44 73 48 84 3 11 8 17 11 14 3 -2 -10 -32 -27 -65z m-810 -37 c0 -61
-4 -93 -10 -89 -5 3 -10 46 -10 96 0 53 4 89 10 89 6 0 10 -39 10 -96z m57
-76 c-3 -8 -6 -5 -6 6 -1 11 2 17 5 13 3 -3 4 -12 1 -19z m673 -1 c0 -2 -15
-16 -32 -33 l-33 -29 29 33 c28 30 36 37 36 29z m-683 -49 c-3 -8 -6 -5 -6 6
-1 11 2 17 5 13 3 -3 4 -12 1 -19z m603 -22 c0 -2 -8 -10 -17 -17 -16 -13 -17
-12 -4 4 13 16 21 21 21 13z m-45 -36 c-3 -6 -21 -17 -38 -26 -36 -19 -31 -9
10 17 34 21 36 22 28 9z m-132 -70 c-68 -32 -203 -71 -242 -69 -14 0 3 7 39
14 68 14 196 56 227 74 10 6 23 10 28 10 6 0 -18 -14 -52 -29z m-558 -86 c-31
-75 -109 -170 -189 -231 -90 -68 -243 -138 -369 -168 -130 -31 -165 -28 -46 4
98 26 280 111 369 171 76 51 168 143 211 210 18 28 34 50 36 50 2 0 -3 -16
-12 -36z m282 10 c-3 -3 -12 -4 -19 -1 -8 3 -5 6 6 6 11 1 17 -2 13 -5z m-917
-541 c0 -12 -138 -85 -166 -88 -14 -1 -31 -8 -37 -15 -9 -10 -9 -11 3 -6 8 4
6 0 -5 -8 -11 -9 -25 -14 -33 -11 -7 2 -10 1 -7 -4 7 -12 -31 -24 -46 -15 -8
5 -9 3 -4 -6 6 -10 4 -12 -9 -7 -9 4 -15 3 -12 -1 3 -5 -20 -19 -50 -32 l-56
-23 -96 38 c-102 40 -235 105 -229 112 3 2 29 -5 58 -17 30 -11 63 -20 75 -20
11 0 71 18 133 40 61 22 126 40 144 40 31 -1 29 -2 -27 -33 -32 -17 -71 -43
-85 -58 -19 -19 -32 -24 -46 -18 -11 4 -31 8 -45 8 -15 -1 1 -10 40 -23 77
-27 77 -28 268 65 157 76 232 102 232 82z"/>
<path d="M3290 2167 c-12 -25 -11 -30 8 -49 28 -29 31 -22 17 32 l-12 45 -13
-28z"/>
</g>
</svg>
