<svg xmlns="http://www.w3.org/2000/svg" version="1.1" xmlns:xlink="http://www.w3.org/1999/xlink" width="512" height="512" x="0" y="0" viewBox="0 0 512 512" style="enable-background:new 0 0 512 512" xml:space="preserve" class=""><g><path d="M404.997 348.51v-39.809c0-24.514-19.872-44.386-44.386-44.386H151.39c-24.514 0-44.386 19.872-44.386 44.386v39.809h297.993z" style="" fill="#26a6fe" data-original="#26a6fe"></path><path d="M404.997 347.51v-38.809c0-21.997-16.005-40.246-37.003-43.764v82.572h37.003z" style="" fill="#0593fc" data-original="#0593fc"></path><path d="M269.829 248.211h-27.058c-5.037 0-9.911-.7-14.545-1.983v18.086l24.286 34.161c1.977 2.781 6.113 2.762 8.065-.037l23.798-34.124v-18.086a54.438 54.438 0 0 1-14.546 1.983z" style="" fill="#bb5d4c" data-original="#bb5d4c"></path><path d="M180.307 138.65h8.003l.074-.92c2.199-27.297 25.391-48.68 52.8-48.68h30.234c15.481 0 30.149 6.757 40.244 18.54l1.716-.944a75.906 75.906 0 0 1-3.215-26.521c.781-14.149 5.564-27.695 13.685-39.223-14.615-11.981-33.289-19.183-53.617-19.183h-27.86c-46.709 0-84.71 38.001-84.71 84.71v42.994c5.364-6.57 13.522-10.773 22.646-10.773z" style="" fill="#554e56" data-original="#554e56"></path><path d="M310.162 80.125c.781-14.149 5.564-27.695 13.685-39.223a84.54 84.54 0 0 0-33.153-16.663A53.775 53.775 0 0 1 296 47.606v47.501a53.092 53.092 0 0 1 15.661 12.484l1.716-.944a75.914 75.914 0 0 1-3.215-26.522z" style="" fill="#433f43" data-original="#433f43"></path><path d="M188.194 193.621V142.04c0-1.479.077-2.94.196-4.389h-8.083c-16.698 0-30.234 13.536-30.234 30.234s13.536 30.234 30.234 30.234h8.087a54.865 54.865 0 0 1-.2-4.498zM352.685 152.636a5.924 5.924 0 0 0-2.586-.605c-.382 0-.765.039-1.138.115l-24.555 5.016v36.459c0 1.516-.078 3.012-.2 4.497h8.087c16.698 0 30.234-13.536 30.234-30.234 0-4.32-.913-8.425-2.545-12.143a76.411 76.411 0 0 1-7.297-3.105z" style="" fill="#bb5d4c" data-original="#bb5d4c"></path><path d="M269.829 249.198H242.77c-30.694 0-55.577-24.883-55.577-55.577v-51.582c0-29.817 24.172-53.989 53.989-53.989h30.234c29.817 0 53.989 24.172 53.989 53.989v51.582c.001 30.694-24.881 55.577-55.576 55.577z" style="" fill="#d78878" data-original="#d78878"></path><path d="M269.829 249.198H242.77c-30.694 0-55.577-24.883-55.577-55.577v-51.582c0-29.817 24.172-53.989 53.989-53.989h30.234c29.817 0 53.989 24.172 53.989 53.989v51.582c.001 30.694-24.881 55.577-55.576 55.577z" style="" fill="#d78878" data-original="#d78878"></path><path d="M296 93.977V197.03c0 23.945-15.144 44.351-36.376 52.168h10.206c30.694 0 55.577-24.883 55.577-55.577v-51.582c-.001-20.96-11.953-39.117-29.407-48.062z" style="" fill="#c96e59" data-original="#c96e59"></path><path d="M12.5 426.005c0 43.352 35.143 78.495 78.495 78.495h330.01c43.352 0 78.495-35.143 78.495-78.495 0-43.352-35.143-78.495-78.495-78.495H90.995c-43.352 0-78.495 35.143-78.495 78.495z" style="" fill="#ffe177" data-original="#ffe177"></path><path d="M448.168 352.341a78.132 78.132 0 0 1 8.833 36.164C457 431.857 421.857 467 378.505 467H24.051c13.804 22.493 38.618 37.5 66.944 37.5h330.01c43.352 0 78.495-35.143 78.495-78.495 0-33.803-21.368-62.611-51.332-73.664z" style="" fill="#ffd15b" data-original="#ffd15b"></path><path d="m105.15 393.752 8.958 14.411a4.776 4.776 0 0 0 2.913 2.116l16.474 4.067c3.438.849 4.79 5.011 2.508 7.718l-10.937 12.973a4.783 4.783 0 0 0-1.113 3.424l1.223 16.924c.255 3.532-3.286 6.104-6.566 4.77l-15.718-6.393a4.781 4.781 0 0 0-3.6 0l-15.718 6.393c-3.28 1.334-6.821-1.239-6.566-4.77l1.223-16.924a4.774 4.774 0 0 0-1.113-3.424l-10.937-12.973c-2.282-2.707-.93-6.87 2.508-7.718l16.474-4.067a4.78 4.78 0 0 0 2.913-2.116l8.958-14.411c1.87-3.008 6.246-3.008 8.116 0zM208.422 393.752l8.958 14.411a4.776 4.776 0 0 0 2.913 2.116l16.474 4.067c3.438.849 4.79 5.011 2.508 7.718l-10.937 12.973a4.783 4.783 0 0 0-1.113 3.424l1.223 16.924c.255 3.532-3.286 6.104-6.566 4.77l-15.718-6.393a4.781 4.781 0 0 0-3.6 0l-15.718 6.393c-3.28 1.334-6.821-1.239-6.566-4.77l1.223-16.924a4.774 4.774 0 0 0-1.113-3.424l-10.937-12.973c-2.282-2.707-.93-6.87 2.508-7.718l16.474-4.067a4.78 4.78 0 0 0 2.913-2.116l8.958-14.411c1.87-3.008 6.246-3.008 8.116 0zM311.694 393.752l8.958 14.411a4.776 4.776 0 0 0 2.913 2.116l16.474 4.067c3.438.849 4.79 5.011 2.508 7.718l-10.937 12.973a4.783 4.783 0 0 0-1.113 3.424l1.223 16.924c.255 3.532-3.286 6.104-6.566 4.77l-15.718-6.393a4.781 4.781 0 0 0-3.6 0l-15.718 6.393c-3.28 1.334-6.821-1.239-6.566-4.77l1.223-16.924a4.774 4.774 0 0 0-1.113-3.424l-10.937-12.973c-2.282-2.707-.93-6.87 2.508-7.718l16.474-4.067a4.78 4.78 0 0 0 2.913-2.116l8.958-14.411c1.87-3.008 6.246-3.008 8.116 0zM414.966 393.752l8.958 14.411a4.776 4.776 0 0 0 2.913 2.116l16.474 4.067c3.438.849 4.79 5.011 2.508 7.718l-10.937 12.973a4.783 4.783 0 0 0-1.113 3.424l1.223 16.924c.255 3.532-3.286 6.104-6.566 4.77l-15.718-6.393a4.781 4.781 0 0 0-3.6 0l-15.718 6.393c-3.28 1.334-6.821-1.239-6.566-4.77l1.223-16.924a4.774 4.774 0 0 0-1.113-3.424l-10.937-12.973c-2.282-2.707-.93-6.87 2.508-7.718l16.474-4.067a4.78 4.78 0 0 0 2.913-2.116l8.958-14.411c1.87-3.008 6.247-3.008 8.116 0z" style="" fill="#ffffff" data-original="#ffffff"></path><path d="M381.927 7.603c-38.952 1.987-70.614 33.524-72.762 72.466-.881 15.969 3.133 30.935 10.651 43.576.723 1.216.909 2.673.461 4.015l-8.597 25.763c-1.171 3.51 1.896 6.972 5.522 6.231l31.959-6.529a4.815 4.815 0 0 1 3.084.409c11.625 5.683 24.883 8.54 38.895 7.615 38.66-2.552 69.747-34.195 71.631-72.893 2.221-45.573-35.248-82.978-80.844-80.653z" style="" fill="#ffe177" data-original="#ffe177"></path><path d="M381.927 7.603c-38.952 1.987-70.614 33.524-72.762 72.466-.881 15.969 3.133 30.935 10.651 43.576.723 1.216.909 2.673.461 4.015l-8.597 25.763c-1.171 3.51 1.896 6.972 5.522 6.231l31.959-6.529a4.815 4.815 0 0 1 3.084.409c11.625 5.683 24.883 8.54 38.895 7.615 38.66-2.552 69.747-34.195 71.631-72.893 2.221-45.573-35.248-82.978-80.844-80.653z" style="" fill="#ffe177" data-original="#ffe177"></path><path d="M411.633 11.897a75.787 75.787 0 0 1 4.085 20.985c2.325 45.596-35.08 83.065-80.654 80.845a75.762 75.762 0 0 1-21.853-4.356 76.728 76.728 0 0 0 6.605 14.275c.723 1.216.909 2.673.461 4.015l-8.597 25.763c-1.171 3.51 1.896 6.972 5.522 6.231l31.959-6.529a4.815 4.815 0 0 1 3.084.409c11.625 5.683 24.883 8.54 38.895 7.615 38.66-2.552 69.747-34.195 71.631-72.893 1.712-35.121-20.151-65.387-51.138-76.36z" style="" fill="#ffd15b" data-original="#ffd15b"></path><path d="m390.013 50.075 8.958 14.411a4.776 4.776 0 0 0 2.913 2.116l16.474 4.067c3.438.849 4.79 5.011 2.508 7.718L409.929 91.36a4.783 4.783 0 0 0-1.113 3.424l1.223 16.924c.255 3.532-3.286 6.104-6.566 4.77l-15.718-6.393a4.781 4.781 0 0 0-3.6 0l-15.718 6.393c-3.28 1.334-6.821-1.239-6.566-4.77l1.223-16.924a4.774 4.774 0 0 0-1.113-3.424l-10.937-12.973c-2.282-2.707-.93-6.87 2.508-7.718l16.474-4.067a4.78 4.78 0 0 0 2.913-2.116l8.958-14.411c1.87-3.007 6.247-3.007 8.116 0z" style="" fill="#ffffff" data-original="#ffffff"></path><path d="M420.866 78.387c2.282-2.707.93-6.87-2.508-7.719l-9.255-2.285c-8.936 19.899-26.083 35.307-47.13 41.915l-.102 1.41c-.255 3.532 3.286 6.104 6.566 4.77l15.718-6.393a4.781 4.781 0 0 1 3.6 0l15.718 6.393c3.28 1.334 6.821-1.239 6.566-4.77l-1.223-16.924a4.774 4.774 0 0 1 1.113-3.424l10.937-12.973zM445.819 422.064c2.282-2.707.93-6.87-2.508-7.718l-14.565-3.596C426.639 428.905 411.22 443 392.5 443c-1.614 0-3.199-.116-4.758-.319l-.918 12.704c-.255 3.532 3.286 6.104 6.566 4.77l15.718-6.393a4.781 4.781 0 0 1 3.6 0l15.718 6.393c3.28 1.334 6.821-1.239 6.566-4.77l-1.223-16.924a4.778 4.778 0 0 1 1.113-3.424l10.937-12.973zM342.547 422.064c2.282-2.707.93-6.87-2.508-7.718l-14.565-3.596c-2.107 18.155-17.526 32.25-36.246 32.25-1.614 0-3.199-.116-4.758-.319l-.918 12.704c-.255 3.532 3.286 6.104 6.566 4.77l15.718-6.393a4.781 4.781 0 0 1 3.6 0l15.718 6.393c3.28 1.334 6.821-1.239 6.566-4.77l-1.223-16.924a4.778 4.778 0 0 1 1.113-3.424l10.937-12.973zM239.275 422.064c2.282-2.707.93-6.87-2.508-7.718l-14.565-3.596c-2.107 18.155-17.526 32.25-36.246 32.25-1.614 0-3.199-.116-4.758-.319l-.918 12.704c-.255 3.532 3.286 6.104 6.566 4.77l15.718-6.393a4.781 4.781 0 0 1 3.6 0l15.718 6.393c3.28 1.334 6.821-1.239 6.566-4.77l-1.223-16.924a4.778 4.778 0 0 1 1.113-3.424l10.937-12.973zM136.002 422.064c2.282-2.707.93-6.87-2.508-7.718l-14.565-3.596C116.823 428.905 101.404 443 82.684 443c-1.614 0-3.199-.116-4.758-.319l-.918 12.704c-.255 3.532 3.286 6.104 6.566 4.77l15.718-6.393a4.781 4.781 0 0 1 3.6 0l15.718 6.393c3.28 1.334 6.821-1.239 6.566-4.77l-1.223-16.924a4.778 4.778 0 0 1 1.113-3.424l10.936-12.973z" style="" fill="#f9f7f8" data-original="#f9f7f8"></path><path d="M228.226 264.315h0H196M323.058 40.281c-14.496-11.602-32.859-18.563-52.827-18.563h-27.86c-46.709 0-84.71 38.001-84.71 84.71v41.435M325.209 198.118h7.084c16.698 0 30.234-13.536 30.234-30.234v0a30.14 30.14 0 0 0-2.036-10.906M229.305 145.075v5.398M283.295 145.075v5.398M233.154 197.698c12.793 12.793 33.498 12.793 46.291 0M293 347.51H90.995c-43.352 0-78.495 35.143-78.495 78.495v0c0 43.352 35.143 78.495 78.495 78.495h330.01c43.352 0 78.495-35.143 78.495-78.495v0c0-43.352-35.143-78.495-78.495-78.495H328" style="stroke-width:15;stroke-linecap:round;stroke-linejoin:round;stroke-miterlimit:10;" fill="none" stroke="#000000" stroke-width="15" stroke-linecap="round" stroke-linejoin="round" stroke-miterlimit="10" data-original="#000000" class=""></path><path d="M339.031 23.587c-17.139 13.276-28.604 33.596-29.866 56.483-.881 15.969 3.133 30.935 10.651 43.576.723 1.216.909 2.673.461 4.015l-8.597 25.763c-1.171 3.51 1.896 6.972 5.522 6.231l31.959-6.529a4.815 4.815 0 0 1 3.084.409c11.625 5.683 24.883 8.54 38.895 7.615 38.66-2.552 69.747-34.195 71.631-72.893 2.22-45.574-35.249-82.98-80.845-80.654-3.77.192-7.469.668-11.081 1.394" style="stroke-width:15;stroke-linecap:round;stroke-linejoin:round;stroke-miterlimit:10;" fill="none" stroke="#000000" stroke-width="15" stroke-linecap="round" stroke-linejoin="round" stroke-miterlimit="10" data-original="#000000" class=""></path><path d="m390.013 50.075 8.958 14.411a4.776 4.776 0 0 0 2.913 2.116l16.474 4.067c3.438.849 4.79 5.011 2.508 7.718L409.929 91.36a4.783 4.783 0 0 0-1.113 3.424l1.223 16.924c.255 3.532-3.286 6.104-6.566 4.77l-15.718-6.393a4.781 4.781 0 0 0-3.6 0l-15.718 6.393c-3.28 1.334-6.821-1.239-6.566-4.77l1.223-16.924a4.774 4.774 0 0 0-1.113-3.424l-10.937-12.973c-2.282-2.707-.93-6.87 2.508-7.718l16.474-4.067a4.78 4.78 0 0 0 2.913-2.116l8.958-14.411c1.87-3.007 6.247-3.007 8.116 0zM187.387 137.65h-7.08c-16.698 0-30.234 13.536-30.234 30.234v0c0 16.698 13.536 30.234 30.234 30.234h7.084" style="stroke-width:15;stroke-linecap:round;stroke-linejoin:round;stroke-miterlimit:10;" fill="none" stroke="#000000" stroke-width="15" stroke-linecap="round" stroke-linejoin="round" stroke-miterlimit="10" data-original="#000000" class=""></path><path d="M312.421 106.94c-9.902-11.557-24.592-18.889-41.004-18.889h-30.234c-29.817 0-53.989 24.172-53.989 53.989v51.582c0 30.694 24.883 55.577 55.577 55.577h27.059c30.694 0 55.577-24.883 55.577-55.577V157.98M105.15 393.752l8.958 14.411a4.776 4.776 0 0 0 2.913 2.116l16.474 4.067c3.438.849 4.79 5.011 2.508 7.718l-10.937 12.973a4.783 4.783 0 0 0-1.113 3.424l1.223 16.924c.255 3.532-3.286 6.104-6.566 4.77l-15.718-6.393a4.781 4.781 0 0 0-3.6 0l-15.718 6.393c-3.28 1.334-6.821-1.239-6.566-4.77l1.223-16.924a4.774 4.774 0 0 0-1.113-3.424l-10.937-12.973c-2.282-2.707-.93-6.87 2.508-7.718l16.474-4.067a4.78 4.78 0 0 0 2.913-2.116l8.958-14.411c1.87-3.008 6.246-3.008 8.116 0zM208.422 393.752l8.958 14.411a4.776 4.776 0 0 0 2.913 2.116l16.474 4.067c3.438.849 4.79 5.011 2.508 7.718l-10.937 12.973a4.783 4.783 0 0 0-1.113 3.424l1.223 16.924c.255 3.532-3.286 6.104-6.566 4.77l-15.718-6.393a4.781 4.781 0 0 0-3.6 0l-15.718 6.393c-3.28 1.334-6.821-1.239-6.566-4.77l1.223-16.924a4.774 4.774 0 0 0-1.113-3.424l-10.937-12.973c-2.282-2.707-.93-6.87 2.508-7.718l16.474-4.067a4.78 4.78 0 0 0 2.913-2.116l8.958-14.411c1.87-3.008 6.246-3.008 8.116 0zM311.694 393.752l8.958 14.411a4.776 4.776 0 0 0 2.913 2.116l16.474 4.067c3.438.849 4.79 5.011 2.508 7.718l-10.937 12.973a4.783 4.783 0 0 0-1.113 3.424l1.223 16.924c.255 3.532-3.286 6.104-6.566 4.77l-15.718-6.393a4.781 4.781 0 0 0-3.6 0l-15.718 6.393c-3.28 1.334-6.821-1.239-6.566-4.77l1.223-16.924a4.774 4.774 0 0 0-1.113-3.424l-10.937-12.973c-2.282-2.707-.93-6.87 2.508-7.718l16.474-4.067a4.78 4.78 0 0 0 2.913-2.116l8.958-14.411c1.87-3.008 6.246-3.008 8.116 0zM414.966 393.752l8.958 14.411a4.776 4.776 0 0 0 2.913 2.116l16.474 4.067c3.438.849 4.79 5.011 2.508 7.718l-10.937 12.973a4.783 4.783 0 0 0-1.113 3.424l1.223 16.924c.255 3.532-3.286 6.104-6.566 4.77l-15.718-6.393a4.781 4.781 0 0 0-3.6 0l-15.718 6.393c-3.28 1.334-6.821-1.239-6.566-4.77l1.223-16.924a4.774 4.774 0 0 0-1.113-3.424l-10.937-12.973c-2.282-2.707-.93-6.87 2.508-7.718l16.474-4.067a4.78 4.78 0 0 0 2.913-2.116l8.958-14.411c1.87-3.008 6.247-3.008 8.116 0zM404.997 347.51v-38.809c0-24.514-19.872-44.386-44.386-44.386h-76.236v0M161 264.315h-9.61c-24.514 0-44.386 19.872-44.386 44.386v38.809" style="stroke-width:15;stroke-linecap:round;stroke-linejoin:round;stroke-miterlimit:10;" fill="none" stroke="#000000" stroke-width="15" stroke-linecap="round" stroke-linejoin="round" stroke-miterlimit="10" data-original="#000000" class=""></path><path d="M228.226 247.262v17.053l24.286 34.161c1.977 2.781 6.113 2.762 8.065-.037l23.798-34.124v-17.053" style="stroke-width:15;stroke-linecap:round;stroke-linejoin:round;stroke-miterlimit:10;" fill="none" stroke="#000000" stroke-width="15" stroke-linecap="round" stroke-linejoin="round" stroke-miterlimit="10" data-original="#000000" class=""></path></g></svg>